<mxfile host="app.diagrams.net" agent="Mozilla/5.0 (Macintosh; Intel Mac OS X 10_15_7) AppleWebKit/605.1.15 (KHTML, like Gecko) Version/18.5 Safari/605.1.15" version="27.1.1" pages="2">
  <diagram id="mGhe_A7v5pu14u5_M4me" name="PlantUML Mermaid image">
    <mxGraphModel dx="3643" dy="2235" grid="1" gridSize="10" guides="1" tooltips="1" connect="1" arrows="1" fold="1" page="0" pageScale="1" pageWidth="1169" pageHeight="827" math="0" shadow="0">
      <root>
        <mxCell id="0" />
        <mxCell id="1" parent="0" />
        <UserObject label="" plantUmlData="{&quot;data&quot;:&quot;@startuml\n[*] --&gt; Reconnecting\nstate Reconnecting {\n[*] --&gt; EstablishingConnection\nEstablishingConnection --&gt; EstablishingConnection : failed [no connection] /wait 5s then reconnect\nEstablishingConnection --&gt; [*] : success [connection established]\n||\n[*] --&gt; Listening\nListening --&gt; VerifyingAccess : key presented [valid RFID code] /verify\nVerifyingAccess --&gt; Listening\nstate VerifyingAccess{\n[*] --&gt; CheckingInternalRecords\nCheckingInternalRecords --&gt; KeyAccessVerified : key allowed [valid key]\nKeyAccessVerified --&gt; Unlocked : [valid key] /unlock\nUnlocked --&gt; [*] : wait 5 seconds after door close [unlocked] /lock\nCheckingInternalRecords --&gt; InvalidKey : not found [invalid key] /ignore\nInvalidKey --&gt; [*] : /ignore\n}\n}\n@enduml&quot;,&quot;format&quot;:&quot;svg&quot;}" id="owtUUDXRkgIipBkVIKQN-1">
          <mxCell style="shape=image;noLabel=1;verticalAlign=top;aspect=fixed;imageAspect=0;image=data:image/svg+xml,PHN2ZyB4bWxucz0iaHR0cDovL3d3dy53My5vcmcvMjAwMC9zdmciIHhtbG5zOnhsaW5rPSJodHRwOi8vd3d3LnczLm9yZy8xOTk5L3hsaW5rIiBjb250ZW50U3R5bGVUeXBlPSJ0ZXh0L2NzcyIgZGF0YS1kaWFncmFtLXR5cGU9IlNUQVRFIiBoZWlnaHQ9IjcwNnB4IiBwcmVzZXJ2ZUFzcGVjdFJhdGlvPSJub25lIiBzdHlsZT0id2lkdGg6MTE0MnB4O2hlaWdodDo3MDZweDtiYWNrZ3JvdW5kOiNGRkZGRkY7IiB2ZXJzaW9uPSIxLjEiIHZpZXdCb3g9IjAgMCAxMTQyIDcwNiIgd2lkdGg9IjExNDJweCIgem9vbUFuZFBhbj0ibWFnbmlmeSI+PGRlZnMvPjxnPjxwYXRoIGQ9Ik0xOS41LDg2IEwxMTE2LjM3LDg2IEExMi41LDEyLjUgMCAwIDEgMTEyOC44Nyw5OC41IEwxMTI4Ljg3LDExMC45ODQ0IEw3LDExMC45ODQ0IEw3LDk4LjUgQTEyLjUsMTIuNSAwIDAgMSAxOS41LDg2IiBmaWxsPSIjRjFGMUYxIiBzdHlsZT0ic3Ryb2tlOiNGMUYxRjE7c3Ryb2tlLXdpZHRoOjE7Ii8+PHJlY3QgZmlsbD0ibm9uZSIgaGVpZ2h0PSI2MTAuOTg0NCIgcng9IjEyLjUiIHJ5PSIxMi41IiBzdHlsZT0ic3Ryb2tlOiMxODE4MTg7c3Ryb2tlLXdpZHRoOjAuNTsiIHdpZHRoPSIxMTIxLjg3IiB4PSI3IiB5PSI4NiIvPjxsaW5lIHN0eWxlPSJzdHJva2U6IzE4MTgxODtzdHJva2Utd2lkdGg6MC41OyIgeDE9IjciIHgyPSIxMTI4Ljg3IiB5MT0iMTEwLjk4NDQiIHkyPSIxMTAuOTg0NCIvPjx0ZXh0IGZpbGw9IiMwMDAwMDAiIGZvbnQtZmFtaWx5PSJzYW5zLXNlcmlmIiBmb250LXNpemU9IjE0IiBsZW5ndGhBZGp1c3Q9InNwYWNpbmciIHRleHRMZW5ndGg9Ijg0IiB4PSI1MjUuOTM1IiB5PSIxMDQuMjM0NCI+UmVjb25uZWN0aW5nPC90ZXh0PjxlbGxpcHNlIGN4PSIxMDYiIGN5PSIxMzEuOTg0NCIgZmlsbD0iIzIyMjIyMiIgcng9IjEwIiByeT0iMTAiIHN0eWxlPSJzdHJva2U6IzIyMjIyMjtzdHJva2Utd2lkdGg6MTsiLz48ZyBpZD0iUmVjb25uZWN0aW5nLkVzdGFibGlzaGluZ0Nvbm5lY3Rpb24iPjxyZWN0IGZpbGw9IiNGMUYxRjEiIGhlaWdodD0iNTAiIHJ4PSIxMi41IiByeT0iMTIuNSIgc3R5bGU9InN0cm9rZTojMTgxODE4O3N0cm9rZS13aWR0aDowLjU7IiB3aWR0aD0iMTc0IiB4PSIxOSIgeT0iMTc4Ljk4NDQiLz48bGluZSBzdHlsZT0ic3Ryb2tlOiMxODE4MTg7c3Ryb2tlLXdpZHRoOjAuNTsiIHgxPSIxOSIgeDI9IjE5MyIgeTE9IjIwMy45Njg4IiB5Mj0iMjAzLjk2ODgiLz48dGV4dCBmaWxsPSIjMDAwMDAwIiBmb250LWZhbWlseT0ic2Fucy1zZXJpZiIgZm9udC1zaXplPSIxNCIgbGVuZ3RoQWRqdXN0PSJzcGFjaW5nIiB0ZXh0TGVuZ3RoPSIxNTQiIHg9IjI5IiB5PSIxOTcuMjE4OCI+RXN0YWJsaXNoaW5nQ29ubmVjdGlvbjwvdGV4dD48L2c+PGVsbGlwc2UgY3g9IjEwNiIgY3k9IjI5MC45ODQ0IiBmaWxsPSJub25lIiByeD0iMTEiIHJ5PSIxMSIgc3R5bGU9InN0cm9rZTojMjIyMjIyO3N0cm9rZS13aWR0aDoxOyIvPjxlbGxpcHNlIGN4PSIxMDYiIGN5PSIyOTAuOTg0NCIgZmlsbD0iIzIyMjIyMiIgcng9IjYiIHJ5PSI2IiBzdHlsZT0ic3Ryb2tlOiMyMjIyMjI7c3Ryb2tlLXdpZHRoOjE7Ii8+PCEtLWxpbmsgKnN0YXJ0KlJlY29ubmVjdGluZyB0byBFc3RhYmxpc2hpbmdDb25uZWN0aW9uLS0+PGcgY2xhc3M9ImxpbmsiIGRhdGEtZW50aXR5LTE9IipzdGFydCpSZWNvbm5lY3RpbmciIGRhdGEtZW50aXR5LTI9IkVzdGFibGlzaGluZ0Nvbm5lY3Rpb24iIGRhdGEtc291cmNlLWxpbmU9IjMiIGRhdGEtdWlkPSJsbms2IiBpZD0ibGlua18qc3RhcnQqUmVjb25uZWN0aW5nX0VzdGFibGlzaGluZ0Nvbm5lY3Rpb24iPjxwYXRoIGQ9Ik0xMDYsMTQyLjEzNDQgQzEwNiwxNTEuNDA0NCAxMDYsMTYwLjEyNDQgMTA2LDE3Mi43NjQ0IiBmaWxsPSJub25lIiBpZD0iKnN0YXJ0KlJlY29ubmVjdGluZy10by1Fc3RhYmxpc2hpbmdDb25uZWN0aW9uIiBzdHlsZT0ic3Ryb2tlOiMxODE4MTg7c3Ryb2tlLXdpZHRoOjE7Ii8+PHBvbHlnb24gZmlsbD0iIzE4MTgxOCIgcG9pbnRzPSIxMDYsMTc4Ljc2NDQsMTEwLDE2OS43NjQ0LDEwNiwxNzMuNzY0NCwxMDIsMTY5Ljc2NDQsMTA2LDE3OC43NjQ0IiBzdHlsZT0ic3Ryb2tlOiMxODE4MTg7c3Ryb2tlLXdpZHRoOjE7Ii8+PC9nPjwhLS1saW5rIEVzdGFibGlzaGluZ0Nvbm5lY3Rpb24gdG8gRXN0YWJsaXNoaW5nQ29ubmVjdGlvbi0tPjxnIGNsYXNzPSJsaW5rIiBkYXRhLWVudGl0eS0xPSJFc3RhYmxpc2hpbmdDb25uZWN0aW9uIiBkYXRhLWVudGl0eS0yPSJFc3RhYmxpc2hpbmdDb25uZWN0aW9uIiBkYXRhLXNvdXJjZS1saW5lPSI0IiBkYXRhLXVpZD0ibG5rNyIgaWQ9ImxpbmtfRXN0YWJsaXNoaW5nQ29ubmVjdGlvbl9Fc3RhYmxpc2hpbmdDb25uZWN0aW9uIj48cGF0aCBkPSJNMTkzLjMsMTk3LjE3NDQgQzIwMy45OSwxOTguMzk0NCAyMTEsMjAwLjY2NDQgMjExLDIwMy45ODQ0IEMyMTEsMjA3LjMwNDQgMjA5Ljk1MTMsMjA4Ljg5NCAxOTkuMjYxMywyMTAuMTE0IiBmaWxsPSJub25lIiBpZD0iRXN0YWJsaXNoaW5nQ29ubmVjdGlvbi10by1Fc3RhYmxpc2hpbmdDb25uZWN0aW9uIiBzdHlsZT0ic3Ryb2tlOiMxODE4MTg7c3Ryb2tlLXdpZHRoOjE7Ii8+PHBvbHlnb24gZmlsbD0iIzE4MTgxOCIgcG9pbnRzPSIxOTMuMywyMTAuNzk0NCwyMDIuNjk1NSwyMTMuNzQ4MSwxOTguMjY3OCwyMTAuMjI3NCwyMDEuNzg4NCwyMDUuNzk5NywxOTMuMywyMTAuNzk0NCIgc3R5bGU9InN0cm9rZTojMTgxODE4O3N0cm9rZS13aWR0aDoxOyIvPjx0ZXh0IGZpbGw9IiMwMDAwMDAiIGZvbnQtZmFtaWx5PSJzYW5zLXNlcmlmIiBmb250LXNpemU9IjEzIiBsZW5ndGhBZGp1c3Q9InNwYWNpbmciIHRleHRMZW5ndGg9IjI5OSIgeD0iMjE3IiB5PSIyMDkuNzczNCI+ZmFpbGVkIFtubyBjb25uZWN0aW9uXSAvd2FpdCA1cyB0aGVuIHJlY29ubmVjdDwvdGV4dD48L2c+PCEtLWxpbmsgRXN0YWJsaXNoaW5nQ29ubmVjdGlvbiB0byAqZW5kKlJlY29ubmVjdGluZy0tPjxnIGNsYXNzPSJsaW5rIiBkYXRhLWVudGl0eS0xPSJFc3RhYmxpc2hpbmdDb25uZWN0aW9uIiBkYXRhLWVudGl0eS0yPSIqZW5kKlJlY29ubmVjdGluZyIgZGF0YS1zb3VyY2UtbGluZT0iNSIgZGF0YS11aWQ9ImxuazkiIGlkPSJsaW5rX0VzdGFibGlzaGluZ0Nvbm5lY3Rpb25fKmVuZCpSZWNvbm5lY3RpbmciPjxwYXRoIGQ9Ik0xMDYsMjI5LjExNDQgQzEwNiwyNDUuODA0NCAxMDYsMjYxLjE2NDQgMTA2LDI3My42NDQ0IiBmaWxsPSJub25lIiBpZD0iRXN0YWJsaXNoaW5nQ29ubmVjdGlvbi10by0qZW5kKlJlY29ubmVjdGluZyIgc3R5bGU9InN0cm9rZTojMTgxODE4O3N0cm9rZS13aWR0aDoxOyIvPjxwb2x5Z29uIGZpbGw9IiMxODE4MTgiIHBvaW50cz0iMTA2LDI3OS42NDQ0LDExMCwyNzAuNjQ0NCwxMDYsMjc0LjY0NDQsMTAyLDI3MC42NDQ0LDEwNiwyNzkuNjQ0NCIgc3R5bGU9InN0cm9rZTojMTgxODE4O3N0cm9rZS13aWR0aDoxOyIvPjx0ZXh0IGZpbGw9IiMwMDAwMDAiIGZvbnQtZmFtaWx5PSJzYW5zLXNlcmlmIiBmb250LXNpemU9IjEzIiBsZW5ndGhBZGp1c3Q9InNwYWNpbmciIHRleHRMZW5ndGg9IjIwOCIgeD0iMTA3IiB5PSIyNjAuMjczNCI+c3VjY2VzcyBbY29ubmVjdGlvbiBlc3RhYmxpc2hlZF08L3RleHQ+PC9nPjxsaW5lIHN0eWxlPSJzdHJva2U6IzE4MTgxODtzdHJva2Utd2lkdGg6MS41O3N0cm9rZS1kYXNoYXJyYXk6OC4wLDEwLjA7IiB4MT0iNTE2IiB4Mj0iNTE2IiB5MT0iMTE1Ljk4NDQiIHkyPSI2OTkuOTg0NCIvPjxwYXRoIGQ9Ik01MzUuNSwxMjIuOTg0NCBMMTAxNCwxMjIuOTg0NCBBMTIuNSwxMi41IDAgMCAxIDEwMjYuNSwxMzUuNDg0NCBMMTAyNi41LDE0Ny45Njg4IEw1MjMsMTQ3Ljk2ODggTDUyMywxMzUuNDg0NCBBMTIuNSwxMi41IDAgMCAxIDUzNS41LDEyMi45ODQ0IiBmaWxsPSIjRjFGMUYxIiBzdHlsZT0ic3Ryb2tlOiNGMUYxRjE7c3Ryb2tlLXdpZHRoOjE7Ii8+PHJlY3QgZmlsbD0ibm9uZSIgaGVpZ2h0PSI0NjIuOTg0NCIgcng9IjEyLjUiIHJ5PSIxMi41IiBzdHlsZT0ic3Ryb2tlOiMxODE4MTg7c3Ryb2tlLXdpZHRoOjAuNTsiIHdpZHRoPSI1MDMuNSIgeD0iNTIzIiB5PSIxMjIuOTg0NCIvPjxsaW5lIHN0eWxlPSJzdHJva2U6IzE4MTgxODtzdHJva2Utd2lkdGg6MC41OyIgeDE9IjUyMyIgeDI9IjEwMjYuNSIgeTE9IjE0Ny45Njg4IiB5Mj0iMTQ3Ljk2ODgiLz48dGV4dCBmaWxsPSIjMDAwMDAwIiBmb250LWZhbWlseT0ic2Fucy1zZXJpZiIgZm9udC1zaXplPSIxNCIgbGVuZ3RoQWRqdXN0PSJzcGFjaW5nIiB0ZXh0TGVuZ3RoPSIxMDUiIHg9IjcyMi4yNSIgeT0iMTQxLjIxODgiPlZlcmlmeWluZ0FjY2VzczwvdGV4dD48ZWxsaXBzZSBjeD0iNzM3IiBjeT0iMTY4Ljk2ODgiIGZpbGw9IiMyMjIyMjIiIHJ4PSIxMCIgcnk9IjEwIiBzdHlsZT0ic3Ryb2tlOiMyMjIyMjI7c3Ryb2tlLXdpZHRoOjE7Ii8+PGcgaWQ9IlJlY29ubmVjdGluZy5DT05DMi5WZXJpZnlpbmdBY2Nlc3MuQ2hlY2tpbmdJbnRlcm5hbFJlY29yZHMiPjxyZWN0IGZpbGw9IiNGMUYxRjEiIGhlaWdodD0iNTAiIHJ4PSIxMi41IiByeT0iMTIuNSIgc3R5bGU9InN0cm9rZTojMTgxODE4O3N0cm9rZS13aWR0aDowLjU7IiB3aWR0aD0iMTgxIiB4PSI2NDYuNSIgeT0iMjE1Ljk2ODgiLz48bGluZSBzdHlsZT0ic3Ryb2tlOiMxODE4MTg7c3Ryb2tlLXdpZHRoOjAuNTsiIHgxPSI2NDYuNSIgeDI9IjgyNy41IiB5MT0iMjQwLjk1MzEiIHkyPSIyNDAuOTUzMSIvPjx0ZXh0IGZpbGw9IiMwMDAwMDAiIGZvbnQtZmFtaWx5PSJzYW5zLXNlcmlmIiBmb250LXNpemU9IjE0IiBsZW5ndGhBZGp1c3Q9InNwYWNpbmciIHRleHRMZW5ndGg9IjE2MSIgeD0iNjU2LjUiIHk9IjIzNC4yMDMxIj5DaGVja2luZ0ludGVybmFsUmVjb3JkczwvdGV4dD48L2c+PGcgaWQ9IlJlY29ubmVjdGluZy5DT05DMi5WZXJpZnlpbmdBY2Nlc3MuS2V5QWNjZXNzVmVyaWZpZWQiPjxyZWN0IGZpbGw9IiNGMUYxRjEiIGhlaWdodD0iNTAiIHJ4PSIxMi41IiByeT0iMTIuNSIgc3R5bGU9InN0cm9rZTojMTgxODE4O3N0cm9rZS13aWR0aDowLjU7IiB3aWR0aD0iMTM5IiB4PSI1ODAuNSIgeT0iMzE2Ljk2ODgiLz48bGluZSBzdHlsZT0ic3Ryb2tlOiMxODE4MTg7c3Ryb2tlLXdpZHRoOjAuNTsiIHgxPSI1ODAuNSIgeDI9IjcxOS41IiB5MT0iMzQxLjk1MzEiIHkyPSIzNDEuOTUzMSIvPjx0ZXh0IGZpbGw9IiMwMDAwMDAiIGZvbnQtZmFtaWx5PSJzYW5zLXNlcmlmIiBmb250LXNpemU9IjE0IiBsZW5ndGhBZGp1c3Q9InNwYWNpbmciIHRleHRMZW5ndGg9IjExOSIgeD0iNTkwLjUiIHk9IjMzNS4yMDMxIj5LZXlBY2Nlc3NWZXJpZmllZDwvdGV4dD48L2c+PGcgaWQ9IlJlY29ubmVjdGluZy5DT05DMi5WZXJpZnlpbmdBY2Nlc3MuVW5sb2NrZWQiPjxyZWN0IGZpbGw9IiNGMUYxRjEiIGhlaWdodD0iNTAiIHJ4PSIxMi41IiByeT0iMTIuNSIgc3R5bGU9InN0cm9rZTojMTgxODE4O3N0cm9rZS13aWR0aDowLjU7IiB3aWR0aD0iNzYiIHg9IjUzNSIgeT0iNDUyLjk2ODgiLz48bGluZSBzdHlsZT0ic3Ryb2tlOiMxODE4MTg7c3Ryb2tlLXdpZHRoOjAuNTsiIHgxPSI1MzUiIHgyPSI2MTEiIHkxPSI0NzcuOTUzMSIgeTI9IjQ3Ny45NTMxIi8+PHRleHQgZmlsbD0iIzAwMDAwMCIgZm9udC1mYW1pbHk9InNhbnMtc2VyaWYiIGZvbnQtc2l6ZT0iMTQiIGxlbmd0aEFkanVzdD0ic3BhY2luZyIgdGV4dExlbmd0aD0iNTYiIHg9IjU0NSIgeT0iNDcxLjIwMzEiPlVubG9ja2VkPC90ZXh0PjwvZz48ZWxsaXBzZSBjeD0iNzE3IiBjeT0iNTY0Ljk2ODgiIGZpbGw9Im5vbmUiIHJ4PSIxMSIgcnk9IjExIiBzdHlsZT0ic3Ryb2tlOiMyMjIyMjI7c3Ryb2tlLXdpZHRoOjE7Ii8+PGVsbGlwc2UgY3g9IjcxNyIgY3k9IjU2NC45Njg4IiBmaWxsPSIjMjIyMjIyIiByeD0iNiIgcnk9IjYiIHN0eWxlPSJzdHJva2U6IzIyMjIyMjtzdHJva2Utd2lkdGg6MTsiLz48ZyBpZD0iUmVjb25uZWN0aW5nLkNPTkMyLlZlcmlmeWluZ0FjY2Vzcy5JbnZhbGlkS2V5Ij48cmVjdCBmaWxsPSIjRjFGMUYxIiBoZWlnaHQ9IjUwIiByeD0iMTIuNSIgcnk9IjEyLjUiIHN0eWxlPSJzdHJva2U6IzE4MTgxODtzdHJva2Utd2lkdGg6MC41OyIgd2lkdGg9IjkwIiB4PSI4MTgiIHk9IjM4NC45Njg4Ii8+PGxpbmUgc3R5bGU9InN0cm9rZTojMTgxODE4O3N0cm9rZS13aWR0aDowLjU7IiB4MT0iODE4IiB4Mj0iOTA4IiB5MT0iNDA5Ljk1MzEiIHkyPSI0MDkuOTUzMSIvPjx0ZXh0IGZpbGw9IiMwMDAwMDAiIGZvbnQtZmFtaWx5PSJzYW5zLXNlcmlmIiBmb250LXNpemU9IjE0IiBsZW5ndGhBZGp1c3Q9InNwYWNpbmciIHRleHRMZW5ndGg9IjcwIiB4PSI4MjgiIHk9IjQwMy4yMDMxIj5JbnZhbGlkS2V5PC90ZXh0PjwvZz48IS0tbGluayAqc3RhcnQqVmVyaWZ5aW5nQWNjZXNzIHRvIENoZWNraW5nSW50ZXJuYWxSZWNvcmRzLS0+PGcgY2xhc3M9ImxpbmsiIGRhdGEtZW50aXR5LTE9IipzdGFydCpWZXJpZnlpbmdBY2Nlc3MiIGRhdGEtZW50aXR5LTI9IkNoZWNraW5nSW50ZXJuYWxSZWNvcmRzIiBkYXRhLXNvdXJjZS1saW5lPSIxMSIgZGF0YS11aWQ9ImxuazE3IiBpZD0ibGlua18qc3RhcnQqVmVyaWZ5aW5nQWNjZXNzX0NoZWNraW5nSW50ZXJuYWxSZWNvcmRzIj48cGF0aCBkPSJNNzM3LDE3OS4xMTg3IEM3MzcsMTg4LjM4ODggNzM3LDE5Ny4xMDg4IDczNywyMDkuNzQ4NyIgZmlsbD0ibm9uZSIgaWQ9IipzdGFydCpWZXJpZnlpbmdBY2Nlc3MtdG8tQ2hlY2tpbmdJbnRlcm5hbFJlY29yZHMiIHN0eWxlPSJzdHJva2U6IzE4MTgxODtzdHJva2Utd2lkdGg6MTsiLz48cG9seWdvbiBmaWxsPSIjMTgxODE4IiBwb2ludHM9IjczNywyMTUuNzQ4Nyw3NDEsMjA2Ljc0ODcsNzM3LDIxMC43NDg3LDczMywyMDYuNzQ4Nyw3MzcsMjE1Ljc0ODciIHN0eWxlPSJzdHJva2U6IzE4MTgxODtzdHJva2Utd2lkdGg6MTsiLz48L2c+PCEtLWxpbmsgQ2hlY2tpbmdJbnRlcm5hbFJlY29yZHMgdG8gS2V5QWNjZXNzVmVyaWZpZWQtLT48ZyBjbGFzcz0ibGluayIgZGF0YS1lbnRpdHktMT0iQ2hlY2tpbmdJbnRlcm5hbFJlY29yZHMiIGRhdGEtZW50aXR5LTI9IktleUFjY2Vzc1ZlcmlmaWVkIiBkYXRhLXNvdXJjZS1saW5lPSIxMiIgZGF0YS11aWQ9ImxuazE5IiBpZD0ibGlua19DaGVja2luZ0ludGVybmFsUmVjb3Jkc19LZXlBY2Nlc3NWZXJpZmllZCI+PHBhdGggZD0iTTY2OC4yMywyNjYuMTc4OCBDNjYxLjQ2LDI3MS4wODg4IDY1NS40NiwyNzYuOTU4OCA2NTEsMjgzLjk2ODggQzY0NC44OSwyOTMuNTY4OCA2NDMuNTM1NywzMDAuMDcxNyA2NDQuNDg1NywzMTAuOTAxNyIgZmlsbD0ibm9uZSIgaWQ9IkNoZWNraW5nSW50ZXJuYWxSZWNvcmRzLXRvLUtleUFjY2Vzc1ZlcmlmaWVkIiBzdHlsZT0ic3Ryb2tlOiMxODE4MTg7c3Ryb2tlLXdpZHRoOjE7Ii8+PHBvbHlnb24gZmlsbD0iIzE4MTgxOCIgcG9pbnRzPSI2NDUuMDEsMzE2Ljg3ODgsNjQ4LjIwODIsMzA3LjU2MzYsNjQ0LjU3MzEsMzExLjg5NzksNjQwLjIzODgsMzA4LjI2MjcsNjQ1LjAxLDMxNi44Nzg4IiBzdHlsZT0ic3Ryb2tlOiMxODE4MTg7c3Ryb2tlLXdpZHRoOjE7Ii8+PHRleHQgZmlsbD0iIzAwMDAwMCIgZm9udC1mYW1pbHk9InNhbnMtc2VyaWYiIGZvbnQtc2l6ZT0iMTMiIGxlbmd0aEFkanVzdD0ic3BhY2luZyIgdGV4dExlbmd0aD0iMTQ5LjUiIHg9IjY1MiIgeT0iMjk3LjI1NzgiPmtleSBhbGxvd2VkIFt2YWxpZCBrZXldPC90ZXh0PjwvZz48IS0tbGluayBLZXlBY2Nlc3NWZXJpZmllZCB0byBVbmxvY2tlZC0tPjxnIGNsYXNzPSJsaW5rIiBkYXRhLWVudGl0eS0xPSJLZXlBY2Nlc3NWZXJpZmllZCIgZGF0YS1lbnRpdHktMj0iVW5sb2NrZWQiIGRhdGEtc291cmNlLWxpbmU9IjEzIiBkYXRhLXVpZD0ibG5rMjEiIGlkPSJsaW5rX0tleUFjY2Vzc1ZlcmlmaWVkX1VubG9ja2VkIj48cGF0aCBkPSJNNjM2LjA2LDM2Ny4yMzg4IEM2MjIuMSwzOTEuNTE4OCA2MDMuNzQ5OCw0MjMuNDU2NyA1ODkuODI5OCw0NDcuNjc2NyIgZmlsbD0ibm9uZSIgaWQ9IktleUFjY2Vzc1ZlcmlmaWVkLXRvLVVubG9ja2VkIiBzdHlsZT0ic3Ryb2tlOiMxODE4MTg7c3Ryb2tlLXdpZHRoOjE7Ii8+PHBvbHlnb24gZmlsbD0iIzE4MTgxOCIgcG9pbnRzPSI1ODYuODQsNDUyLjg3ODcsNTk0Ljc5MjcsNDQ3LjA2ODksNTg5LjMzMTUsNDQ4LjU0MzcsNTg3Ljg1NjYsNDQzLjA4MjUsNTg2Ljg0LDQ1Mi44Nzg3IiBzdHlsZT0ic3Ryb2tlOiMxODE4MTg7c3Ryb2tlLXdpZHRoOjE7Ii8+PHRleHQgZmlsbD0iIzAwMDAwMCIgZm9udC1mYW1pbHk9InNhbnMtc2VyaWYiIGZvbnQtc2l6ZT0iMTMiIGxlbmd0aEFkanVzdD0ic3BhY2luZyIgdGV4dExlbmd0aD0iMTIzLjUiIHg9IjYyNyIgeT0iNDE1Ljc1NzgiPlt2YWxpZCBrZXldIC91bmxvY2s8L3RleHQ+PC9nPjwhLS1saW5rIFVubG9ja2VkIHRvICplbmQqVmVyaWZ5aW5nQWNjZXNzLS0+PGcgY2xhc3M9ImxpbmsiIGRhdGEtZW50aXR5LTE9IlVubG9ja2VkIiBkYXRhLWVudGl0eS0yPSIqZW5kKlZlcmlmeWluZ0FjY2VzcyIgZGF0YS1zb3VyY2UtbGluZT0iMTQiIGRhdGEtdWlkPSJsbmsyMyIgaWQ9ImxpbmtfVW5sb2NrZWRfKmVuZCpWZXJpZnlpbmdBY2Nlc3MiPjxwYXRoIGQ9Ik01NTUuMTcsNTAzLjE1ODggQzU0OS4zNyw1MTQuMTQ4OCA1NDYuMiw1MjYuNzE4OCA1NTQsNTM1Ljk2ODggQzU3My42Miw1NTkuMjM4OCA2NjYuNTMxMiw1NjMuMDQ4NSA2OTkuOTUxMiw1NjMuNzE4NSIgZmlsbD0ibm9uZSIgaWQ9IlVubG9ja2VkLXRvLSplbmQqVmVyaWZ5aW5nQWNjZXNzIiBzdHlsZT0ic3Ryb2tlOiMxODE4MTg7c3Ryb2tlLXdpZHRoOjE7Ii8+PHBvbHlnb24gZmlsbD0iIzE4MTgxOCIgcG9pbnRzPSI3MDUuOTUsNTYzLjgzODgsNjk3LjAzMiw1NTkuNjU5Miw3MDAuOTUxLDU2My43Mzg1LDY5Ni44NzE2LDU2Ny42NTc2LDcwNS45NSw1NjMuODM4OCIgc3R5bGU9InN0cm9rZTojMTgxODE4O3N0cm9rZS13aWR0aDoxOyIvPjx0ZXh0IGZpbGw9IiMwMDAwMDAiIGZvbnQtZmFtaWx5PSJzYW5zLXNlcmlmIiBmb250LXNpemU9IjEzIiBsZW5ndGhBZGp1c3Q9InNwYWNpbmciIHRleHRMZW5ndGg9IjMxMiIgeD0iNTU1IiB5PSI1MzQuMjU3OCI+d2FpdCA1IHNlY29uZHMgYWZ0ZXIgZG9vciBjbG9zZSBbdW5sb2NrZWRdIC9sb2NrPC90ZXh0PjwvZz48IS0tbGluayBDaGVja2luZ0ludGVybmFsUmVjb3JkcyB0byBJbnZhbGlkS2V5LS0+PGcgY2xhc3M9ImxpbmsiIGRhdGEtZW50aXR5LTE9IkNoZWNraW5nSW50ZXJuYWxSZWNvcmRzIiBkYXRhLWVudGl0eS0yPSJJbnZhbGlkS2V5IiBkYXRhLXNvdXJjZS1saW5lPSIxNSIgZGF0YS11aWQ9ImxuazI1IiBpZD0ibGlua19DaGVja2luZ0ludGVybmFsUmVjb3Jkc19JbnZhbGlkS2V5Ij48cGF0aCBkPSJNNzgxLjU0LDI2Ni4wNjg4IEM3ODguOTUsMjcxLjMyODggNzk2LjEyLDI3Ny4zMzg4IDgwMiwyODMuOTY4OCBDODI4LjYsMzEzLjk1ODggODQ0LjQxNDIsMzUxLjkyOTYgODUzLjYxNDIsMzc4LjkxOTYiIGZpbGw9Im5vbmUiIGlkPSJDaGVja2luZ0ludGVybmFsUmVjb3Jkcy10by1JbnZhbGlkS2V5IiBzdHlsZT0ic3Ryb2tlOiMxODE4MTg7c3Ryb2tlLXdpZHRoOjE7Ii8+PHBvbHlnb24gZmlsbD0iIzE4MTgxOCIgcG9pbnRzPSI4NTUuNTUsMzg0LjU5ODgsODU2LjQzMjMsMzc0Ljc4OTUsODUzLjkzNjgsMzc5Ljg2NjEsODQ4Ljg2MDIsMzc3LjM3MDYsODU1LjU1LDM4NC41OTg4IiBzdHlsZT0ic3Ryb2tlOiMxODE4MTg7c3Ryb2tlLXdpZHRoOjE7Ii8+PHRleHQgZmlsbD0iIzAwMDAwMCIgZm9udC1mYW1pbHk9InNhbnMtc2VyaWYiIGZvbnQtc2l6ZT0iMTMiIGxlbmd0aEFkanVzdD0ic3BhY2luZyIgdGV4dExlbmd0aD0iMjAxLjUiIHg9IjgxNSIgeT0iMjk3LjI1NzgiPm5vdCBmb3VuZCBbaW52YWxpZCBrZXldIC9pZ25vcmU8L3RleHQ+PC9nPjwhLS1saW5rIEludmFsaWRLZXkgdG8gKmVuZCpWZXJpZnlpbmdBY2Nlc3MtLT48ZyBjbGFzcz0ibGluayIgZGF0YS1lbnRpdHktMT0iSW52YWxpZEtleSIgZGF0YS1lbnRpdHktMj0iKmVuZCpWZXJpZnlpbmdBY2Nlc3MiIGRhdGEtc291cmNlLWxpbmU9IjE2IiBkYXRhLXVpZD0ibG5rMjYiIGlkPSJsaW5rX0ludmFsaWRLZXlfKmVuZCpWZXJpZnlpbmdBY2Nlc3MiPjxwYXRoIGQ9Ik04NzIuNjQsNDM1LjE3ODggQzg4MS44OSw0NjIuODQ4OCA4OTEuMzMsNTA3LjkxODggODY4LDUzNS45Njg4IEM4NTAuMSw1NTcuNDg4OCA3NjUuOTU2Myw1NjIuMzM3NyA3MzQuMTM2Myw1NjMuNDU3NyIgZmlsbD0ibm9uZSIgaWQ9IkludmFsaWRLZXktdG8tKmVuZCpWZXJpZnlpbmdBY2Nlc3MiIHN0eWxlPSJzdHJva2U6IzE4MTgxODtzdHJva2Utd2lkdGg6MTsiLz48cG9seWdvbiBmaWxsPSIjMTgxODE4IiBwb2ludHM9IjcyOC4xNCw1NjMuNjY4OCw3MzcuMjc1MSw1NjcuMzQ5Nyw3MzMuMTM2OSw1NjMuNDkyOSw3MzYuOTkzNyw1NTkuMzU0Niw3MjguMTQsNTYzLjY2ODgiIHN0eWxlPSJzdHJva2U6IzE4MTgxODtzdHJva2Utd2lkdGg6MTsiLz48dGV4dCBmaWxsPSIjMDAwMDAwIiBmb250LWZhbWlseT0ic2Fucy1zZXJpZiIgZm9udC1zaXplPSIxMyIgbGVuZ3RoQWRqdXN0PSJzcGFjaW5nIiB0ZXh0TGVuZ3RoPSI0NS41IiB4PSI4ODMiIHk9IjQ4My43NTc4Ij4vaWdub3JlPC90ZXh0PjwvZz48ZWxsaXBzZSBjeD0iMTA2NiIgY3k9IjM1NC40ODQ0IiBmaWxsPSIjMjIyMjIyIiByeD0iMTAiIHJ5PSIxMCIgc3R5bGU9InN0cm9rZTojMjIyMjIyO3N0cm9rZS13aWR0aDoxOyIvPjxnIGlkPSJSZWNvbm5lY3RpbmcuQ09OQzIuTGlzdGVuaW5nIj48cmVjdCBmaWxsPSIjRjFGMUYxIiBoZWlnaHQ9IjUwIiByeD0iMTIuNSIgcnk9IjEyLjUiIHN0eWxlPSJzdHJva2U6IzE4MTgxODtzdHJva2Utd2lkdGg6MC41OyIgd2lkdGg9IjgzIiB4PSI3NTQuNSIgeT0iNjM2Ljk4NDQiLz48bGluZSBzdHlsZT0ic3Ryb2tlOiMxODE4MTg7c3Ryb2tlLXdpZHRoOjAuNTsiIHgxPSI3NTQuNSIgeDI9IjgzNy41IiB5MT0iNjYxLjk2ODgiIHkyPSI2NjEuOTY4OCIvPjx0ZXh0IGZpbGw9IiMwMDAwMDAiIGZvbnQtZmFtaWx5PSJzYW5zLXNlcmlmIiBmb250LXNpemU9IjE0IiBsZW5ndGhBZGp1c3Q9InNwYWNpbmciIHRleHRMZW5ndGg9IjYzIiB4PSI3NjQuNSIgeT0iNjU1LjIxODgiPkxpc3RlbmluZzwvdGV4dD48L2c+PCEtLWxpbmsgKnN0YXJ0KkNPTkMyIHRvIExpc3RlbmluZy0tPjxnIGNsYXNzPSJsaW5rIiBkYXRhLWVudGl0eS0xPSIqc3RhcnQqQ09OQzIiIGRhdGEtZW50aXR5LTI9Ikxpc3RlbmluZyIgZGF0YS1zb3VyY2UtbGluZT0iNyIgZGF0YS11aWQ9ImxuazEyIiBpZD0ibGlua18qc3RhcnQqQ09OQzJfTGlzdGVuaW5nIj48cGF0aCBkPSJNMTA2OC45MiwzNjQuMTg0NCBDMTA4MC41Niw0MDAuNzE0NCAxMTE5Ljg3LDU0My4yNDQ0IDEwNTIsNjE4Ljk4NDQgQzEwMjQuMiw2NTAuMDE0NCA5MDguODg2OCw2NTcuOTI5MiA4NDMuNzM2OCw2NjAuMDQ5MiIgZmlsbD0ibm9uZSIgaWQ9IipzdGFydCpDT05DMi10by1MaXN0ZW5pbmciIHN0eWxlPSJzdHJva2U6IzE4MTgxODtzdHJva2Utd2lkdGg6MTsiLz48cG9seWdvbiBmaWxsPSIjMTgxODE4IiBwb2ludHM9IjgzNy43NCw2NjAuMjQ0NCw4NDYuODY1Myw2NjMuOTQ5Niw4NDIuNzM3NCw2NjAuMDgxOCw4NDYuNjA1MSw2NTUuOTUzOCw4MzcuNzQsNjYwLjI0NDQiIHN0eWxlPSJzdHJva2U6IzE4MTgxODtzdHJva2Utd2lkdGg6MTsiLz48L2c+PCEtLWxpbmsgTGlzdGVuaW5nIHRvIFZlcmlmeWluZ0FjY2Vzcy0tPjxnIGNsYXNzPSJsaW5rIiBkYXRhLWVudGl0eS0xPSJMaXN0ZW5pbmciIGRhdGEtZW50aXR5LTI9IlZlcmlmeWluZ0FjY2VzcyIgZGF0YS1zb3VyY2UtbGluZT0iOCIgZGF0YS11aWQ9ImxuazEzIiBpZD0ibGlua19MaXN0ZW5pbmdfVmVyaWZ5aW5nQWNjZXNzIj48cGF0aCBkPSJNNzk0LjM0LDYzNi44NTQ0IEM3OTMuNDQsNjIzLjc5NDQgNzkyLjY1MzIsNjEyLjIzMDEgNzkxLjI3MzIsNTkyLjI0MDEiIGZpbGw9Im5vbmUiIGlkPSJMaXN0ZW5pbmctdG8tVmVyaWZ5aW5nQWNjZXNzIiBzdHlsZT0ic3Ryb2tlOiMxODE4MTg7c3Ryb2tlLXdpZHRoOjE7Ii8+PHBvbHlnb24gZmlsbD0iIzE4MTgxOCIgcG9pbnRzPSI3OTAuODYsNTg2LjI1NDQsNzg3LjQ4OTMsNTk1LjUwODUsNzkxLjIwNDQsNTkxLjI0MjUsNzk1LjQ3MDMsNTk0Ljk1NzUsNzkwLjg2LDU4Ni4yNTQ0IiBzdHlsZT0ic3Ryb2tlOiMxODE4MTg7c3Ryb2tlLXdpZHRoOjE7Ii8+PHRleHQgZmlsbD0iIzAwMDAwMCIgZm9udC1mYW1pbHk9InNhbnMtc2VyaWYiIGZvbnQtc2l6ZT0iMTMiIGxlbmd0aEFkanVzdD0ic3BhY2luZyIgdGV4dExlbmd0aD0iMjUzLjUiIHg9Ijc5NCIgeT0iNjE3LjI3MzQiPmtleSBwcmVzZW50ZWQgW3ZhbGlkIFJGSUQgY29kZV0gL3ZlcmlmeTwvdGV4dD48L2c+PCEtLWxpbmsgVmVyaWZ5aW5nQWNjZXNzIHRvIExpc3RlbmluZy0tPjxnIGNsYXNzPSJsaW5rIiBkYXRhLWVudGl0eS0xPSJWZXJpZnlpbmdBY2Nlc3MiIGRhdGEtZW50aXR5LTI9Ikxpc3RlbmluZyIgZGF0YS1zb3VyY2UtbGluZT0iOSIgZGF0YS11aWQ9ImxuazE0IiBpZD0ibGlua19WZXJpZnlpbmdBY2Nlc3NfTGlzdGVuaW5nIj48cGF0aCBkPSJNNzg1Ljc3LDU4Ni4yNTQ0IEM3ODYuNzUsNTk3LjMyNDQgNzg3LjgzLDYwOC4yODQ0IDc4OSw2MTguOTg0NCBDNzg5LjYzLDYyNC43MTQ0IDc4OS41NTM2LDYyNC45MzI3IDc5MC40OTM2LDYzMC42OTI3IiBmaWxsPSJub25lIiBpZD0iVmVyaWZ5aW5nQWNjZXNzLXRvLUxpc3RlbmluZyIgc3R5bGU9InN0cm9rZTojMTgxODE4O3N0cm9rZS13aWR0aDoxOyIvPjxwb2x5Z29uIGZpbGw9IiMxODE4MTgiIHBvaW50cz0iNzkxLjQ2LDYzNi42MTQ0LDc5My45NTgyLDYyNy4wODc2LDc5MC42NTQ3LDYzMS42Nzk3LDc4Ni4wNjI2LDYyOC4zNzYxLDc5MS40Niw2MzYuNjE0NCIgc3R5bGU9InN0cm9rZTojMTgxODE4O3N0cm9rZS13aWR0aDoxOyIvPjwvZz48ZWxsaXBzZSBjeD0iNTY4IiBjeT0iMTYiIGZpbGw9IiMyMjIyMjIiIHJ4PSIxMCIgcnk9IjEwIiBzdHlsZT0ic3Ryb2tlOiMyMjIyMjI7c3Ryb2tlLXdpZHRoOjE7Ii8+PCEtLWxpbmsgKnN0YXJ0KiB0byBSZWNvbm5lY3RpbmctLT48ZyBjbGFzcz0ibGluayIgZGF0YS1lbnRpdHktMT0iKnN0YXJ0KiIgZGF0YS1lbnRpdHktMj0iUmVjb25uZWN0aW5nIiBkYXRhLXNvdXJjZS1saW5lPSIxIiBkYXRhLXVpZD0ibG5rMyIgaWQ9ImxpbmtfKnN0YXJ0Kl9SZWNvbm5lY3RpbmciPjxwYXRoIGQ9Ik01NjgsMjYuMjMgQzU2OCwzNy42OSA1NjgsNTMuMDQgNTY4LDc5Ljg5IiBmaWxsPSJub25lIiBpZD0iKnN0YXJ0Ki10by1SZWNvbm5lY3RpbmciIHN0eWxlPSJzdHJva2U6IzE4MTgxODtzdHJva2Utd2lkdGg6MTsiLz48cG9seWdvbiBmaWxsPSIjMTgxODE4IiBwb2ludHM9IjU2OCw4NS44OSw1NzIsNzYuODksNTY4LDgwLjg5LDU2NCw3Ni44OSw1NjgsODUuODkiIHN0eWxlPSJzdHJva2U6IzE4MTgxODtzdHJva2Utd2lkdGg6MTsiLz48L2c+PCEtLVNSQz1bVlA1Rkp5Q20zQ05sLUhHLThxcXhTVWExMkdzR0FaWERXYWxMR3FaVERNaGFlMkpUTEI1elR6cHF4bVJxclp4eEZWX2lQN1N2UjNPRmk0VGJZTDA1SkdWWFdtbnU5UzZ0bzhSRVB3di02a3FoYmRUM1dvTm5qeHBZVzBIQWdHcU1hOTQ1RFVhdlI0ekkxeFp0NDJlYVMyRjZzZVdFQlc3VkE4TlVHcFFkME91Y0I3OW5GYXpobDZhVmFCZmpmdy1lVnczSlBTal9adHJNMFpNc3lFTkc4dUtFellZREJjM19hWnVuVDg2Q1V1bU1TVWt5ZGpCVnpBUGRsa2drR2JNcGRsOEdIejlxbnRVNTVfX2VxVkVBUkh5SktwTjN6UjNJNjdrUUtMZEFuVV9VQms2VFo1THJEMndRT1RqNE5LcGItU0p6cXUzbDdlS25QQ2JPSzVaaEcxZGg0UjljeTcxQXA1WFI4QUt1YkRhdWNNbzBxWlI0dDlnTUNGZjByZzVPREN5dU9fNFlCWnkwXS0tPjwvZz48L3N2Zz4=;" vertex="1" parent="1">
            <mxGeometry x="-780" y="-410" width="1142" height="706" as="geometry" />
          </mxCell>
        </UserObject>
        <UserObject label="" mermaidData="{&#xa;  &quot;data&quot;: &quot;stateDiagram-v2\n  [*] --&gt; Reconnecting\n  state Reconnecting {\n      [*] --&gt; EstablishingConnection\n      EstablishingConnection --&gt; EstablishingConnection : failed [no connection] /wait 5s then reconnect\n      EstablishingConnection --&gt; [*] : success [connection established]\n  --\n  [*] --&gt; Listening\n  Listening  --&gt; VerifyingAccess : key presented [valid RFID code] /verify\n  VerifyingAccess --&gt; [*]\n  VerifyingAccess --&gt; Listening\n    state VerifyingAccess{\n      [*] --&gt; CheckingInternalRecords\n      CheckingInternalRecords --&gt; KeyAccessVerified : key allowed [valid key]\n      KeyAccessVerified --&gt; Unlocked : [valid key] /unlock\n      Unlocked --&gt; [*] : wait 5 seconds after door close [unlocked] /lock\n      CheckingInternalRecords --&gt; InvalidKey : not found [invalid key] /ignore\n      InvalidKey --&gt; [*] : /ignore\n    }\n  }&quot;&#xa;}" id="owtUUDXRkgIipBkVIKQN-2">
          <mxCell style="shape=image;noLabel=1;verticalAlign=top;imageAspect=1;image=data:image/svg+xml,PHN2ZyBhcmlhLXJvbGVkZXNjcmlwdGlvbj0ic3RhdGVEaWFncmFtIiByb2xlPSJncmFwaGljcy1kb2N1bWVudCBkb2N1bWVudCIgdmlld0JveD0iMCAwIDk2NS4wNzU4MDU2NjQwNjI1IDE1MjIuNzgxMjUiIHN0eWxlPSJtYXgtd2lkdGg6IDk2NS4wNzU4MDU2NjQwNjI1cHg7IiBjbGFzcz0ic3RhdGVkaWFncmFtIiB4bWxucz0iaHR0cDovL3d3dy53My5vcmcvMjAwMC9zdmciIHdpZHRoPSIxMDAlIiBpZD0iZ2VNZXJtYWlkT3V0cHV0LTE3NDkyMjU2NTg2MjMiPjxzdHlsZT4jZ2VNZXJtYWlkT3V0cHV0LTE3NDkyMjU2NTg2MjN7Zm9udC1mYW1pbHk6InRyZWJ1Y2hldCBtcyIsdmVyZGFuYSxhcmlhbCxzYW5zLXNlcmlmO2ZvbnQtc2l6ZToxNnB4O2ZpbGw6IzAwMDAwMDt9QGtleWZyYW1lcyBlZGdlLWFuaW1hdGlvbi1mcmFtZXtmcm9te3N0cm9rZS1kYXNob2Zmc2V0OjA7fX1Aa2V5ZnJhbWVzIGRhc2h7dG97c3Ryb2tlLWRhc2hvZmZzZXQ6MDt9fSNnZU1lcm1haWRPdXRwdXQtMTc0OTIyNTY1ODYyMyAuZWRnZS1hbmltYXRpb24tc2xvd3tzdHJva2UtZGFzaGFycmF5OjksNSFpbXBvcnRhbnQ7c3Ryb2tlLWRhc2hvZmZzZXQ6OTAwO2FuaW1hdGlvbjpkYXNoIDUwcyBsaW5lYXIgaW5maW5pdGU7c3Ryb2tlLWxpbmVjYXA6cm91bmQ7fSNnZU1lcm1haWRPdXRwdXQtMTc0OTIyNTY1ODYyMyAuZWRnZS1hbmltYXRpb24tZmFzdHtzdHJva2UtZGFzaGFycmF5OjksNSFpbXBvcnRhbnQ7c3Ryb2tlLWRhc2hvZmZzZXQ6OTAwO2FuaW1hdGlvbjpkYXNoIDIwcyBsaW5lYXIgaW5maW5pdGU7c3Ryb2tlLWxpbmVjYXA6cm91bmQ7fSNnZU1lcm1haWRPdXRwdXQtMTc0OTIyNTY1ODYyMyAuZXJyb3ItaWNvbntmaWxsOiM1NTIyMjI7fSNnZU1lcm1haWRPdXRwdXQtMTc0OTIyNTY1ODYyMyAuZXJyb3ItdGV4dHtmaWxsOiM1NTIyMjI7c3Ryb2tlOiM1NTIyMjI7fSNnZU1lcm1haWRPdXRwdXQtMTc0OTIyNTY1ODYyMyAuZWRnZS10aGlja25lc3Mtbm9ybWFse3N0cm9rZS13aWR0aDoxcHg7fSNnZU1lcm1haWRPdXRwdXQtMTc0OTIyNTY1ODYyMyAuZWRnZS10aGlja25lc3MtdGhpY2t7c3Ryb2tlLXdpZHRoOjMuNXB4O30jZ2VNZXJtYWlkT3V0cHV0LTE3NDkyMjU2NTg2MjMgLmVkZ2UtcGF0dGVybi1zb2xpZHtzdHJva2UtZGFzaGFycmF5OjA7fSNnZU1lcm1haWRPdXRwdXQtMTc0OTIyNTY1ODYyMyAuZWRnZS10aGlja25lc3MtaW52aXNpYmxle3N0cm9rZS13aWR0aDowO2ZpbGw6bm9uZTt9I2dlTWVybWFpZE91dHB1dC0xNzQ5MjI1NjU4NjIzIC5lZGdlLXBhdHRlcm4tZGFzaGVke3N0cm9rZS1kYXNoYXJyYXk6Mzt9I2dlTWVybWFpZE91dHB1dC0xNzQ5MjI1NjU4NjIzIC5lZGdlLXBhdHRlcm4tZG90dGVke3N0cm9rZS1kYXNoYXJyYXk6Mjt9I2dlTWVybWFpZE91dHB1dC0xNzQ5MjI1NjU4NjIzIC5tYXJrZXJ7ZmlsbDojNjY2O3N0cm9rZTojNjY2O30jZ2VNZXJtYWlkT3V0cHV0LTE3NDkyMjU2NTg2MjMgLm1hcmtlci5jcm9zc3tzdHJva2U6IzY2Njt9I2dlTWVybWFpZE91dHB1dC0xNzQ5MjI1NjU4NjIzIHN2Z3tmb250LWZhbWlseToidHJlYnVjaGV0IG1zIix2ZXJkYW5hLGFyaWFsLHNhbnMtc2VyaWY7Zm9udC1zaXplOjE2cHg7fSNnZU1lcm1haWRPdXRwdXQtMTc0OTIyNTY1ODYyMyBwe21hcmdpbjowO30jZ2VNZXJtYWlkT3V0cHV0LTE3NDkyMjU2NTg2MjMgZGVmcyAjc3RhdGVkaWFncmFtLWJhcmJFbmR7ZmlsbDojMDAwO3N0cm9rZTojMDAwO30jZ2VNZXJtYWlkT3V0cHV0LTE3NDkyMjU2NTg2MjMgZy5zdGF0ZUdyb3VwIHRleHR7ZmlsbDojOTk5O3N0cm9rZTpub25lO2ZvbnQtc2l6ZToxMHB4O30jZ2VNZXJtYWlkT3V0cHV0LTE3NDkyMjU2NTg2MjMgZy5zdGF0ZUdyb3VwIHRleHR7ZmlsbDojMDAwMDAwO3N0cm9rZTpub25lO2ZvbnQtc2l6ZToxMHB4O30jZ2VNZXJtYWlkT3V0cHV0LTE3NDkyMjU2NTg2MjMgZy5zdGF0ZUdyb3VwIC5zdGF0ZS10aXRsZXtmb250LXdlaWdodDpib2xkZXI7ZmlsbDojMTExMTExO30jZ2VNZXJtYWlkT3V0cHV0LTE3NDkyMjU2NTg2MjMgZy5zdGF0ZUdyb3VwIHJlY3R7ZmlsbDojZWVlO3N0cm9rZTojOTk5O30jZ2VNZXJtYWlkT3V0cHV0LTE3NDkyMjU2NTg2MjMgZy5zdGF0ZUdyb3VwIGxpbmV7c3Ryb2tlOiM2NjY7c3Ryb2tlLXdpZHRoOjE7fSNnZU1lcm1haWRPdXRwdXQtMTc0OTIyNTY1ODYyMyAudHJhbnNpdGlvbntzdHJva2U6IzAwMDtzdHJva2Utd2lkdGg6MTtmaWxsOm5vbmU7fSNnZU1lcm1haWRPdXRwdXQtMTc0OTIyNTY1ODYyMyAuc3RhdGVHcm91cCAuY29tcG9zaXR7ZmlsbDojZmZmZmZmO2JvcmRlci1ib3R0b206MXB4O30jZ2VNZXJtYWlkT3V0cHV0LTE3NDkyMjU2NTg2MjMgLnN0YXRlR3JvdXAgLmFsdC1jb21wb3NpdHtmaWxsOiNlMGUwZTA7Ym9yZGVyLWJvdHRvbToxcHg7fSNnZU1lcm1haWRPdXRwdXQtMTc0OTIyNTY1ODYyMyAuc3RhdGUtbm90ZXtzdHJva2U6Izk5OTtmaWxsOiM2NjY7fSNnZU1lcm1haWRPdXRwdXQtMTc0OTIyNTY1ODYyMyAuc3RhdGUtbm90ZSB0ZXh0e2ZpbGw6I2ZmZjtzdHJva2U6bm9uZTtmb250LXNpemU6MTBweDt9I2dlTWVybWFpZE91dHB1dC0xNzQ5MjI1NjU4NjIzIC5zdGF0ZUxhYmVsIC5ib3h7c3Ryb2tlOm5vbmU7c3Ryb2tlLXdpZHRoOjA7ZmlsbDojZWVlO29wYWNpdHk6MC41O30jZ2VNZXJtYWlkT3V0cHV0LTE3NDkyMjU2NTg2MjMgLmVkZ2VMYWJlbCAubGFiZWwgcmVjdHtmaWxsOiNlZWU7b3BhY2l0eTowLjU7fSNnZU1lcm1haWRPdXRwdXQtMTc0OTIyNTY1ODYyMyAuZWRnZUxhYmVse2JhY2tncm91bmQtY29sb3I6d2hpdGU7dGV4dC1hbGlnbjpjZW50ZXI7fSNnZU1lcm1haWRPdXRwdXQtMTc0OTIyNTY1ODYyMyAuZWRnZUxhYmVsIHB7YmFja2dyb3VuZC1jb2xvcjp3aGl0ZTt9I2dlTWVybWFpZE91dHB1dC0xNzQ5MjI1NjU4NjIzIC5lZGdlTGFiZWwgcmVjdHtvcGFjaXR5OjAuNTtiYWNrZ3JvdW5kLWNvbG9yOndoaXRlO2ZpbGw6d2hpdGU7fSNnZU1lcm1haWRPdXRwdXQtMTc0OTIyNTY1ODYyMyAuZWRnZUxhYmVsIC5sYWJlbCB0ZXh0e2ZpbGw6IzAwMDAwMDt9I2dlTWVybWFpZE91dHB1dC0xNzQ5MjI1NjU4NjIzIC5sYWJlbCBkaXYgLmVkZ2VMYWJlbHtjb2xvcjojMDAwMDAwO30jZ2VNZXJtYWlkT3V0cHV0LTE3NDkyMjU2NTg2MjMgLnN0YXRlTGFiZWwgdGV4dHtmaWxsOiMxMTExMTE7Zm9udC1zaXplOjEwcHg7Zm9udC13ZWlnaHQ6Ym9sZDt9I2dlTWVybWFpZE91dHB1dC0xNzQ5MjI1NjU4NjIzIC5ub2RlIGNpcmNsZS5zdGF0ZS1zdGFydHtmaWxsOiMyMjI7c3Ryb2tlOiMyMjI7fSNnZU1lcm1haWRPdXRwdXQtMTc0OTIyNTY1ODYyMyAubm9kZSAuZm9yay1qb2lue2ZpbGw6IzIyMjtzdHJva2U6IzIyMjt9I2dlTWVybWFpZE91dHB1dC0xNzQ5MjI1NjU4NjIzIC5ub2RlIGNpcmNsZS5zdGF0ZS1lbmR7ZmlsbDpoc2woMCwgMCUsIDgzLjMzMzMzMzMzMzMlKTtzdHJva2U6I2ZmZmZmZjtzdHJva2Utd2lkdGg6MS41O30jZ2VNZXJtYWlkT3V0cHV0LTE3NDkyMjU2NTg2MjMgLmVuZC1zdGF0ZS1pbm5lcntmaWxsOiNmZmZmZmY7c3Ryb2tlLXdpZHRoOjEuNTt9I2dlTWVybWFpZE91dHB1dC0xNzQ5MjI1NjU4NjIzIC5ub2RlIHJlY3R7ZmlsbDojZWVlO3N0cm9rZTojMDAwO3N0cm9rZS13aWR0aDoxcHg7fSNnZU1lcm1haWRPdXRwdXQtMTc0OTIyNTY1ODYyMyAubm9kZSBwb2x5Z29ue2ZpbGw6I2VlZTtzdHJva2U6IzAwMDtzdHJva2Utd2lkdGg6MXB4O30jZ2VNZXJtYWlkT3V0cHV0LTE3NDkyMjU2NTg2MjMgI3N0YXRlZGlhZ3JhbS1iYXJiRW5ke2ZpbGw6IzY2Njt9I2dlTWVybWFpZE91dHB1dC0xNzQ5MjI1NjU4NjIzIC5zdGF0ZWRpYWdyYW0tY2x1c3RlciByZWN0e2ZpbGw6I2VlZTtzdHJva2U6IzAwMDtzdHJva2Utd2lkdGg6MXB4O30jZ2VNZXJtYWlkT3V0cHV0LTE3NDkyMjU2NTg2MjMgLmNsdXN0ZXItbGFiZWwsI2dlTWVybWFpZE91dHB1dC0xNzQ5MjI1NjU4NjIzIC5ub2RlTGFiZWx7Y29sb3I6IzExMTExMTt9I2dlTWVybWFpZE91dHB1dC0xNzQ5MjI1NjU4NjIzIC5zdGF0ZWRpYWdyYW0tY2x1c3RlciByZWN0Lm91dGVye3J4OjVweDtyeTo1cHg7fSNnZU1lcm1haWRPdXRwdXQtMTc0OTIyNTY1ODYyMyAuc3RhdGVkaWFncmFtLXN0YXRlIC5kaXZpZGVye3N0cm9rZTojMDAwO30jZ2VNZXJtYWlkT3V0cHV0LTE3NDkyMjU2NTg2MjMgLnN0YXRlZGlhZ3JhbS1zdGF0ZSAudGl0bGUtc3RhdGV7cng6NXB4O3J5OjVweDt9I2dlTWVybWFpZE91dHB1dC0xNzQ5MjI1NjU4NjIzIC5zdGF0ZWRpYWdyYW0tY2x1c3Rlci5zdGF0ZWRpYWdyYW0tY2x1c3RlciAuaW5uZXJ7ZmlsbDojZmZmZmZmO30jZ2VNZXJtYWlkT3V0cHV0LTE3NDkyMjU2NTg2MjMgLnN0YXRlZGlhZ3JhbS1jbHVzdGVyLnN0YXRlZGlhZ3JhbS1jbHVzdGVyLWFsdCAuaW5uZXJ7ZmlsbDojZjRmNGY0O30jZ2VNZXJtYWlkT3V0cHV0LTE3NDkyMjU2NTg2MjMgLnN0YXRlZGlhZ3JhbS1jbHVzdGVyIC5pbm5lcntyeDowO3J5OjA7fSNnZU1lcm1haWRPdXRwdXQtMTc0OTIyNTY1ODYyMyAuc3RhdGVkaWFncmFtLXN0YXRlIHJlY3QuYmFzaWN7cng6NXB4O3J5OjVweDt9I2dlTWVybWFpZE91dHB1dC0xNzQ5MjI1NjU4NjIzIC5zdGF0ZWRpYWdyYW0tc3RhdGUgcmVjdC5kaXZpZGVye3N0cm9rZS1kYXNoYXJyYXk6MTAsMTA7ZmlsbDojZjRmNGY0O30jZ2VNZXJtYWlkT3V0cHV0LTE3NDkyMjU2NTg2MjMgLm5vdGUtZWRnZXtzdHJva2UtZGFzaGFycmF5OjU7fSNnZU1lcm1haWRPdXRwdXQtMTc0OTIyNTY1ODYyMyAuc3RhdGVkaWFncmFtLW5vdGUgcmVjdHtmaWxsOiM2NjY7c3Ryb2tlOiM5OTk7c3Ryb2tlLXdpZHRoOjFweDtyeDowO3J5OjA7fSNnZU1lcm1haWRPdXRwdXQtMTc0OTIyNTY1ODYyMyAuc3RhdGVkaWFncmFtLW5vdGUgcmVjdHtmaWxsOiM2NjY7c3Ryb2tlOiM5OTk7c3Ryb2tlLXdpZHRoOjFweDtyeDowO3J5OjA7fSNnZU1lcm1haWRPdXRwdXQtMTc0OTIyNTY1ODYyMyAuc3RhdGVkaWFncmFtLW5vdGUgdGV4dHtmaWxsOiNmZmY7fSNnZU1lcm1haWRPdXRwdXQtMTc0OTIyNTY1ODYyMyAuc3RhdGVkaWFncmFtLW5vdGUgLm5vZGVMYWJlbHtjb2xvcjojZmZmO30jZ2VNZXJtYWlkT3V0cHV0LTE3NDkyMjU2NTg2MjMgLnN0YXRlZGlhZ3JhbSAuZWRnZUxhYmVse2NvbG9yOnJlZDt9I2dlTWVybWFpZE91dHB1dC0xNzQ5MjI1NjU4NjIzICNkZXBlbmRlbmN5U3RhcnQsI2dlTWVybWFpZE91dHB1dC0xNzQ5MjI1NjU4NjIzICNkZXBlbmRlbmN5RW5ke2ZpbGw6IzY2NjtzdHJva2U6IzY2NjtzdHJva2Utd2lkdGg6MTt9I2dlTWVybWFpZE91dHB1dC0xNzQ5MjI1NjU4NjIzIC5zdGF0ZWRpYWdyYW1UaXRsZVRleHR7dGV4dC1hbmNob3I6bWlkZGxlO2ZvbnQtc2l6ZToxOHB4O2ZpbGw6IzAwMDAwMDt9I2dlTWVybWFpZE91dHB1dC0xNzQ5MjI1NjU4NjIzIDpyb290ey0tbWVybWFpZC1mb250LWZhbWlseToidHJlYnVjaGV0IG1zIix2ZXJkYW5hLGFyaWFsLHNhbnMtc2VyaWY7fTwvc3R5bGU+PGc+PGRlZnM+PG1hcmtlciBvcmllbnQ9ImF1dG8iIG1hcmtlclVuaXRzPSJ1c2VyU3BhY2VPblVzZSIgbWFya2VySGVpZ2h0PSIxNCIgbWFya2VyV2lkdGg9IjIwIiByZWZZPSI3IiByZWZYPSIxOSIgaWQ9ImdlTWVybWFpZE91dHB1dC0xNzQ5MjI1NjU4NjIzX3N0YXRlRGlhZ3JhbS1iYXJiRW5kIj48cGF0aCBkPSJNIDE5LDcgTDksMTMgTDE0LDcgTDksMSBaIj48L3BhdGg+PC9tYXJrZXI+PC9kZWZzPjxnIGNsYXNzPSJyb290Ij48ZyBjbGFzcz0iY2x1c3RlcnMiPjwvZz48ZyBjbGFzcz0iZWRnZVBhdGhzIj48cGF0aCBtYXJrZXItZW5kPSJ1cmwoI2dlTWVybWFpZE91dHB1dC0xNzQ5MjI1NjU4NjIzX3N0YXRlRGlhZ3JhbS1iYXJiRW5kKSIgc3R5bGU9ImZpbGw6bm9uZTsiIGNsYXNzPSJlZGdlLXRoaWNrbmVzcy1ub3JtYWwgZWRnZS1wYXR0ZXJuLXNvbGlkIHRyYW5zaXRpb24iIGlkPSJlZGdlMCIgZD0iTTQ4Mi41MzgsMjJMNDgyLjUzOCwyNi4xNjdDNDgyLjUzOCwzMC4zMzMsNDgyLjUzOCwzOC42NjcsNDgyLjUzOCw0N0M0ODIuNTM4LDU1LjMzMyw0ODIuNTM4LDYzLjY2Nyw0ODIuNTM4LDY3LjgzM0w0ODIuNTM4LDcyIj48L3BhdGg+PC9nPjxnIGNsYXNzPSJlZGdlTGFiZWxzIj48Zz48cmVjdCBzdHlsZT0ic3Ryb2tlOiBub25lIiBjbGFzcz0iYmFja2dyb3VuZCI+PC9yZWN0PjwvZz48ZyBjbGFzcz0iZWRnZUxhYmVsIj48ZyB0cmFuc2Zvcm09InRyYW5zbGF0ZSgwLCAwKSIgY2xhc3M9ImxhYmVsIj48dGV4dCB5PSItMTAuMSI+PHRzcGFuIGR5PSIxLjFlbSIgeT0iLTAuMWVtIiB4PSIwIiBjbGFzcz0idGV4dC1vdXRlci10c3BhbiI+PC90c3Bhbj48L3RleHQ+PC9nPjwvZz48L2c+PGcgY2xhc3M9Im5vZGVzIj48ZyB0cmFuc2Zvcm09InRyYW5zbGF0ZSg0ODIuNTM3OTAyODMyMDMxMjUsIDE1KSIgaWQ9InN0YXRlLXJvb3Rfc3RhcnQtMCIgY2xhc3M9Im5vZGUgZGVmYXVsdCI+PGNpcmNsZSBoZWlnaHQ9IjE0IiB3aWR0aD0iMTQiIHI9IjciIGNsYXNzPSJzdGF0ZS1zdGFydCI+PC9jaXJjbGU+PC9nPjxnIHRyYW5zZm9ybT0idHJhbnNsYXRlKDAsIDY0KSIgY2xhc3M9InJvb3QiPjxnIGNsYXNzPSJjbHVzdGVycyI+PGcgZGF0YS1sb29rPSJjbGFzc2ljIiBkYXRhLWlkPSJSZWNvbm5lY3RpbmciIGlkPSJSZWNvbm5lY3RpbmciIGNsYXNzPSJzdGF0ZWRpYWdyYW0tc3RhdGUgc3RhdGVkaWFncmFtLWNsdXN0ZXIiPjxnPjxyZWN0IGRhdGEtbG9vaz0iY2xhc3NpYyIgaGVpZ2h0PSIxNDQyLjc4MTI1IiB3aWR0aD0iOTQ5LjA3NTc3NTE0NjQ4NDQiIHk9IjgiIHg9IjgiIGNsYXNzPSJvdXRlciI+PC9yZWN0PjwvZz48ZyB0cmFuc2Zvcm09InRyYW5zbGF0ZSg0MzQuMzU4MjAwMDczMjQyMiwgNikiIGNsYXNzPSJjbHVzdGVyLWxhYmVsIj48dGV4dCBzdHlsZT0iIj48dHNwYW4gY2xhc3M9InJvdyIgeD0iMCIgZHk9IjFlbSIgeG1sOnNwYWNlPSJwcmVzZXJ2ZSI+UmVjb25uZWN0aW5nPC90c3Bhbj48L3RleHQ+PC9nPjxyZWN0IGhlaWdodD0iMTQxOC4xODc1IiB3aWR0aD0iOTQ5LjA3NTc3NTE0NjQ4NDQiIHk9IjI4LjU5Mzc1IiB4PSI4IiBjbGFzcz0iaW5uZXIiPjwvcmVjdD48L2c+PC9nPjxnIGNsYXNzPSJlZGdlUGF0aHMiPjwvZz48ZyBjbGFzcz0iZWRnZUxhYmVscyI+PC9nPjxnIGNsYXNzPSJub2RlcyI+PGcgdHJhbnNmb3JtPSJ0cmFuc2xhdGUoMzUsIDQ0Ny4xNTMxMzcyMDcwMzEyNSkiIGNsYXNzPSJyb290Ij48ZyBjbGFzcz0iY2x1c3RlcnMiPjxnIGRhdGEtbG9vaz0iY2xhc3NpYyIgaWQ9ImRpdmlkZXItaWQtMSIgY2xhc3M9InN0YXRlZGlhZ3JhbS1zdGF0ZSBzdGF0ZWRpYWdyYW0tY2x1c3RlciBzdGF0ZWRpYWdyYW0tY2x1c3Rlci1hbHQiPjxnPjxyZWN0IGRhdGEtbG9vaz0iY2xhc3NpYyIgaGVpZ2h0PSI1NDguNDc1MDAxOTA4ODM4NyIgd2lkdGg9IjMyOC43Mzk4NDM3NTAzNzI1MyIgeT0iOCIgeD0iOCIgY2xhc3M9ImRpdmlkZXIiPjwvcmVjdD48L2c+PC9nPjwvZz48ZyBjbGFzcz0iZWRnZVBhdGhzIj48cGF0aCBtYXJrZXItZW5kPSJ1cmwoI2dlTWVybWFpZE91dHB1dC0xNzQ5MjI1NjU4NjIzX3N0YXRlRGlhZ3JhbS1iYXJiRW5kKSIgc3R5bGU9ImZpbGw6bm9uZTsiIGNsYXNzPSJlZGdlLXRoaWNrbmVzcy1ub3JtYWwgZWRnZS1wYXR0ZXJuLXNvbGlkIHRyYW5zaXRpb24iIGlkPSJlZGdlMSIgZD0iTTIwOS44NjcsNzJMMjA5Ljg2Nyw4MC4zMzNDMjA5Ljg2Nyw4OC42NjcsMjA5Ljg2NywxMDUuMzMzLDIwOS44NjcsMTIyQzIwOS44NjcsMTM4LjY2NywyMDkuODY3LDE1NS4zMzMsMjA5Ljg2NywxNjMuNjY3TDIwOS44NjcsMTcyIj48L3BhdGg+PHBhdGggc3R5bGU9ImZpbGw6bm9uZTsiIGNsYXNzPSJlZGdlLXRoaWNrbmVzcy1ub3JtYWwgZWRnZS1wYXR0ZXJuLXNvbGlkIHRyYW5zaXRpb24iIGlkPSJFc3RhYmxpc2hpbmdDb25uZWN0aW9uLWN5Y2xpYy1zcGVjaWFsLTEiIGQ9Ik0xODkuMTg3LDIxMkwxNzcuMTA4LDIyMy42ODJDMTY1LjAyOSwyMzUuMzY1LDE0MC44NywyNTguNzI5LDEyOC43OSwyODMuMjUyQzExNi43MTEsMzA3Ljc3NSwxMTYuNzExLDMzMy40NTYsMTE2LjcxMSwzNDYuMjk3TDExNi43MTEsMzU5LjEzOCI+PC9wYXRoPjxwYXRoIHN0eWxlPSJmaWxsOm5vbmU7IiBjbGFzcz0iZWRnZS10aGlja25lc3Mtbm9ybWFsIGVkZ2UtcGF0dGVybi1zb2xpZCB0cmFuc2l0aW9uIiBpZD0iRXN0YWJsaXNoaW5nQ29ubmVjdGlvbi1jeWNsaWMtc3BlY2lhbC1taWQiIGQ9Ik0xMTYuNzExLDM1OS4yMzhMMTE2LjcxMSwzNzIuMDc4QzExNi43MTEsMzg0LjkxOSwxMTYuNzExLDQxMC42LDEyNi4wOTIsNDM1LjEyM0MxMzUuNDczLDQ1OS42NDYsMTU0LjIzNSw0ODMuMDEsMTYzLjYxNiw0OTQuNjkzTDE3Mi45OTcsNTA2LjM3NSI+PC9wYXRoPjxwYXRoIG1hcmtlci1lbmQ9InVybCgjZ2VNZXJtYWlkT3V0cHV0LTE3NDkyMjU2NTg2MjNfc3RhdGVEaWFncmFtLWJhcmJFbmQpIiBzdHlsZT0iZmlsbDpub25lOyIgY2xhc3M9ImVkZ2UtdGhpY2tuZXNzLW5vcm1hbCBlZGdlLXBhdHRlcm4tc29saWQgdHJhbnNpdGlvbiIgaWQ9IkVzdGFibGlzaGluZ0Nvbm5lY3Rpb24tY3ljbGljLXNwZWNpYWwtMiIgZD0iTTE3My4wODcsNTA2LjM5OUwxOTUuNzc1LDQ5NC43MTNDMjE4LjQ2Myw0ODMuMDI3LDI2My44MzksNDU5LjY1NCwyODYuNTI3LDQzNS4xMTlDMzA5LjIxNSw0MTAuNTgzLDMwOS4yMTUsMzg0Ljg4NSwzMDkuMjE1LDM1OS4xODhDMzA5LjIxNSwzMzMuNDksMzA5LjIxNSwzMDcuNzkyLDI5Ni4zMzMsMjgzLjI2QzI4My40NSwyNTguNzI5LDI1Ny42ODYsMjM1LjM2NSwyNDQuODA0LDIyMy42ODJMMjMxLjkyMSwyMTIiPjwvcGF0aD48cGF0aCBtYXJrZXItZW5kPSJ1cmwoI2dlTWVybWFpZE91dHB1dC0xNzQ5MjI1NjU4NjIzX3N0YXRlRGlhZ3JhbS1iYXJiRW5kKSIgc3R5bGU9ImZpbGw6bm9uZTsiIGNsYXNzPSJlZGdlLXRoaWNrbmVzcy1ub3JtYWwgZWRnZS1wYXR0ZXJuLXNvbGlkIHRyYW5zaXRpb24iIGlkPSJlZGdlMyIgZD0iTTIwOS44NjcsMjEyTDIwOS44NjcsMjIzLjY4MkMyMDkuODY3LDIzNS4zNjUsMjA5Ljg2NywyNTguNzI5LDIwOS44NjcsMjgyLjA5NEMyMDkuODY3LDMwNS40NTgsMjA5Ljg2NywzMjguODIzLDIwOS44NjcsMzQwLjUwNUwyMDkuODY3LDM1Mi4xODgiPjwvcGF0aD48L2c+PGcgY2xhc3M9ImVkZ2VMYWJlbHMiPjxnPjxyZWN0IHN0eWxlPSJzdHJva2U6IG5vbmUiIGNsYXNzPSJiYWNrZ3JvdW5kIj48L3JlY3Q+PC9nPjxnPjxyZWN0IHN0eWxlPSJzdHJva2U6IG5vbmUiIGNsYXNzPSJiYWNrZ3JvdW5kIj48L3JlY3Q+PC9nPjxnPjxyZWN0IHN0eWxlPSJzdHJva2U6IG5vbmUiIGNsYXNzPSJiYWNrZ3JvdW5kIj48L3JlY3Q+PC9nPjxnIGNsYXNzPSJlZGdlTGFiZWwiPjxnIHRyYW5zZm9ybT0idHJhbnNsYXRlKDAsIDApIiBjbGFzcz0ibGFiZWwiPjx0ZXh0IHk9Ii0xMC4xIj48dHNwYW4gZHk9IjEuMWVtIiB5PSItMC4xZW0iIHg9IjAiIGNsYXNzPSJ0ZXh0LW91dGVyLXRzcGFuIj48L3RzcGFuPjwvdGV4dD48L2c+PC9nPjxnIGNsYXNzPSJlZGdlTGFiZWwiPjxnIHRyYW5zZm9ybT0idHJhbnNsYXRlKDAsIDApIiBjbGFzcz0ibGFiZWwiPjx0ZXh0IHk9Ii0xMC4xIj48dHNwYW4gZHk9IjEuMWVtIiB5PSItMC4xZW0iIHg9IjAiIGNsYXNzPSJ0ZXh0LW91dGVyLXRzcGFuIj48L3RzcGFuPjwvdGV4dD48L2c+PC9nPjxnIHRyYW5zZm9ybT0idHJhbnNsYXRlKDExNi43MTA5Mzc1LCA0MzYuMjgxMjUxOTA3MzQ4NjMpIiBjbGFzcz0iZWRnZUxhYmVsIj48ZyB0cmFuc2Zvcm09InRyYW5zbGF0ZSgtODguNzEwOTM3NSwgLTIwLjA5Mzc1KSIgY2xhc3M9ImxhYmVsIj48Zz48cmVjdCBoZWlnaHQ9IjQwLjE4NzUiIHdpZHRoPSIxNzcuNDIxODc1IiB5PSItMS4wMzEyNSIgeD0iLTIiIHN0eWxlPSIiIGNsYXNzPSJiYWNrZ3JvdW5kIj48L3JlY3Q+PHRleHQgc3R5bGU9IiIgeT0iLTEwLjEiPjx0c3BhbiBkeT0iMS4xZW0iIHk9Ii0wLjFlbSIgeD0iMCIgY2xhc3M9InRleHQtb3V0ZXItdHNwYW4iPjx0c3BhbiBmb250LXdlaWdodD0ibm9ybWFsIiBjbGFzcz0idGV4dC1pbm5lci10c3BhbiIgZm9udC1zdHlsZT0ibm9ybWFsIj5mYWlsZWQ8L3RzcGFuPjx0c3BhbiBmb250LXdlaWdodD0ibm9ybWFsIiBjbGFzcz0idGV4dC1pbm5lci10c3BhbiIgZm9udC1zdHlsZT0ibm9ybWFsIj4gW25vPC90c3Bhbj48dHNwYW4gZm9udC13ZWlnaHQ9Im5vcm1hbCIgY2xhc3M9InRleHQtaW5uZXItdHNwYW4iIGZvbnQtc3R5bGU9Im5vcm1hbCI+IGNvbm5lY3Rpb25dPC90c3Bhbj48L3RzcGFuPjx0c3BhbiBkeT0iMS4xZW0iIHk9IjFlbSIgeD0iMCIgY2xhc3M9InRleHQtb3V0ZXItdHNwYW4iPjx0c3BhbiBmb250LXdlaWdodD0ibm9ybWFsIiBjbGFzcz0idGV4dC1pbm5lci10c3BhbiIgZm9udC1zdHlsZT0ibm9ybWFsIj4vd2FpdDwvdHNwYW4+PHRzcGFuIGZvbnQtd2VpZ2h0PSJub3JtYWwiIGNsYXNzPSJ0ZXh0LWlubmVyLXRzcGFuIiBmb250LXN0eWxlPSJub3JtYWwiPiA1czwvdHNwYW4+PHRzcGFuIGZvbnQtd2VpZ2h0PSJub3JtYWwiIGNsYXNzPSJ0ZXh0LWlubmVyLXRzcGFuIiBmb250LXN0eWxlPSJub3JtYWwiPiB0aGVuPC90c3Bhbj48dHNwYW4gZm9udC13ZWlnaHQ9Im5vcm1hbCIgY2xhc3M9InRleHQtaW5uZXItdHNwYW4iIGZvbnQtc3R5bGU9Im5vcm1hbCI+IHJlY29ubmVjdDwvdHNwYW4+PC90c3Bhbj48L3RleHQ+PC9nPjwvZz48L2c+PGcgY2xhc3M9ImVkZ2VMYWJlbCI+PGcgdHJhbnNmb3JtPSJ0cmFuc2xhdGUoMCwgMCkiIGNsYXNzPSJsYWJlbCI+PHRleHQgeT0iLTEwLjEiPjx0c3BhbiBkeT0iMS4xZW0iIHk9Ii0wLjFlbSIgeD0iMCIgY2xhc3M9InRleHQtb3V0ZXItdHNwYW4iPjwvdHNwYW4+PC90ZXh0PjwvZz48L2c+PGcgdHJhbnNmb3JtPSJ0cmFuc2xhdGUoMjA5Ljg2NzE4NzUsIDI4Mi4wOTM3NSkiIGNsYXNzPSJlZGdlTGFiZWwiPjxnIHRyYW5zZm9ybT0idHJhbnNsYXRlKC03My4xNTYyNSwgLTIwLjA5Mzc1KSIgY2xhc3M9ImxhYmVsIj48Zz48cmVjdCBoZWlnaHQ9IjQwLjE4NzUiIHdpZHRoPSIxNDYuMzEyNSIgeT0iLTEuMDMxMjUiIHg9Ii0yIiBzdHlsZT0iIiBjbGFzcz0iYmFja2dyb3VuZCI+PC9yZWN0Pjx0ZXh0IHN0eWxlPSIiIHk9Ii0xMC4xIj48dHNwYW4gZHk9IjEuMWVtIiB5PSItMC4xZW0iIHg9IjAiIGNsYXNzPSJ0ZXh0LW91dGVyLXRzcGFuIj48dHNwYW4gZm9udC13ZWlnaHQ9Im5vcm1hbCIgY2xhc3M9InRleHQtaW5uZXItdHNwYW4iIGZvbnQtc3R5bGU9Im5vcm1hbCI+c3VjY2VzczwvdHNwYW4+PHRzcGFuIGZvbnQtd2VpZ2h0PSJub3JtYWwiIGNsYXNzPSJ0ZXh0LWlubmVyLXRzcGFuIiBmb250LXN0eWxlPSJub3JtYWwiPiBbY29ubmVjdGlvbjwvdHNwYW4+PC90c3Bhbj48dHNwYW4gZHk9IjEuMWVtIiB5PSIxZW0iIHg9IjAiIGNsYXNzPSJ0ZXh0LW91dGVyLXRzcGFuIj48dHNwYW4gZm9udC13ZWlnaHQ9Im5vcm1hbCIgY2xhc3M9InRleHQtaW5uZXItdHNwYW4iIGZvbnQtc3R5bGU9Im5vcm1hbCI+ZXN0YWJsaXNoZWRdPC90c3Bhbj48L3RzcGFuPjwvdGV4dD48L2c+PC9nPjwvZz48L2c+PGcgY2xhc3M9Im5vZGVzIj48ZyB0cmFuc2Zvcm09InRyYW5zbGF0ZSgyMDkuODY3MTg3NSwgNjUpIiBpZD0ic3RhdGUtZGl2aWRlci1pZC0xX3N0YXJ0LTEiIGNsYXNzPSJub2RlIGRlZmF1bHQiPjxjaXJjbGUgaGVpZ2h0PSIxNCIgd2lkdGg9IjE0IiByPSI3IiBjbGFzcz0ic3RhdGUtc3RhcnQiPjwvY2lyY2xlPjwvZz48ZyB0cmFuc2Zvcm09InRyYW5zbGF0ZSgyMDkuODY3MTg3NSwgMTkyKSIgaWQ9InN0YXRlLUVzdGFibGlzaGluZ0Nvbm5lY3Rpb24tMyIgY2xhc3M9Im5vZGUgIHN0YXRlZGlhZ3JhbS1zdGF0ZSI+PHJlY3QgaGVpZ2h0PSI0MCIgd2lkdGg9IjE4MS4wNzgxMjUiIHk9Ii0yMCIgeD0iLTkwLjUzOTA2MjUiIHJ5PSI1IiByeD0iNSIgc3R5bGU9IiIgY2xhc3M9ImJhc2ljIGxhYmVsLWNvbnRhaW5lciI+PC9yZWN0PjxnIHRyYW5zZm9ybT0idHJhbnNsYXRlKC04Mi41MzkwNjI1LCAtMTIpIiBzdHlsZT0iIiBjbGFzcz0ibGFiZWwiPjxyZWN0PjwvcmVjdD48Zm9yZWlnbk9iamVjdCBoZWlnaHQ9IjI0IiB3aWR0aD0iMTY1LjA3ODEyNSI+PGRpdiBzdHlsZT0iZGlzcGxheTogdGFibGUtY2VsbDsgd2hpdGUtc3BhY2U6IG5vd3JhcDsgbGluZS1oZWlnaHQ6IDEuNTsgbWF4LXdpZHRoOiAyMDBweDsgdGV4dC1hbGlnbjogY2VudGVyOyIgeG1sbnM9Imh0dHA6Ly93d3cudzMub3JnLzE5OTkveGh0bWwiPjxzcGFuIGNsYXNzPSJub2RlTGFiZWwiPjxwPkVzdGFibGlzaGluZ0Nvbm5lY3Rpb248L3A+PC9zcGFuPjwvZGl2PjwvZm9yZWlnbk9iamVjdD48L2c+PC9nPjxnIHRyYW5zZm9ybT0idHJhbnNsYXRlKDExNi43MTA5Mzc1LCAzNTkuMTg3NTAwOTUzNjc0MykiIGlkPSJFc3RhYmxpc2hpbmdDb25uZWN0aW9uLS0tRXN0YWJsaXNoaW5nQ29ubmVjdGlvbi0tLTEiIGNsYXNzPSJsYWJlbCBlZGdlTGFiZWwiPjxyZWN0IGhlaWdodD0iMC4xIiB3aWR0aD0iMC4xIj48L3JlY3Q+PGcgdHJhbnNmb3JtPSJ0cmFuc2xhdGUoMCwgMCkiIHN0eWxlPSIiIGNsYXNzPSJsYWJlbCI+PHJlY3Q+PC9yZWN0Pjxmb3JlaWduT2JqZWN0IGhlaWdodD0iMCIgd2lkdGg9IjAiPjxkaXYgc3R5bGU9ImRpc3BsYXk6IHRhYmxlLWNlbGw7IHdoaXRlLXNwYWNlOiBub3dyYXA7IGxpbmUtaGVpZ2h0OiAxLjU7IG1heC13aWR0aDogMTBweDsgdGV4dC1hbGlnbjogY2VudGVyOyIgeG1sbnM9Imh0dHA6Ly93d3cudzMub3JnLzE5OTkveGh0bWwiPjxzcGFuIGNsYXNzPSJub2RlTGFiZWwiPjwvc3Bhbj48L2Rpdj48L2ZvcmVpZ25PYmplY3Q+PC9nPjwvZz48ZyB0cmFuc2Zvcm09InRyYW5zbGF0ZSgxNzMuMDM2NzE4NzUwMzcyNTMsIDUwNi40MjUwMDE5MDgwOTM3KSIgaWQ9IkVzdGFibGlzaGluZ0Nvbm5lY3Rpb24tLS1Fc3RhYmxpc2hpbmdDb25uZWN0aW9uLS0tMiIgY2xhc3M9ImxhYmVsIGVkZ2VMYWJlbCI+PHJlY3QgaGVpZ2h0PSIwLjEiIHdpZHRoPSIwLjEiPjwvcmVjdD48ZyB0cmFuc2Zvcm09InRyYW5zbGF0ZSgwLCAwKSIgc3R5bGU9IiIgY2xhc3M9ImxhYmVsIj48cmVjdD48L3JlY3Q+PGZvcmVpZ25PYmplY3QgaGVpZ2h0PSIwIiB3aWR0aD0iMCI+PGRpdiBzdHlsZT0iZGlzcGxheTogdGFibGUtY2VsbDsgd2hpdGUtc3BhY2U6IG5vd3JhcDsgbGluZS1oZWlnaHQ6IDEuNTsgbWF4LXdpZHRoOiAxMHB4OyB0ZXh0LWFsaWduOiBjZW50ZXI7IiB4bWxucz0iaHR0cDovL3d3dy53My5vcmcvMTk5OS94aHRtbCI+PHNwYW4gY2xhc3M9Im5vZGVMYWJlbCI+PC9zcGFuPjwvZGl2PjwvZm9yZWlnbk9iamVjdD48L2c+PC9nPjxnIHRyYW5zZm9ybT0idHJhbnNsYXRlKDIwOS44NjcxODc1LCAzNTkuMTg3NTAwOTUzNjc0MykiIGlkPSJzdGF0ZS1kaXZpZGVyLWlkLTFfZW5kLTMiIGNsYXNzPSJub2RlIGRlZmF1bHQiPjxnPjxwYXRoIHN0eWxlPSIiIGZpbGw9IiNlZWUiIHN0cm9rZS13aWR0aD0iMCIgc3Ryb2tlPSJub25lIiBkPSJNNyAwIEM3IDAuNDA1MTc5MDgxMjIyODM3NDcsIDYuOTY0MDEyODgwMTY4NTYzIDAuODE2NTEzNzQzMTIxODk5LCA2Ljg5MzY1NDI3MTA4NTQ1NiAxLjIxNTUzNzI0MzY2ODUxMjMgQzYuODIzMjk1NjYyMDAyMzQ5IDEuNjE0NTYwNzQ0MjE1MTI1NywgNi43MTY0Mjc3NTI5MzM3NTYgMi4wMTMzOTcyMTA1NTc3NjYsIDYuNTc3ODQ4MzQ1NTAxMzU4NiAyLjM5NDE0MTAwMzI3OTY4MSBDNi40MzkyNjg5MzgwNjg5NjEgMi43NzQ4ODQ3OTYwMDE1OTU0LCA2LjI2NDc2NzM2NzEwMjQ5IDMuMTQ5MTA0NjIyNTc4OTg0LCA2LjA2MjE3NzgyNjQ5MTA3MSAzLjQ5OTk5OTk5OTk5OTk5OTYgQzUuODU5NTg4Mjg1ODc5NjUzIDMuODUwODk1Mzc3NDIxMDE1MywgNS42MjI3NTUxOTQ5NDcwNjMgNC4xODkxMjgwODQxNjY5NjcsIDUuMzYyMzExMTAxODMyODQ2IDQuNDk5NTEzMjY3ODA1Nzc0IEM1LjEwMTg2NzAwODcxODYzIDQuODA5ODk4NDUxNDQ0NTgyLCA0LjgwOTg5ODQ1MTQ0NDU4MyA1LjEwMTg2NzAwODcxODYzLCA0LjQ5OTUxMzI2NzgwNTc3NSA1LjM2MjMxMTEwMTgzMjg0NiBDNC4xODkxMjgwODQxNjY5NjggNS42MjI3NTUxOTQ5NDcwNjMsIDMuODUwODk1Mzc3NDIxMDE2NiA1Ljg1OTU4ODI4NTg3OTY1MiwgMy41MDAwMDAwMDAwMDAwMDEgNi4wNjIxNzc4MjY0OTEwNyBDMy4xNDkxMDQ2MjI1Nzg5ODUgNi4yNjQ3NjczNjcxMDI0ODksIDIuNzc0ODg0Nzk2MDAxNTk2MyA2LjQzOTI2ODkzODA2ODk2MSwgMi4zOTQxNDEwMDMyNzk2ODE3IDYuNTc3ODQ4MzQ1NTAxMzU4NiBDMi4wMTMzOTcyMTA1NTc3NjcgNi43MTY0Mjc3NTI5MzM3NTYsIDEuNjE0NTYwNzQ0MjE1MTI2NCA2LjgyMzI5NTY2MjAwMjM0OSwgMS4yMTU1MzcyNDM2Njg1MTI4IDYuODkzNjU0MjcxMDg1NDU2IEMwLjgxNjUxMzc0MzEyMTg5OTIgNi45NjQwMTI4ODAxNjg1NjMsIDAuNDA1MTc5MDgxMjIyODM3OSA3LCA0LjI4NjI2Mzc5NzAxNTczNmUtMTYgNyBDLTAuNDA1MTc5MDgxMjIyODM3IDcsIC0wLjgxNjUxMzc0MzEyMTg5ODUgNi45NjQwMTI4ODAxNjg1NjMsIC0xLjIxNTUzNzI0MzY2ODUxMjEgNi44OTM2NTQyNzEwODU0NTYgQy0xLjYxNDU2MDc0NDIxNTEyNTcgNi44MjMyOTU2NjIwMDIzNDksIC0yLjAxMzM5NzIxMDU1Nzc2NjcgNi43MTY0Mjc3NTI5MzM3NTYsIC0yLjM5NDE0MTAwMzI3OTY4MSA2LjU3Nzg0ODM0NTUwMTM1ODYgQy0yLjc3NDg4NDc5NjAwMTU5NSA2LjQzOTI2ODkzODA2ODk2MSwgLTMuMTQ5MTA0NjIyNTc4OTgzIDYuMjY0NzY3MzY3MTAyNDksIC0zLjQ5OTk5OTk5OTk5OTk5ODIgNi4wNjIxNzc4MjY0OTEwNzEgQy0zLjg1MDg5NTM3NzQyMTAxMzUgNS44NTk1ODgyODU4Nzk2NTMsIC00LjE4OTEyODA4NDE2Njk2NSA1LjYyMjc1NTE5NDk0NzA2MzYsIC00LjQ5OTUxMzI2NzgwNTc3MjUgNS4zNjIzMTExMDE4MzI4NDggQy00LjgwOTg5ODQ1MTQ0NDU4IDUuMTAxODY3MDA4NzE4NjMyLCAtNS4xMDE4NjcwMDg3MTg2MjcgNC44MDk4OTg0NTE0NDQ1ODYsIC01LjM2MjMxMTEwMTgzMjg0MyA0LjQ5OTUxMzI2NzgwNTc3OSBDLTUuNjIyNzU1MTk0OTQ3MDU4IDQuMTg5MTI4MDg0MTY2OTcxLCAtNS44NTk1ODgyODU4Nzk2NDkgMy44NTA4OTUzNzc0MjEwMjA2LCAtNi4wNjIxNzc4MjY0OTEwNjggMy41MDAwMDAwMDAwMDAwMDUzIEMtNi4yNjQ3NjczNjcxMDI0ODYgMy4xNDkxMDQ2MjI1Nzg5OSwgLTYuNDM5MjY4OTM4MDY4OTU4IDIuNzc0ODg0Nzk2MDAxNjAyLCAtNi41Nzc4NDgzNDU1MDEzNTYgMi4zOTQxNDEwMDMyNzk2ODggQy02LjcxNjQyNzc1MjkzMzc1NCAyLjAxMzM5NzIxMDU1Nzc3MzgsIC02LjgyMzI5NTY2MjAwMjM0NyAxLjYxNDU2MDc0NDIxNTEzNCwgLTYuODkzNjU0MjcxMDg1NDU0IDEuMjE1NTM3MjQzNjY4NTIxIEMtNi45NjQwMTI4ODAxNjg1NjE1IDAuODE2NTEzNzQzMTIxOTA4LCAtNi45OTk5OTk5OTk5OTk5OTkgMC40MDUxNzkwODEyMjI4NDcyLCAtNyAxLjAxODMxMjYxNjYyNTQ0NjNlLTE0IEMtNy4wMDAwMDAwMDAwMDAwMDEgLTAuNDA1MTc5MDgxMjIyODI2ODYsIC02Ljk2NDAxMjg4MDE2ODU2NSAtMC44MTY1MTM3NDMxMjE4ODc4LCAtNi44OTM2NTQyNzEwODU0NTkgLTEuMjE1NTM3MjQzNjY4NTAxIEMtNi44MjMyOTU2NjIwMDIzNTIgLTEuNjE0NTYwNzQ0MjE1MTE0MiwgLTYuNzE2NDI3NzUyOTMzNzU5IC0yLjAxMzM5NzIxMDU1Nzc1NDIsIC02LjU3Nzg0ODM0NTUwMTM2MyAtMi4zOTQxNDEwMDMyNzk2NjkgQy02LjQzOTI2ODkzODA2ODk2NyAtMi43NzQ4ODQ3OTYwMDE1ODM0LCAtNi4yNjQ3NjczNjcxMDI0OTYgLTMuMTQ5MTA0NjIyNTc4OTcyLCAtNi4wNjIxNzc4MjY0OTEwNzggLTMuNDk5OTk5OTk5OTk5OTg3NiBDLTUuODU5NTg4Mjg1ODc5NjYxIC0zLjg1MDg5NTM3NzQyMTAwMzMsIC01LjYyMjc1NTE5NDk0NzA3MTUgLTQuMTg5MTI4MDg0MTY2OTU0NSwgLTUuMzYyMzExMTAxODMyODU2IC00LjQ5OTUxMzI2NzgwNTc2MyBDLTUuMTAxODY3MDA4NzE4NjQgLTQuODA5ODk4NDUxNDQ0NTcxLCAtNC44MDk4OTg0NTE0NDQ1OTQgLTUuMTAxODY3MDA4NzE4NjIsIC00LjQ5OTUxMzI2NzgwNTc4NyAtNS4zNjIzMTExMDE4MzI4MzYgQy00LjE4OTEyODA4NDE2Njk3OSAtNS42MjI3NTUxOTQ5NDcwNTMsIC0zLjg1MDg5NTM3NzQyMTAyOSAtNS44NTk1ODgyODU4Nzk2NDMsIC0zLjUwMDAwMDAwMDAwMDAxNCAtNi4wNjIxNzc4MjY0OTEwNjIgQy0zLjE0OTEwNDYyMjU3ODk5OTQgLTYuMjY0NzY3MzY3MTAyNDgyLCAtMi43NzQ4ODQ3OTYwMDE2MTA1IC02LjQzOTI2ODkzODA2ODk1NCwgLTIuMzk0MTQxMDAzMjc5Njk3IC02LjU3Nzg0ODM0NTUwMTM1MyBDLTIuMDEzMzk3MjEwNTU3NzgzIC02LjcxNjQyNzc1MjkzMzc1MiwgLTEuNjE0NTYwNzQ0MjE1MTQzNSAtNi44MjMyOTU2NjIwMDIzNDUsIC0xLjIxNTUzNzI0MzY2ODUzMDggLTYuODkzNjU0MjcxMDg1NDUzIEMtMC44MTY1MTM3NDMxMjE5MTggLTYuOTY0MDEyODgwMTY4NTYxNSwgLTAuNDA1MTc5MDgxMjIyODU2OTUgLTYuOTk5OTk5OTk5OTk5OTk5LCAtMS45OTM3NjI1OTUyODA3MzUyZS0xNCAtNyBDMC40MDUxNzkwODEyMjI4MTcxIC03LjAwMDAwMDAwMDAwMDAwMSwgMC44MTY1MTM3NDMxMjE4Nzc5IC02Ljk2NDAxMjg4MDE2ODU2NSwgMS4yMTU1MzcyNDM2Njg0OTEzIC02Ljg5MzY1NDI3MTA4NTQ2IEMxLjYxNDU2MDc0NDIxNTEwNDYgLTYuODIzMjk1NjYyMDAyMzU0LCAyLjAxMzM5NzIxMDU1Nzc0NTMgLTYuNzE2NDI3NzUyOTMzNzYzLCAyLjM5NDE0MTAwMzI3OTY2IC02LjU3Nzg0ODM0NTUwMTM2NjUgQzIuNzc0ODg0Nzk2MDAxNTc0NiAtNi40MzkyNjg5MzgwNjg5NywgMy4xNDkxMDQ2MjI1Nzg5NjMgLTYuMjY0NzY3MzY3MTAyNSwgMy40OTk5OTk5OTk5OTk5Nzg3IC02LjA2MjE3NzgyNjQ5MTA4MyBDMy44NTA4OTUzNzc0MjA5OTQ0IC01Ljg1OTU4ODI4NTg3OTY2NSwgNC4xODkxMjgwODQxNjY5NDcgLTUuNjIyNzU1MTk0OTQ3MDc4LCA0LjQ5OTUxMzI2NzgwNTc1NiAtNS4zNjIzMTExMDE4MzI4NjMgQzQuODA5ODk4NDUxNDQ0NTY0IC01LjEwMTg2NzAwODcxODY0OCwgNS4xMDE4NjcwMDg3MTg2MTMgLTQuODA5ODk4NDUxNDQ0NjAyLCA1LjM2MjMxMTEwMTgzMjgyOSAtNC40OTk1MTMyNjc4MDU3OTYgQzUuNjIyNzU1MTk0OTQ3MDQ2IC00LjE4OTEyODA4NDE2Njk4OSwgNS44NTk1ODgyODU4Nzk2MzcgLTMuODUwODk1Mzc3NDIxMDM5MywgNi4wNjIxNzc4MjY0OTEwNTYgLTMuNTAwMDAwMDAwMDAwMDI1IEM2LjI2NDc2NzM2NzEwMjQ3NTUgLTMuMTQ5MTA0NjIyNTc5MDEwNSwgNi40MzkyNjg5MzgwNjg5NDkgLTIuNzc0ODg0Nzk2MDAxNjIyNSwgNi41Nzc4NDgzNDU1MDEzNDggLTIuMzk0MTQxMDAzMjc5NzA5IEM2LjcxNjQyNzc1MjkzMzc0NyAtMi4wMTMzOTcyMTA1NTc3OTUsIDYuODIzMjk1NjYyMDAyMzQyIC0xLjYxNDU2MDc0NDIxNTE1NjIsIDYuODkzNjU0MjcxMDg1NDUxIC0xLjIxNTUzNzI0MzY2ODU0MzQgQzYuOTY0MDEyODgwMTY4NTYgLTAuODE2NTEzNzQzMTIxOTMwNywgNi45ODIyNzU3MTE4NDc1NzUgLTAuMjAyNTg5NTQwNjExNDU2NywgNyAtMy4yODAwNzUwMjA4MzEwNjc1ZS0xNCBDNy4wMTc3MjQyODgxNTI0MjUgMC4yMDI1ODk1NDA2MTEzOTExLCA3LjAxNzcyNDI4ODE1MjQyNCAtMC4yMDI1ODk1NDA2MTE0MjQyLCA3IDAiPjwvcGF0aD48cGF0aCBzdHlsZT0iIiBmaWxsPSJub25lIiBzdHJva2Utd2lkdGg9IjIiIHN0cm9rZT0iIzY2NiIgZD0iTTcgMCBDNyAwLjQwNTE3OTA4MTIyMjgzNzQ3LCA2Ljk2NDAxMjg4MDE2ODU2MyAwLjgxNjUxMzc0MzEyMTg5OSwgNi44OTM2NTQyNzEwODU0NTYgMS4yMTU1MzcyNDM2Njg1MTIzIEM2LjgyMzI5NTY2MjAwMjM0OSAxLjYxNDU2MDc0NDIxNTEyNTcsIDYuNzE2NDI3NzUyOTMzNzU2IDIuMDEzMzk3MjEwNTU3NzY2LCA2LjU3Nzg0ODM0NTUwMTM1ODYgMi4zOTQxNDEwMDMyNzk2ODEgQzYuNDM5MjY4OTM4MDY4OTYxIDIuNzc0ODg0Nzk2MDAxNTk1NCwgNi4yNjQ3NjczNjcxMDI0OSAzLjE0OTEwNDYyMjU3ODk4NCwgNi4wNjIxNzc4MjY0OTEwNzEgMy40OTk5OTk5OTk5OTk5OTk2IEM1Ljg1OTU4ODI4NTg3OTY1MyAzLjg1MDg5NTM3NzQyMTAxNTMsIDUuNjIyNzU1MTk0OTQ3MDYzIDQuMTg5MTI4MDg0MTY2OTY3LCA1LjM2MjMxMTEwMTgzMjg0NiA0LjQ5OTUxMzI2NzgwNTc3NCBDNS4xMDE4NjcwMDg3MTg2MyA0LjgwOTg5ODQ1MTQ0NDU4MiwgNC44MDk4OTg0NTE0NDQ1ODMgNS4xMDE4NjcwMDg3MTg2MywgNC40OTk1MTMyNjc4MDU3NzUgNS4zNjIzMTExMDE4MzI4NDYgQzQuMTg5MTI4MDg0MTY2OTY4IDUuNjIyNzU1MTk0OTQ3MDYzLCAzLjg1MDg5NTM3NzQyMTAxNjYgNS44NTk1ODgyODU4Nzk2NTIsIDMuNTAwMDAwMDAwMDAwMDAxIDYuMDYyMTc3ODI2NDkxMDcgQzMuMTQ5MTA0NjIyNTc4OTg1IDYuMjY0NzY3MzY3MTAyNDg5LCAyLjc3NDg4NDc5NjAwMTU5NjMgNi40MzkyNjg5MzgwNjg5NjEsIDIuMzk0MTQxMDAzMjc5NjgxNyA2LjU3Nzg0ODM0NTUwMTM1ODYgQzIuMDEzMzk3MjEwNTU3NzY3IDYuNzE2NDI3NzUyOTMzNzU2LCAxLjYxNDU2MDc0NDIxNTEyNjQgNi44MjMyOTU2NjIwMDIzNDksIDEuMjE1NTM3MjQzNjY4NTEyOCA2Ljg5MzY1NDI3MTA4NTQ1NiBDMC44MTY1MTM3NDMxMjE4OTkyIDYuOTY0MDEyODgwMTY4NTYzLCAwLjQwNTE3OTA4MTIyMjgzNzkgNywgNC4yODYyNjM3OTcwMTU3MzZlLTE2IDcgQy0wLjQwNTE3OTA4MTIyMjgzNyA3LCAtMC44MTY1MTM3NDMxMjE4OTg1IDYuOTY0MDEyODgwMTY4NTYzLCAtMS4yMTU1MzcyNDM2Njg1MTIxIDYuODkzNjU0MjcxMDg1NDU2IEMtMS42MTQ1NjA3NDQyMTUxMjU3IDYuODIzMjk1NjYyMDAyMzQ5LCAtMi4wMTMzOTcyMTA1NTc3NjY3IDYuNzE2NDI3NzUyOTMzNzU2LCAtMi4zOTQxNDEwMDMyNzk2ODEgNi41Nzc4NDgzNDU1MDEzNTg2IEMtMi43NzQ4ODQ3OTYwMDE1OTUgNi40MzkyNjg5MzgwNjg5NjEsIC0zLjE0OTEwNDYyMjU3ODk4MyA2LjI2NDc2NzM2NzEwMjQ5LCAtMy40OTk5OTk5OTk5OTk5OTgyIDYuMDYyMTc3ODI2NDkxMDcxIEMtMy44NTA4OTUzNzc0MjEwMTM1IDUuODU5NTg4Mjg1ODc5NjUzLCAtNC4xODkxMjgwODQxNjY5NjUgNS42MjI3NTUxOTQ5NDcwNjM2LCAtNC40OTk1MTMyNjc4MDU3NzI1IDUuMzYyMzExMTAxODMyODQ4IEMtNC44MDk4OTg0NTE0NDQ1OCA1LjEwMTg2NzAwODcxODYzMiwgLTUuMTAxODY3MDA4NzE4NjI3IDQuODA5ODk4NDUxNDQ0NTg2LCAtNS4zNjIzMTExMDE4MzI4NDMgNC40OTk1MTMyNjc4MDU3NzkgQy01LjYyMjc1NTE5NDk0NzA1OCA0LjE4OTEyODA4NDE2Njk3MSwgLTUuODU5NTg4Mjg1ODc5NjQ5IDMuODUwODk1Mzc3NDIxMDIwNiwgLTYuMDYyMTc3ODI2NDkxMDY4IDMuNTAwMDAwMDAwMDAwMDA1MyBDLTYuMjY0NzY3MzY3MTAyNDg2IDMuMTQ5MTA0NjIyNTc4OTksIC02LjQzOTI2ODkzODA2ODk1OCAyLjc3NDg4NDc5NjAwMTYwMiwgLTYuNTc3ODQ4MzQ1NTAxMzU2IDIuMzk0MTQxMDAzMjc5Njg4IEMtNi43MTY0Mjc3NTI5MzM3NTQgMi4wMTMzOTcyMTA1NTc3NzM4LCAtNi44MjMyOTU2NjIwMDIzNDcgMS42MTQ1NjA3NDQyMTUxMzQsIC02Ljg5MzY1NDI3MTA4NTQ1NCAxLjIxNTUzNzI0MzY2ODUyMSBDLTYuOTY0MDEyODgwMTY4NTYxNSAwLjgxNjUxMzc0MzEyMTkwOCwgLTYuOTk5OTk5OTk5OTk5OTk5IDAuNDA1MTc5MDgxMjIyODQ3MiwgLTcgMS4wMTgzMTI2MTY2MjU0NDYzZS0xNCBDLTcuMDAwMDAwMDAwMDAwMDAxIC0wLjQwNTE3OTA4MTIyMjgyNjg2LCAtNi45NjQwMTI4ODAxNjg1NjUgLTAuODE2NTEzNzQzMTIxODg3OCwgLTYuODkzNjU0MjcxMDg1NDU5IC0xLjIxNTUzNzI0MzY2ODUwMSBDLTYuODIzMjk1NjYyMDAyMzUyIC0xLjYxNDU2MDc0NDIxNTExNDIsIC02LjcxNjQyNzc1MjkzMzc1OSAtMi4wMTMzOTcyMTA1NTc3NTQyLCAtNi41Nzc4NDgzNDU1MDEzNjMgLTIuMzk0MTQxMDAzMjc5NjY5IEMtNi40MzkyNjg5MzgwNjg5NjcgLTIuNzc0ODg0Nzk2MDAxNTgzNCwgLTYuMjY0NzY3MzY3MTAyNDk2IC0zLjE0OTEwNDYyMjU3ODk3MiwgLTYuMDYyMTc3ODI2NDkxMDc4IC0zLjQ5OTk5OTk5OTk5OTk4NzYgQy01Ljg1OTU4ODI4NTg3OTY2MSAtMy44NTA4OTUzNzc0MjEwMDMzLCAtNS42MjI3NTUxOTQ5NDcwNzE1IC00LjE4OTEyODA4NDE2Njk1NDUsIC01LjM2MjMxMTEwMTgzMjg1NiAtNC40OTk1MTMyNjc4MDU3NjMgQy01LjEwMTg2NzAwODcxODY0IC00LjgwOTg5ODQ1MTQ0NDU3MSwgLTQuODA5ODk4NDUxNDQ0NTk0IC01LjEwMTg2NzAwODcxODYyLCAtNC40OTk1MTMyNjc4MDU3ODcgLTUuMzYyMzExMTAxODMyODM2IEMtNC4xODkxMjgwODQxNjY5NzkgLTUuNjIyNzU1MTk0OTQ3MDUzLCAtMy44NTA4OTUzNzc0MjEwMjkgLTUuODU5NTg4Mjg1ODc5NjQzLCAtMy41MDAwMDAwMDAwMDAwMTQgLTYuMDYyMTc3ODI2NDkxMDYyIEMtMy4xNDkxMDQ2MjI1Nzg5OTk0IC02LjI2NDc2NzM2NzEwMjQ4MiwgLTIuNzc0ODg0Nzk2MDAxNjEwNSAtNi40MzkyNjg5MzgwNjg5NTQsIC0yLjM5NDE0MTAwMzI3OTY5NyAtNi41Nzc4NDgzNDU1MDEzNTMgQy0yLjAxMzM5NzIxMDU1Nzc4MyAtNi43MTY0Mjc3NTI5MzM3NTIsIC0xLjYxNDU2MDc0NDIxNTE0MzUgLTYuODIzMjk1NjYyMDAyMzQ1LCAtMS4yMTU1MzcyNDM2Njg1MzA4IC02Ljg5MzY1NDI3MTA4NTQ1MyBDLTAuODE2NTEzNzQzMTIxOTE4IC02Ljk2NDAxMjg4MDE2ODU2MTUsIC0wLjQwNTE3OTA4MTIyMjg1Njk1IC02Ljk5OTk5OTk5OTk5OTk5OSwgLTEuOTkzNzYyNTk1MjgwNzM1MmUtMTQgLTcgQzAuNDA1MTc5MDgxMjIyODE3MSAtNy4wMDAwMDAwMDAwMDAwMDEsIDAuODE2NTEzNzQzMTIxODc3OSAtNi45NjQwMTI4ODAxNjg1NjUsIDEuMjE1NTM3MjQzNjY4NDkxMyAtNi44OTM2NTQyNzEwODU0NiBDMS42MTQ1NjA3NDQyMTUxMDQ2IC02LjgyMzI5NTY2MjAwMjM1NCwgMi4wMTMzOTcyMTA1NTc3NDUzIC02LjcxNjQyNzc1MjkzMzc2MywgMi4zOTQxNDEwMDMyNzk2NiAtNi41Nzc4NDgzNDU1MDEzNjY1IEMyLjc3NDg4NDc5NjAwMTU3NDYgLTYuNDM5MjY4OTM4MDY4OTcsIDMuMTQ5MTA0NjIyNTc4OTYzIC02LjI2NDc2NzM2NzEwMjUsIDMuNDk5OTk5OTk5OTk5OTc4NyAtNi4wNjIxNzc4MjY0OTEwODMgQzMuODUwODk1Mzc3NDIwOTk0NCAtNS44NTk1ODgyODU4Nzk2NjUsIDQuMTg5MTI4MDg0MTY2OTQ3IC01LjYyMjc1NTE5NDk0NzA3OCwgNC40OTk1MTMyNjc4MDU3NTYgLTUuMzYyMzExMTAxODMyODYzIEM0LjgwOTg5ODQ1MTQ0NDU2NCAtNS4xMDE4NjcwMDg3MTg2NDgsIDUuMTAxODY3MDA4NzE4NjEzIC00LjgwOTg5ODQ1MTQ0NDYwMiwgNS4zNjIzMTExMDE4MzI4MjkgLTQuNDk5NTEzMjY3ODA1Nzk2IEM1LjYyMjc1NTE5NDk0NzA0NiAtNC4xODkxMjgwODQxNjY5ODksIDUuODU5NTg4Mjg1ODc5NjM3IC0zLjg1MDg5NTM3NzQyMTAzOTMsIDYuMDYyMTc3ODI2NDkxMDU2IC0zLjUwMDAwMDAwMDAwMDAyNSBDNi4yNjQ3NjczNjcxMDI0NzU1IC0zLjE0OTEwNDYyMjU3OTAxMDUsIDYuNDM5MjY4OTM4MDY4OTQ5IC0yLjc3NDg4NDc5NjAwMTYyMjUsIDYuNTc3ODQ4MzQ1NTAxMzQ4IC0yLjM5NDE0MTAwMzI3OTcwOSBDNi43MTY0Mjc3NTI5MzM3NDcgLTIuMDEzMzk3MjEwNTU3Nzk1LCA2LjgyMzI5NTY2MjAwMjM0MiAtMS42MTQ1NjA3NDQyMTUxNTYyLCA2Ljg5MzY1NDI3MTA4NTQ1MSAtMS4yMTU1MzcyNDM2Njg1NDM0IEM2Ljk2NDAxMjg4MDE2ODU2IC0wLjgxNjUxMzc0MzEyMTkzMDcsIDYuOTgyMjc1NzExODQ3NTc1IC0wLjIwMjU4OTU0MDYxMTQ1NjcsIDcgLTMuMjgwMDc1MDIwODMxMDY3NWUtMTQgQzcuMDE3NzI0Mjg4MTUyNDI1IDAuMjAyNTg5NTQwNjExMzkxMSwgNy4wMTc3MjQyODgxNTI0MjQgLTAuMjAyNTg5NTQwNjExNDI0MiwgNyAwIj48L3BhdGg+PGc+PHBhdGggc3R5bGU9IiIgZmlsbD0iIzAwMCIgc3Ryb2tlLXdpZHRoPSIwIiBzdHJva2U9Im5vbmUiIGQ9Ik0yLjUgMCBDMi41IDAuMTQ0NzA2ODE0NzIyNDQxOTMsIDIuNDg3MTQ3NDU3MjAzMDU4IDAuMjkxNjEyMDUxMTE0OTYzODYsIDIuNDYyMDE5MzgyNTMwNTIgMC40MzQxMjA0NDQxNjczMjU4IEMyLjQzNjg5MTMwNzg1Nzk4MiAwLjU3NjYyODgzNzIxOTY4NzcsIDIuMzk4NzI0MTk3NDc2MzQxNiAwLjcxOTA3MDQzMjM0MjA1OTUsIDIuMzQ5MjMxNTUxOTY0NzcxMyAwLjg1NTA1MDM1ODMxNDE3MTggQzIuMjk5NzM4OTA2NDUzMjAxIDAuOTkxMDMwMjg0Mjg2Mjg0LCAyLjIzNzQxNjkxNjgyMjMxNzcgMS4xMjQ2ODAyMjIzNDk2MzcsIDIuMTY1MDYzNTA5NDYxMDk3IDEuMjQ5OTk5OTk5OTk5OTk5OCBDMi4wOTI3MTAxMDIwOTk4NzYgMS4zNzUzMTk3Nzc2NTAzNjI1LCAyLjAwODEyNjg1NTMzODIzNjUgMS40OTYxMTcxNzI5MTY3NzQsIDEuOTE1MTExMTA3Nzk3NDQ1IDEuNjA2OTY5MDI0MjE2MzQ4MSBDMS44MjIwOTUzNjAyNTY2NTM2IDEuNzE3ODIwODc1NTE1OTIyMywgMS43MTc4MjA4NzU1MTU5MjI2IDEuODIyMDk1MzYwMjU2NjUzNiwgMS42MDY5NjkwMjQyMTYzNDg0IDEuOTE1MTExMTA3Nzk3NDQ1IEMxLjQ5NjExNzE3MjkxNjc3NDIgMi4wMDgxMjY4NTUzMzgyMzY1LCAxLjM3NTMxOTc3NzY1MDM2MyAyLjA5MjcxMDEwMjA5OTg3NTUsIDEuMjUwMDAwMDAwMDAwMDAwMiAyLjE2NTA2MzUwOTQ2MTA5NjQgQzEuMTI0NjgwMjIyMzQ5NjM3NSAyLjIzNzQxNjkxNjgyMjMxNzIsIDAuOTkxMDMwMjg0Mjg2Mjg0NSAyLjI5OTczODkwNjQ1MzIsIDAuODU1MDUwMzU4MzE0MTcyMSAyLjM0OTIzMTU1MTk2NDc3MSBDMC43MTkwNzA0MzIzNDIwNTk3IDIuMzk4NzI0MTk3NDc2MzQxNiwgMC41NzY2Mjg4MzcyMTk2ODggMi40MzY4OTEzMDc4NTc5ODIsIDAuNDM0MTIwNDQ0MTY3MzI2MDQgMi40NjIwMTkzODI1MzA1MiBDMC4yOTE2MTIwNTExMTQ5NjQgMi40ODcxNDc0NTcyMDMwNTgsIDAuMTQ0NzA2ODE0NzIyNDQyMTIgMi41LCAxLjUzMDgwODQ5ODkzNDE5MTZlLTE2IDIuNSBDLTAuMTQ0NzA2ODE0NzIyNDQxOCAyLjUsIC0wLjI5MTYxMjA1MTExNDk2MzggMi40ODcxNDc0NTcyMDMwNTgsIC0wLjQzNDEyMDQ0NDE2NzMyNTc2IDIuNDYyMDE5MzgyNTMwNTIgQy0wLjU3NjYyODgzNzIxOTY4NzcgMi40MzY4OTEzMDc4NTc5ODIsIC0wLjcxOTA3MDQzMjM0MjA1OTUgMi4zOTg3MjQxOTc0NzYzNDE2LCAtMC44NTUwNTAzNTgzMTQxNzE4IDIuMzQ5MjMxNTUxOTY0NzcxMyBDLTAuOTkxMDMwMjg0Mjg2Mjg0IDIuMjk5NzM4OTA2NDUzMjAxLCAtMS4xMjQ2ODAyMjIzNDk2MzcgMi4yMzc0MTY5MTY4MjIzMTgsIC0xLjI0OTk5OTk5OTk5OTk5OTYgMi4xNjUwNjM1MDk0NjEwOTczIEMtMS4zNzUzMTk3Nzc2NTAzNjIgMi4wOTI3MTAxMDIwOTk4NzY0LCAtMS40OTYxMTcxNzI5MTY3NzMzIDIuMDA4MTI2ODU1MzM4MjM3LCAtMS42MDY5NjkwMjQyMTYzNDcyIDEuOTE1MTExMTA3Nzk3NDQ1OSBDLTEuNzE3ODIwODc1NTE1OTIxMiAxLjgyMjA5NTM2MDI1NjY1NDUsIC0xLjgyMjA5NTM2MDI1NjY1MjUgMS43MTc4MjA4NzU1MTU5MjM0LCAtMS45MTUxMTExMDc3OTc0NDM5IDEuNjA2OTY5MDI0MjE2MzQ5NSBDLTIuMDA4MTI2ODU1MzM4MjM1IDEuNDk2MTE3MTcyOTE2Nzc1NSwgLTIuMDkyNzEwMTAyMDk5ODc0NiAxLjM3NTMxOTc3NzY1MDM2NDUsIC0yLjE2NTA2MzUwOTQ2MTA5NTUgMS4yNTAwMDAwMDAwMDAwMDIgQy0yLjIzNzQxNjkxNjgyMjMxNjQgMS4xMjQ2ODAyMjIzNDk2Mzk1LCAtMi4yOTk3Mzg5MDY0NTMxOTkyIDAuOTkxMDMwMjg0Mjg2Mjg2NSwgLTIuMzQ5MjMxNTUxOTY0NzcgMC44NTUwNTAzNTgzMTQxNzQzIEMtMi4zOTg3MjQxOTc0NzYzNDA3IDAuNzE5MDcwNDMyMzQyMDYyMSwgLTIuNDM2ODkxMzA3ODU3OTgxIDAuNTc2NjI4ODM3MjE5NjkwNywgLTIuNDYyMDE5MzgyNTMwNTE5NCAwLjQzNDEyMDQ0NDE2NzMyOSBDLTIuNDg3MTQ3NDU3MjAzMDU4IDAuMjkxNjEyMDUxMTE0OTY3MjQsIC0yLjUgMC4xNDQ3MDY4MTQ3MjI0NDU0NSwgLTIuNSAzLjYzNjgzMDc3MzY2MjMwOGUtMTUgQy0yLjUgLTAuMTQ0NzA2ODE0NzIyNDM4MTgsIC0yLjQ4NzE0NzQ1NzIwMzA1ODcgLTAuMjkxNjEyMDUxMTE0OTU5OSwgLTIuNDYyMDE5MzgyNTMwNTIwOCAtMC40MzQxMjA0NDQxNjczMjE4IEMtMi40MzY4OTEzMDc4NTc5ODMgLTAuNTc2NjI4ODM3MjE5NjgzNywgLTIuMzk4NzI0MTk3NDc2MzQzIC0wLjcxOTA3MDQzMjM0MjA1NTMsIC0yLjM0OTIzMTU1MTk2NDc3MjYgLTAuODU1MDUwMzU4MzE0MTY3NSBDLTIuMjk5NzM4OTA2NDUzMjAyMyAtMC45OTEwMzAyODQyODYyNzk4LCAtMi4yMzc0MTY5MTY4MjIzMiAtMS4xMjQ2ODAyMjIzNDk2MzI4LCAtMi4xNjUwNjM1MDk0NjEwOTkgLTEuMjQ5OTk5OTk5OTk5OTk1NiBDLTIuMDkyNzEwMTAyMDk5ODc4IC0xLjM3NTMxOTc3NzY1MDM1ODMsIC0yLjAwODEyNjg1NTMzODI0IC0xLjQ5NjExNzE3MjkxNjc2OTUsIC0xLjkxNTExMTEwNzc5NzQ0ODggLTEuNjA2OTY5MDI0MjE2MzQ0IEMtMS44MjIwOTUzNjAyNTY2NTc2IC0xLjcxNzgyMDg3NTUxNTkxODMsIC0xLjcxNzgyMDg3NTUxNTkyNjMgLTEuODIyMDk1MzYwMjU2NjUsIC0xLjYwNjk2OTAyNDIxNjM1MjMgLTEuOTE1MTExMTA3Nzk3NDQxNiBDLTEuNDk2MTE3MTcyOTE2Nzc4NCAtMi4wMDgxMjY4NTUzMzgyMzM0LCAtMS4zNzUzMTk3Nzc2NTAzNjc0IC0yLjA5MjcxMDEwMjA5OTg3MjQsIC0xLjI1MDAwMDAwMDAwMDAwNDkgLTIuMTY1MDYzNTA5NDYxMDkzNyBDLTEuMTI0NjgwMjIyMzQ5NjQyNCAtMi4yMzc0MTY5MTY4MjIzMTUsIC0wLjk5MTAzMDI4NDI4NjI4OTYgLTIuMjk5NzM4OTA2NDUzMTk4LCAtMC44NTUwNTAzNTgzMTQxNzc1IC0yLjM0OTIzMTU1MTk2NDc2ODYgQy0wLjcxOTA3MDQzMjM0MjA2NTUgLTIuMzk4NzI0MTk3NDc2MzM5NCwgLTAuNTc2NjI4ODM3MjE5Njk0MiAtMi40MzY4OTEzMDc4NTc5ODA2LCAtMC40MzQxMjA0NDQxNjczMzI0IC0yLjQ2MjAxOTM4MjUzMDUxOSBDLTAuMjkxNjEyMDUxMTE0OTcwNyAtMi40ODcxNDc0NTcyMDMwNTc0LCAtMC4xNDQ3MDY4MTQ3MjI0NDg5MiAtMi40OTk5OTk5OTk5OTk5OTk2LCAtNy4xMjA1ODA2OTc0MzExOThlLTE1IC0yLjUgQzAuMTQ0NzA2ODE0NzIyNDM0NjYgLTIuNTAwMDAwMDAwMDAwMDAwNCwgMC4yOTE2MTIwNTExMTQ5NTY0IC0yLjQ4NzE0NzQ1NzIwMzA1OSwgMC40MzQxMjA0NDQxNjczMTgzIC0yLjQ2MjAxOTM4MjUzMDUyMTcgQzAuNTc2NjI4ODM3MjE5NjgwMiAtMi40MzY4OTEzMDc4NTc5ODQsIDAuNzE5MDcwNDMyMzQyMDUxOSAtMi4zOTg3MjQxOTc0NzYzNDQyLCAwLjg1NTA1MDM1ODMxNDE2NDMgLTIuMzQ5MjMxNTUxOTY0Nzc0IEMwLjk5MTAzMDI4NDI4NjI3NjcgLTIuMjk5NzM4OTA2NDUzMjAzNywgMS4xMjQ2ODAyMjIzNDk2Mjk3IC0yLjIzNzQxNjkxNjgyMjMyMTIsIDEuMjQ5OTk5OTk5OTk5OTkyNSAtMi4xNjUwNjM1MDk0NjExMDEgQzEuMzc1MzE5Nzc3NjUwMzU1MiAtMi4wOTI3MTAxMDIwOTk4ODA0LCAxLjQ5NjExNzE3MjkxNjc2NjggLTIuMDA4MTI2ODU1MzM4MjQyLCAxLjYwNjk2OTAyNDIxNjM0MTIgLTEuOTE1MTExMTA3Nzk3NDUxMiBDMS43MTc4MjA4NzU1MTU5MTU3IC0xLjgyMjA5NTM2MDI1NjY2MDMsIDEuODIyMDk1MzYwMjU2NjQ3MiAtMS43MTc4MjA4NzU1MTU5Mjk0LCAxLjkxNTExMTEwNzc5NzQzOSAtMS42MDY5NjkwMjQyMTYzNTU3IEMyLjAwODEyNjg1NTMzODIzMDggLTEuNDk2MTE3MTcyOTE2NzgyLCAyLjA5MjcxMDEwMjA5OTg3IC0xLjM3NTMxOTc3NzY1MDM3MTIsIDIuMTY1MDYzNTA5NDYxMDkxNSAtMS4yNTAwMDAwMDAwMDAwMDg5IEMyLjIzNzQxNjkxNjgyMjMxMyAtMS4xMjQ2ODAyMjIzNDk2NDY2LCAyLjI5OTczODkwNjQ1MzE5NiAtMC45OTEwMzAyODQyODYyOTM3LCAyLjM0OTIzMTU1MTk2NDc2NzMgLTAuODU1MDUwMzU4MzE0MTgxNyBDMi4zOTg3MjQxOTc0NzYzMzg1IC0wLjcxOTA3MDQzMjM0MjA2OTgsIDIuNDM2ODkxMzA3ODU3OTc5MiAtMC41NzY2Mjg4MzcyMTk2OTg2LCAyLjQ2MjAxOTM4MjUzMDUxOCAtMC40MzQxMjA0NDQxNjczMzY5IEMyLjQ4NzE0NzQ1NzIwMzA1NyAtMC4yOTE2MTIwNTExMTQ5NzUyMywgMi40OTM2Njk4OTcwODg0MTk3IC0wLjA3MjM1MzQwNzM2MTIzNDU0LCAyLjUgLTEuMTcxNDU1MzY0NTgyNTI0MWUtMTQgQzIuNTA2MzMwMTAyOTExNTgwMyAwLjA3MjM1MzQwNzM2MTIxMTExLCAyLjUwNjMzMDEwMjkxMTU4IC0wLjA3MjM1MzQwNzM2MTIyMjkyLCAyLjUgMCI+PC9wYXRoPjxwYXRoIHN0eWxlPSIiIGZpbGw9Im5vbmUiIHN0cm9rZS13aWR0aD0iMiIgc3Ryb2tlPSIjMDAwIiBkPSJNMi41IDAgQzIuNSAwLjE0NDcwNjgxNDcyMjQ0MTkzLCAyLjQ4NzE0NzQ1NzIwMzA1OCAwLjI5MTYxMjA1MTExNDk2Mzg2LCAyLjQ2MjAxOTM4MjUzMDUyIDAuNDM0MTIwNDQ0MTY3MzI1OCBDMi40MzY4OTEzMDc4NTc5ODIgMC41NzY2Mjg4MzcyMTk2ODc3LCAyLjM5ODcyNDE5NzQ3NjM0MTYgMC43MTkwNzA0MzIzNDIwNTk1LCAyLjM0OTIzMTU1MTk2NDc3MTMgMC44NTUwNTAzNTgzMTQxNzE4IEMyLjI5OTczODkwNjQ1MzIwMSAwLjk5MTAzMDI4NDI4NjI4NCwgMi4yMzc0MTY5MTY4MjIzMTc3IDEuMTI0NjgwMjIyMzQ5NjM3LCAyLjE2NTA2MzUwOTQ2MTA5NyAxLjI0OTk5OTk5OTk5OTk5OTggQzIuMDkyNzEwMTAyMDk5ODc2IDEuMzc1MzE5Nzc3NjUwMzYyNSwgMi4wMDgxMjY4NTUzMzgyMzY1IDEuNDk2MTE3MTcyOTE2Nzc0LCAxLjkxNTExMTEwNzc5NzQ0NSAxLjYwNjk2OTAyNDIxNjM0ODEgQzEuODIyMDk1MzYwMjU2NjUzNiAxLjcxNzgyMDg3NTUxNTkyMjMsIDEuNzE3ODIwODc1NTE1OTIyNiAxLjgyMjA5NTM2MDI1NjY1MzYsIDEuNjA2OTY5MDI0MjE2MzQ4NCAxLjkxNTExMTEwNzc5NzQ0NSBDMS40OTYxMTcxNzI5MTY3NzQyIDIuMDA4MTI2ODU1MzM4MjM2NSwgMS4zNzUzMTk3Nzc2NTAzNjMgMi4wOTI3MTAxMDIwOTk4NzU1LCAxLjI1MDAwMDAwMDAwMDAwMDIgMi4xNjUwNjM1MDk0NjEwOTY0IEMxLjEyNDY4MDIyMjM0OTYzNzUgMi4yMzc0MTY5MTY4MjIzMTcyLCAwLjk5MTAzMDI4NDI4NjI4NDUgMi4yOTk3Mzg5MDY0NTMyLCAwLjg1NTA1MDM1ODMxNDE3MjEgMi4zNDkyMzE1NTE5NjQ3NzEgQzAuNzE5MDcwNDMyMzQyMDU5NyAyLjM5ODcyNDE5NzQ3NjM0MTYsIDAuNTc2NjI4ODM3MjE5Njg4IDIuNDM2ODkxMzA3ODU3OTgyLCAwLjQzNDEyMDQ0NDE2NzMyNjA0IDIuNDYyMDE5MzgyNTMwNTIgQzAuMjkxNjEyMDUxMTE0OTY0IDIuNDg3MTQ3NDU3MjAzMDU4LCAwLjE0NDcwNjgxNDcyMjQ0MjEyIDIuNSwgMS41MzA4MDg0OTg5MzQxOTE2ZS0xNiAyLjUgQy0wLjE0NDcwNjgxNDcyMjQ0MTggMi41LCAtMC4yOTE2MTIwNTExMTQ5NjM4IDIuNDg3MTQ3NDU3MjAzMDU4LCAtMC40MzQxMjA0NDQxNjczMjU3NiAyLjQ2MjAxOTM4MjUzMDUyIEMtMC41NzY2Mjg4MzcyMTk2ODc3IDIuNDM2ODkxMzA3ODU3OTgyLCAtMC43MTkwNzA0MzIzNDIwNTk1IDIuMzk4NzI0MTk3NDc2MzQxNiwgLTAuODU1MDUwMzU4MzE0MTcxOCAyLjM0OTIzMTU1MTk2NDc3MTMgQy0wLjk5MTAzMDI4NDI4NjI4NCAyLjI5OTczODkwNjQ1MzIwMSwgLTEuMTI0NjgwMjIyMzQ5NjM3IDIuMjM3NDE2OTE2ODIyMzE4LCAtMS4yNDk5OTk5OTk5OTk5OTk2IDIuMTY1MDYzNTA5NDYxMDk3MyBDLTEuMzc1MzE5Nzc3NjUwMzYyIDIuMDkyNzEwMTAyMDk5ODc2NCwgLTEuNDk2MTE3MTcyOTE2NzczMyAyLjAwODEyNjg1NTMzODIzNywgLTEuNjA2OTY5MDI0MjE2MzQ3MiAxLjkxNTExMTEwNzc5NzQ0NTkgQy0xLjcxNzgyMDg3NTUxNTkyMTIgMS44MjIwOTUzNjAyNTY2NTQ1LCAtMS44MjIwOTUzNjAyNTY2NTI1IDEuNzE3ODIwODc1NTE1OTIzNCwgLTEuOTE1MTExMTA3Nzk3NDQzOSAxLjYwNjk2OTAyNDIxNjM0OTUgQy0yLjAwODEyNjg1NTMzODIzNSAxLjQ5NjExNzE3MjkxNjc3NTUsIC0yLjA5MjcxMDEwMjA5OTg3NDYgMS4zNzUzMTk3Nzc2NTAzNjQ1LCAtMi4xNjUwNjM1MDk0NjEwOTU1IDEuMjUwMDAwMDAwMDAwMDAyIEMtMi4yMzc0MTY5MTY4MjIzMTY0IDEuMTI0NjgwMjIyMzQ5NjM5NSwgLTIuMjk5NzM4OTA2NDUzMTk5MiAwLjk5MTAzMDI4NDI4NjI4NjUsIC0yLjM0OTIzMTU1MTk2NDc3IDAuODU1MDUwMzU4MzE0MTc0MyBDLTIuMzk4NzI0MTk3NDc2MzQwNyAwLjcxOTA3MDQzMjM0MjA2MjEsIC0yLjQzNjg5MTMwNzg1Nzk4MSAwLjU3NjYyODgzNzIxOTY5MDcsIC0yLjQ2MjAxOTM4MjUzMDUxOTQgMC40MzQxMjA0NDQxNjczMjkgQy0yLjQ4NzE0NzQ1NzIwMzA1OCAwLjI5MTYxMjA1MTExNDk2NzI0LCAtMi41IDAuMTQ0NzA2ODE0NzIyNDQ1NDUsIC0yLjUgMy42MzY4MzA3NzM2NjIzMDhlLTE1IEMtMi41IC0wLjE0NDcwNjgxNDcyMjQzODE4LCAtMi40ODcxNDc0NTcyMDMwNTg3IC0wLjI5MTYxMjA1MTExNDk1OTksIC0yLjQ2MjAxOTM4MjUzMDUyMDggLTAuNDM0MTIwNDQ0MTY3MzIxOCBDLTIuNDM2ODkxMzA3ODU3OTgzIC0wLjU3NjYyODgzNzIxOTY4MzcsIC0yLjM5ODcyNDE5NzQ3NjM0MyAtMC43MTkwNzA0MzIzNDIwNTUzLCAtMi4zNDkyMzE1NTE5NjQ3NzI2IC0wLjg1NTA1MDM1ODMxNDE2NzUgQy0yLjI5OTczODkwNjQ1MzIwMjMgLTAuOTkxMDMwMjg0Mjg2Mjc5OCwgLTIuMjM3NDE2OTE2ODIyMzIgLTEuMTI0NjgwMjIyMzQ5NjMyOCwgLTIuMTY1MDYzNTA5NDYxMDk5IC0xLjI0OTk5OTk5OTk5OTk5NTYgQy0yLjA5MjcxMDEwMjA5OTg3OCAtMS4zNzUzMTk3Nzc2NTAzNTgzLCAtMi4wMDgxMjY4NTUzMzgyNCAtMS40OTYxMTcxNzI5MTY3Njk1LCAtMS45MTUxMTExMDc3OTc0NDg4IC0xLjYwNjk2OTAyNDIxNjM0NCBDLTEuODIyMDk1MzYwMjU2NjU3NiAtMS43MTc4MjA4NzU1MTU5MTgzLCAtMS43MTc4MjA4NzU1MTU5MjYzIC0xLjgyMjA5NTM2MDI1NjY1LCAtMS42MDY5NjkwMjQyMTYzNTIzIC0xLjkxNTExMTEwNzc5NzQ0MTYgQy0xLjQ5NjExNzE3MjkxNjc3ODQgLTIuMDA4MTI2ODU1MzM4MjMzNCwgLTEuMzc1MzE5Nzc3NjUwMzY3NCAtMi4wOTI3MTAxMDIwOTk4NzI0LCAtMS4yNTAwMDAwMDAwMDAwMDQ5IC0yLjE2NTA2MzUwOTQ2MTA5MzcgQy0xLjEyNDY4MDIyMjM0OTY0MjQgLTIuMjM3NDE2OTE2ODIyMzE1LCAtMC45OTEwMzAyODQyODYyODk2IC0yLjI5OTczODkwNjQ1MzE5OCwgLTAuODU1MDUwMzU4MzE0MTc3NSAtMi4zNDkyMzE1NTE5NjQ3Njg2IEMtMC43MTkwNzA0MzIzNDIwNjU1IC0yLjM5ODcyNDE5NzQ3NjMzOTQsIC0wLjU3NjYyODgzNzIxOTY5NDIgLTIuNDM2ODkxMzA3ODU3OTgwNiwgLTAuNDM0MTIwNDQ0MTY3MzMyNCAtMi40NjIwMTkzODI1MzA1MTkgQy0wLjI5MTYxMjA1MTExNDk3MDcgLTIuNDg3MTQ3NDU3MjAzMDU3NCwgLTAuMTQ0NzA2ODE0NzIyNDQ4OTIgLTIuNDk5OTk5OTk5OTk5OTk5NiwgLTcuMTIwNTgwNjk3NDMxMTk4ZS0xNSAtMi41IEMwLjE0NDcwNjgxNDcyMjQzNDY2IC0yLjUwMDAwMDAwMDAwMDAwMDQsIDAuMjkxNjEyMDUxMTE0OTU2NCAtMi40ODcxNDc0NTcyMDMwNTksIDAuNDM0MTIwNDQ0MTY3MzE4MyAtMi40NjIwMTkzODI1MzA1MjE3IEMwLjU3NjYyODgzNzIxOTY4MDIgLTIuNDM2ODkxMzA3ODU3OTg0LCAwLjcxOTA3MDQzMjM0MjA1MTkgLTIuMzk4NzI0MTk3NDc2MzQ0MiwgMC44NTUwNTAzNTgzMTQxNjQzIC0yLjM0OTIzMTU1MTk2NDc3NCBDMC45OTEwMzAyODQyODYyNzY3IC0yLjI5OTczODkwNjQ1MzIwMzcsIDEuMTI0NjgwMjIyMzQ5NjI5NyAtMi4yMzc0MTY5MTY4MjIzMjEyLCAxLjI0OTk5OTk5OTk5OTk5MjUgLTIuMTY1MDYzNTA5NDYxMTAxIEMxLjM3NTMxOTc3NzY1MDM1NTIgLTIuMDkyNzEwMTAyMDk5ODgwNCwgMS40OTYxMTcxNzI5MTY3NjY4IC0yLjAwODEyNjg1NTMzODI0MiwgMS42MDY5NjkwMjQyMTYzNDEyIC0xLjkxNTExMTEwNzc5NzQ1MTIgQzEuNzE3ODIwODc1NTE1OTE1NyAtMS44MjIwOTUzNjAyNTY2NjAzLCAxLjgyMjA5NTM2MDI1NjY0NzIgLTEuNzE3ODIwODc1NTE1OTI5NCwgMS45MTUxMTExMDc3OTc0MzkgLTEuNjA2OTY5MDI0MjE2MzU1NyBDMi4wMDgxMjY4NTUzMzgyMzA4IC0xLjQ5NjExNzE3MjkxNjc4MiwgMi4wOTI3MTAxMDIwOTk4NyAtMS4zNzUzMTk3Nzc2NTAzNzEyLCAyLjE2NTA2MzUwOTQ2MTA5MTUgLTEuMjUwMDAwMDAwMDAwMDA4OSBDMi4yMzc0MTY5MTY4MjIzMTMgLTEuMTI0NjgwMjIyMzQ5NjQ2NiwgMi4yOTk3Mzg5MDY0NTMxOTYgLTAuOTkxMDMwMjg0Mjg2MjkzNywgMi4zNDkyMzE1NTE5NjQ3NjczIC0wLjg1NTA1MDM1ODMxNDE4MTcgQzIuMzk4NzI0MTk3NDc2MzM4NSAtMC43MTkwNzA0MzIzNDIwNjk4LCAyLjQzNjg5MTMwNzg1Nzk3OTIgLTAuNTc2NjI4ODM3MjE5Njk4NiwgMi40NjIwMTkzODI1MzA1MTggLTAuNDM0MTIwNDQ0MTY3MzM2OSBDMi40ODcxNDc0NTcyMDMwNTcgLTAuMjkxNjEyMDUxMTE0OTc1MjMsIDIuNDkzNjY5ODk3MDg4NDE5NyAtMC4wNzIzNTM0MDczNjEyMzQ1NCwgMi41IC0xLjE3MTQ1NTM2NDU4MjUyNDFlLTE0IEMyLjUwNjMzMDEwMjkxMTU4MDMgMC4wNzIzNTM0MDczNjEyMTExMSwgMi41MDYzMzAxMDI5MTE1OCAtMC4wNzIzNTM0MDczNjEyMjI5MiwgMi41IDAiPjwvcGF0aD48L2c+PC9nPjwvZz48L2c+PC9nPjxnIHRyYW5zZm9ybT0idHJhbnNsYXRlKDQxMy43Mzk4Mzc2NDY0ODQ0LCAzNy41KSIgY2xhc3M9InJvb3QiPjxnIGNsYXNzPSJjbHVzdGVycyI+PGcgZGF0YS1sb29rPSJjbGFzc2ljIiBpZD0iaWQtMW9tNDlucWp6dmktMTIiIGNsYXNzPSJzdGF0ZWRpYWdyYW0tc3RhdGUgc3RhdGVkaWFncmFtLWNsdXN0ZXIgc3RhdGVkaWFncmFtLWNsdXN0ZXItYWx0Ij48Zz48cmVjdCBkYXRhLWxvb2s9ImNsYXNzaWMiIGhlaWdodD0iMTM2Ny43ODEyNTE5MDczNDg2IiB3aWR0aD0iNTAwLjMzNTkzNzUiIHk9IjgiIHg9IjgiIGNsYXNzPSJkaXZpZGVyIj48L3JlY3Q+PC9nPjwvZz48L2c+PGcgY2xhc3M9ImVkZ2VQYXRocyI+PHBhdGggbWFya2VyLWVuZD0idXJsKCNnZU1lcm1haWRPdXRwdXQtMTc0OTIyNTY1ODYyM19zdGF0ZURpYWdyYW0tYmFyYkVuZCkiIHN0eWxlPSJmaWxsOm5vbmU7IiBjbGFzcz0iZWRnZS10aGlja25lc3Mtbm9ybWFsIGVkZ2UtcGF0dGVybi1zb2xpZCB0cmFuc2l0aW9uIiBpZD0iZWRnZTQiIGQ9Ik0yNTguMTY4LDcyTDI1OC4xNjgsODAuMzMzQzI1OC4xNjgsODguNjY3LDI1OC4xNjgsMTA1LjMzMywyNTguMTY4LDEyMkMyNTguMTY4LDEzOC42NjcsMjU4LjE2OCwxNTUuMzMzLDI1OC4xNjgsMTYzLjY2N0wyNTguMTY4LDE3MiI+PC9wYXRoPjxwYXRoIG1hcmtlci1lbmQ9InVybCgjZ2VNZXJtYWlkT3V0cHV0LTE3NDkyMjU2NTg2MjNfc3RhdGVEaWFncmFtLWJhcmJFbmQpIiBzdHlsZT0iZmlsbDpub25lOyIgY2xhc3M9ImVkZ2UtdGhpY2tuZXNzLW5vcm1hbCBlZGdlLXBhdHRlcm4tc29saWQgdHJhbnNpdGlvbiIgaWQ9ImVkZ2U1IiBkPSJNMjQzLjAxMSwyMTJMMjM0LjE1OCwyMjMuNjgyQzIyNS4zMDUsMjM1LjM2NSwyMDcuNTk5LDI1OC43MjksMjAwLjM0MSwyODIuMDk0QzE5My4wODQsMzA1LjQ1OCwxOTYuMjc1LDMyOC44MjMsMTk3Ljg3LDM0MC41MDVMMTk5LjQ2NiwzNTIuMTg4Ij48L3BhdGg+PHBhdGggbWFya2VyLWVuZD0idXJsKCNnZU1lcm1haWRPdXRwdXQtMTc0OTIyNTY1ODYyM19zdGF0ZURpYWdyYW0tYmFyYkVuZCkiIHN0eWxlPSJmaWxsOm5vbmU7IiBjbGFzcz0iZWRnZS10aGlja25lc3Mtbm9ybWFsIGVkZ2UtcGF0dGVybi1zb2xpZCB0cmFuc2l0aW9uIiBpZD0iZWRnZTYiIGQ9Ik0yNTguMTY4LDEyMTEuNzgxTDI1OC4xNjgsMTIyMC4xMTVDMjU4LjE2OCwxMjI4LjQ0OCwyNTguMTY4LDEyNDUuMTE1LDI1OC4xNjgsMTI2MS43ODFDMjU4LjE2OCwxMjc4LjQ0OCwyNTguMTY4LDEyOTUuMTE1LDI1OC4xNjgsMTMwMy40NDhMMjU4LjE2OCwxMzExLjc4MSI+PC9wYXRoPjxwYXRoIG1hcmtlci1lbmQ9InVybCgjZ2VNZXJtYWlkT3V0cHV0LTE3NDkyMjU2NTg2MjNfc3RhdGVEaWFncmFtLWJhcmJFbmQpIiBzdHlsZT0iZmlsbDpub25lOyIgY2xhc3M9ImVkZ2UtdGhpY2tuZXNzLW5vcm1hbCBlZGdlLXBhdHRlcm4tc29saWQgdHJhbnNpdGlvbiIgaWQ9ImVkZ2U3IiBkPSJNMzU3LjExNSwzNTIuMTg4TDM1OS44MDUsMzQwLjUwNUMzNjIuNDk0LDMyOC44MjMsMzY3Ljg3MywzMDUuNDU4LDM1NS42NCwyODIuMDk0QzM0My40MDYsMjU4LjcyOSwzMTMuNTYxLDIzNS4zNjUsMjk4LjYzOCwyMjMuNjgyTDI4My43MTYsMjEyIj48L3BhdGg+PC9nPjxnIGNsYXNzPSJlZGdlTGFiZWxzIj48Zz48cmVjdCBzdHlsZT0ic3Ryb2tlOiBub25lIiBjbGFzcz0iYmFja2dyb3VuZCI+PC9yZWN0PjwvZz48Zz48cmVjdCBzdHlsZT0ic3Ryb2tlOiBub25lIiBjbGFzcz0iYmFja2dyb3VuZCI+PC9yZWN0PjwvZz48Zz48cmVjdCBzdHlsZT0ic3Ryb2tlOiBub25lIiBjbGFzcz0iYmFja2dyb3VuZCI+PC9yZWN0PjwvZz48ZyBjbGFzcz0iZWRnZUxhYmVsIj48ZyB0cmFuc2Zvcm09InRyYW5zbGF0ZSgwLCAwKSIgY2xhc3M9ImxhYmVsIj48dGV4dCB5PSItMTAuMSI+PHRzcGFuIGR5PSIxLjFlbSIgeT0iLTAuMWVtIiB4PSIwIiBjbGFzcz0idGV4dC1vdXRlci10c3BhbiI+PC90c3Bhbj48L3RleHQ+PC9nPjwvZz48ZyB0cmFuc2Zvcm09InRyYW5zbGF0ZSgxODkuODkyNTc4MTI1LCAyODIuMDkzNzUpIiBjbGFzcz0iZWRnZUxhYmVsIj48ZyB0cmFuc2Zvcm09InRyYW5zbGF0ZSgtOTMuNjE3MTg3NSwgLTIwLjA5Mzc1KSIgY2xhc3M9ImxhYmVsIj48Zz48cmVjdCBoZWlnaHQ9IjQwLjE4NzUiIHdpZHRoPSIxODcuMjM0Mzc1IiB5PSItMS4wMzEyNSIgeD0iLTIiIHN0eWxlPSIiIGNsYXNzPSJiYWNrZ3JvdW5kIj48L3JlY3Q+PHRleHQgc3R5bGU9IiIgeT0iLTEwLjEiPjx0c3BhbiBkeT0iMS4xZW0iIHk9Ii0wLjFlbSIgeD0iMCIgY2xhc3M9InRleHQtb3V0ZXItdHNwYW4iPjx0c3BhbiBmb250LXdlaWdodD0ibm9ybWFsIiBjbGFzcz0idGV4dC1pbm5lci10c3BhbiIgZm9udC1zdHlsZT0ibm9ybWFsIj5rZXk8L3RzcGFuPjx0c3BhbiBmb250LXdlaWdodD0ibm9ybWFsIiBjbGFzcz0idGV4dC1pbm5lci10c3BhbiIgZm9udC1zdHlsZT0ibm9ybWFsIj4gcHJlc2VudGVkPC90c3Bhbj48dHNwYW4gZm9udC13ZWlnaHQ9Im5vcm1hbCIgY2xhc3M9InRleHQtaW5uZXItdHNwYW4iIGZvbnQtc3R5bGU9Im5vcm1hbCI+IFt2YWxpZDwvdHNwYW4+PHRzcGFuIGZvbnQtd2VpZ2h0PSJub3JtYWwiIGNsYXNzPSJ0ZXh0LWlubmVyLXRzcGFuIiBmb250LXN0eWxlPSJub3JtYWwiPiBSRklEPC90c3Bhbj48L3RzcGFuPjx0c3BhbiBkeT0iMS4xZW0iIHk9IjFlbSIgeD0iMCIgY2xhc3M9InRleHQtb3V0ZXItdHNwYW4iPjx0c3BhbiBmb250LXdlaWdodD0ibm9ybWFsIiBjbGFzcz0idGV4dC1pbm5lci10c3BhbiIgZm9udC1zdHlsZT0ibm9ybWFsIj5jb2RlXTwvdHNwYW4+PHRzcGFuIGZvbnQtd2VpZ2h0PSJub3JtYWwiIGNsYXNzPSJ0ZXh0LWlubmVyLXRzcGFuIiBmb250LXN0eWxlPSJub3JtYWwiPiAvdmVyaWZ5PC90c3Bhbj48L3RzcGFuPjwvdGV4dD48L2c+PC9nPjwvZz48ZyBjbGFzcz0iZWRnZUxhYmVsIj48ZyB0cmFuc2Zvcm09InRyYW5zbGF0ZSgwLCAwKSIgY2xhc3M9ImxhYmVsIj48dGV4dCB5PSItMTAuMSI+PHRzcGFuIGR5PSIxLjFlbSIgeT0iLTAuMWVtIiB4PSIwIiBjbGFzcz0idGV4dC1vdXRlci10c3BhbiI+PC90c3Bhbj48L3RleHQ+PC9nPjwvZz48ZyBjbGFzcz0iZWRnZUxhYmVsIj48ZyB0cmFuc2Zvcm09InRyYW5zbGF0ZSgwLCAwKSIgY2xhc3M9ImxhYmVsIj48dGV4dCB5PSItMTAuMSI+PHRzcGFuIGR5PSIxLjFlbSIgeT0iLTAuMWVtIiB4PSIwIiBjbGFzcz0idGV4dC1vdXRlci10c3BhbiI+PC90c3Bhbj48L3RleHQ+PC9nPjwvZz48L2c+PGcgY2xhc3M9Im5vZGVzIj48ZyB0cmFuc2Zvcm09InRyYW5zbGF0ZSgyNTguMTY3OTY4NzUsIDY1KSIgaWQ9InN0YXRlLWlkLTFvbTQ5bnFqenZpLTEyX3N0YXJ0LTQiIGNsYXNzPSJub2RlIGRlZmF1bHQiPjxjaXJjbGUgaGVpZ2h0PSIxNCIgd2lkdGg9IjE0IiByPSI3IiBjbGFzcz0ic3RhdGUtc3RhcnQiPjwvY2lyY2xlPjwvZz48ZyB0cmFuc2Zvcm09InRyYW5zbGF0ZSgyNTguMTY3OTY4NzUsIDE5MikiIGlkPSJzdGF0ZS1MaXN0ZW5pbmctNyIgY2xhc3M9Im5vZGUgIHN0YXRlZGlhZ3JhbS1zdGF0ZSI+PHJlY3QgaGVpZ2h0PSI0MCIgd2lkdGg9IjgwLjI5Njg3NSIgeT0iLTIwIiB4PSItNDAuMTQ4NDM3NSIgcnk9IjUiIHJ4PSI1IiBzdHlsZT0iIiBjbGFzcz0iYmFzaWMgbGFiZWwtY29udGFpbmVyIj48L3JlY3Q+PGcgdHJhbnNmb3JtPSJ0cmFuc2xhdGUoLTMyLjE0ODQzNzUsIC0xMikiIHN0eWxlPSIiIGNsYXNzPSJsYWJlbCI+PHJlY3Q+PC9yZWN0Pjxmb3JlaWduT2JqZWN0IGhlaWdodD0iMjQiIHdpZHRoPSI2NC4yOTY4NzUiPjxkaXYgc3R5bGU9ImRpc3BsYXk6IHRhYmxlLWNlbGw7IHdoaXRlLXNwYWNlOiBub3dyYXA7IGxpbmUtaGVpZ2h0OiAxLjU7IG1heC13aWR0aDogMjAwcHg7IHRleHQtYWxpZ246IGNlbnRlcjsiIHhtbG5zPSJodHRwOi8vd3d3LnczLm9yZy8xOTk5L3hodG1sIj48c3BhbiBjbGFzcz0ibm9kZUxhYmVsIj48cD5MaXN0ZW5pbmc8L3A+PC9zcGFuPjwvZGl2PjwvZm9yZWlnbk9iamVjdD48L2c+PC9nPjxnIHRyYW5zZm9ybT0idHJhbnNsYXRlKDM1LCAzNDQuMTg3NSkiIGNsYXNzPSJyb290Ij48ZyBjbGFzcz0iY2x1c3RlcnMiPjxnIGRhdGEtbG9vaz0iY2xhc3NpYyIgZGF0YS1pZD0iVmVyaWZ5aW5nQWNjZXNzIiBpZD0iVmVyaWZ5aW5nQWNjZXNzIiBjbGFzcz0ic3RhdGVkaWFncmFtLXN0YXRlIHN0YXRlZGlhZ3JhbS1jbHVzdGVyIj48Zz48cmVjdCBkYXRhLWxvb2s9ImNsYXNzaWMiIGhlaWdodD0iODU4LjU2MjUwMTkwNzM0ODYiIHdpZHRoPSI0MzAuMzM1OTM3NSIgeT0iOCIgeD0iOCIgY2xhc3M9Im91dGVyIj48L3JlY3Q+PC9nPjxnIHRyYW5zZm9ybT0idHJhbnNsYXRlKDE2Ny42NjAxNTYyNSwgNikiIGNsYXNzPSJjbHVzdGVyLWxhYmVsIj48dGV4dCBzdHlsZT0iIj48dHNwYW4gY2xhc3M9InJvdyIgeD0iMCIgZHk9IjFlbSIgeG1sOnNwYWNlPSJwcmVzZXJ2ZSI+VmVyaWZ5aW5nQWNjZXNzPC90c3Bhbj48L3RleHQ+PC9nPjxyZWN0IGhlaWdodD0iODMzLjk2ODc1MTkwNzM0ODYiIHdpZHRoPSI0MzAuMzM1OTM3NSIgeT0iMjguNTkzNzUiIHg9IjgiIGNsYXNzPSJpbm5lciI+PC9yZWN0PjwvZz48L2c+PGcgY2xhc3M9ImVkZ2VQYXRocyI+PHBhdGggbWFya2VyLWVuZD0idXJsKCNnZU1lcm1haWRPdXRwdXQtMTc0OTIyNTY1ODYyM19zdGF0ZURpYWdyYW0tYmFyYkVuZCkiIHN0eWxlPSJmaWxsOm5vbmU7IiBjbGFzcz0iZWRnZS10aGlja25lc3Mtbm9ybWFsIGVkZ2UtcGF0dGVybi1zb2xpZCB0cmFuc2l0aW9uIiBpZD0iZWRnZTgiIGQ9Ik0yMjUuNTk4LDg0LjVMMjI1LjU5OCw5NC45MTdDMjI1LjU5OCwxMDUuMzMzLDIyNS41OTgsMTI2LjE2NywyMjUuNTk4LDE0N0MyMjUuNTk4LDE2Ny44MzMsMjI1LjU5OCwxODguNjY3LDIyNS41OTgsMTk5LjA4M0wyMjUuNTk4LDIwOS41Ij48L3BhdGg+PHBhdGggbWFya2VyLWVuZD0idXJsKCNnZU1lcm1haWRPdXRwdXQtMTc0OTIyNTY1ODYyM19zdGF0ZURpYWdyYW0tYmFyYkVuZCkiIHN0eWxlPSJmaWxsOm5vbmU7IiBjbGFzcz0iZWRnZS10aGlja25lc3Mtbm9ybWFsIGVkZ2UtcGF0dGVybi1zb2xpZCB0cmFuc2l0aW9uIiBpZD0iZWRnZTkiIGQ9Ik0yMDUuMjYxLDI0OS41TDE5Mi43NTUsMjYxLjc5OUMxODAuMjQ4LDI3NC4wOTksMTU1LjIzNSwyOTguNjk4LDE0Mi43MjksMzIzLjMxM0MxMzAuMjIzLDM0Ny45MjcsMTMwLjIyMywzNzIuNTU3LDEzMC4yMjMsMzg0Ljg3MkwxMzAuMjIzLDM5Ny4xODgiPjwvcGF0aD48cGF0aCBtYXJrZXItZW5kPSJ1cmwoI2dlTWVybWFpZE91dHB1dC0xNzQ5MjI1NjU4NjIzX3N0YXRlRGlhZ3JhbS1iYXJiRW5kKSIgc3R5bGU9ImZpbGw6bm9uZTsiIGNsYXNzPSJlZGdlLXRoaWNrbmVzcy1ub3JtYWwgZWRnZS1wYXR0ZXJuLXNvbGlkIHRyYW5zaXRpb24iIGlkPSJlZGdlMTAiIGQ9Ik0xMzAuMjIzLDQzNy4xODhMMTMwLjIyMyw0NDkuNTAzQzEzMC4yMjMsNDYxLjgxOCwxMzAuMjIzLDQ4Ni40NDgsMTMwLjIyMyw1MTEuMDYzQzEzMC4yMjMsNTM1LjY3NywxMzAuMjIzLDU2MC4yNzYsMTMwLjIyMyw1NzIuNTc2TDEzMC4yMjMsNTg0Ljg3NSI+PC9wYXRoPjxwYXRoIG1hcmtlci1lbmQ9InVybCgjZ2VNZXJtYWlkT3V0cHV0LTE3NDkyMjU2NTg2MjNfc3RhdGVEaWFncmFtLWJhcmJFbmQpIiBzdHlsZT0iZmlsbDpub25lOyIgY2xhc3M9ImVkZ2UtdGhpY2tuZXNzLW5vcm1hbCBlZGdlLXBhdHRlcm4tc29saWQgdHJhbnNpdGlvbiIgaWQ9ImVkZ2UxMSIgZD0iTTEzMC4yMjMsNjI0Ljg3NUwxMzAuMjIzLDYzOC42NDFDMTMwLjIyMyw2NTIuNDA2LDEzMC4yMjMsNjc5LjkzOCwxNDUuMjY4LDcwNy44MzdDMTYwLjMxNCw3MzUuNzM2LDE5MC40MDUsNzY0LjAwMywyMDUuNDUsNzc4LjEzNkwyMjAuNDk2LDc5Mi4yNyI+PC9wYXRoPjxwYXRoIG1hcmtlci1lbmQ9InVybCgjZ2VNZXJtYWlkT3V0cHV0LTE3NDkyMjU2NTg2MjNfc3RhdGVEaWFncmFtLWJhcmJFbmQpIiBzdHlsZT0iZmlsbDpub25lOyIgY2xhc3M9ImVkZ2UtdGhpY2tuZXNzLW5vcm1hbCBlZGdlLXBhdHRlcm4tc29saWQgdHJhbnNpdGlvbiIgaWQ9ImVkZ2UxMiIgZD0iTTI0NS45MzQsMjQ5LjVMMjU4LjQ0MSwyNjEuNzk5QzI3MC45NDcsMjc0LjA5OSwyOTUuOTYsMjk4LjY5OCwzMDguNDY2LDMyNi42NDZDMzIwLjk3MywzNTQuNTk0LDMyMC45NzMsMzg1Ljg5MSwzMjAuOTczLDQxNy4xODhDMzIwLjk3Myw0NDguNDg0LDMyMC45NzMsNDc5Ljc4MSwzMjAuOTczLDUwNy43MjlDMzIwLjk3Myw1MzUuNjc3LDMyMC45NzMsNTYwLjI3NiwzMjAuOTczLDU3Mi41NzZMMzIwLjk3Myw1ODQuODc1Ij48L3BhdGg+PHBhdGggbWFya2VyLWVuZD0idXJsKCNnZU1lcm1haWRPdXRwdXQtMTc0OTIyNTY1ODYyM19zdGF0ZURpYWdyYW0tYmFyYkVuZCkiIHN0eWxlPSJmaWxsOm5vbmU7IiBjbGFzcz0iZWRnZS10aGlja25lc3Mtbm9ybWFsIGVkZ2UtcGF0dGVybi1zb2xpZCB0cmFuc2l0aW9uIiBpZD0iZWRnZTEzIiBkPSJNMzIwLjk3Myw2MjQuODc1TDMyMC45NzMsNjM4LjY0MUMzMjAuOTczLDY1Mi40MDYsMzIwLjk3Myw2NzkuOTM4LDMwNS45MjcsNzA3LjgzN0MyOTAuODgyLDczNS43MzYsMjYwLjc5MSw3NjQuMDAzLDI0NS43NDUsNzc4LjEzNkwyMzAuNyw3OTIuMjciPjwvcGF0aD48L2c+PGcgY2xhc3M9ImVkZ2VMYWJlbHMiPjxnPjxyZWN0IHN0eWxlPSJzdHJva2U6IG5vbmUiIGNsYXNzPSJiYWNrZ3JvdW5kIj48L3JlY3Q+PC9nPjxnIGNsYXNzPSJlZGdlTGFiZWwiPjxnIHRyYW5zZm9ybT0idHJhbnNsYXRlKDAsIDApIiBjbGFzcz0ibGFiZWwiPjx0ZXh0IHk9Ii0xMC4xIj48dHNwYW4gZHk9IjEuMWVtIiB5PSItMC4xZW0iIHg9IjAiIGNsYXNzPSJ0ZXh0LW91dGVyLXRzcGFuIj48L3RzcGFuPjwvdGV4dD48L2c+PC9nPjxnIHRyYW5zZm9ybT0idHJhbnNsYXRlKDEzMC4yMjI2NTYyNSwgMzIzLjI5Njg3NSkiIGNsYXNzPSJlZGdlTGFiZWwiPjxnIHRyYW5zZm9ybT0idHJhbnNsYXRlKC04NSwgLTExLjI5Njg3NSkiIGNsYXNzPSJsYWJlbCI+PGc+PHJlY3QgaGVpZ2h0PSIyMi41OTM3NSIgd2lkdGg9IjE3MCIgeT0iLTEuMDMxMjUiIHg9Ii0yIiBzdHlsZT0iIiBjbGFzcz0iYmFja2dyb3VuZCI+PC9yZWN0Pjx0ZXh0IHN0eWxlPSIiIHk9Ii0xMC4xIj48dHNwYW4gZHk9IjEuMWVtIiB5PSItMC4xZW0iIHg9IjAiIGNsYXNzPSJ0ZXh0LW91dGVyLXRzcGFuIj48dHNwYW4gZm9udC13ZWlnaHQ9Im5vcm1hbCIgY2xhc3M9InRleHQtaW5uZXItdHNwYW4iIGZvbnQtc3R5bGU9Im5vcm1hbCI+a2V5PC90c3Bhbj48dHNwYW4gZm9udC13ZWlnaHQ9Im5vcm1hbCIgY2xhc3M9InRleHQtaW5uZXItdHNwYW4iIGZvbnQtc3R5bGU9Im5vcm1hbCI+IGFsbG93ZWQ8L3RzcGFuPjx0c3BhbiBmb250LXdlaWdodD0ibm9ybWFsIiBjbGFzcz0idGV4dC1pbm5lci10c3BhbiIgZm9udC1zdHlsZT0ibm9ybWFsIj4gW3ZhbGlkPC90c3Bhbj48dHNwYW4gZm9udC13ZWlnaHQ9Im5vcm1hbCIgY2xhc3M9InRleHQtaW5uZXItdHNwYW4iIGZvbnQtc3R5bGU9Im5vcm1hbCI+IGtleV08L3RzcGFuPjwvdHNwYW4+PC90ZXh0PjwvZz48L2c+PC9nPjxnIHRyYW5zZm9ybT0idHJhbnNsYXRlKDEzMC4yMjI2NTYyNSwgNTExLjA3ODEyNSkiIGNsYXNzPSJlZGdlTGFiZWwiPjxnIHRyYW5zZm9ybT0idHJhbnNsYXRlKC02OS44NDM3NSwgLTExLjI5Njg3NSkiIGNsYXNzPSJsYWJlbCI+PGc+PHJlY3QgaGVpZ2h0PSIyMi41OTM3NSIgd2lkdGg9IjEzOS42ODc1IiB5PSItMS4wMzEyNSIgeD0iLTIiIHN0eWxlPSIiIGNsYXNzPSJiYWNrZ3JvdW5kIj48L3JlY3Q+PHRleHQgc3R5bGU9IiIgeT0iLTEwLjEiPjx0c3BhbiBkeT0iMS4xZW0iIHk9Ii0wLjFlbSIgeD0iMCIgY2xhc3M9InRleHQtb3V0ZXItdHNwYW4iPjx0c3BhbiBmb250LXdlaWdodD0ibm9ybWFsIiBjbGFzcz0idGV4dC1pbm5lci10c3BhbiIgZm9udC1zdHlsZT0ibm9ybWFsIj5bdmFsaWQ8L3RzcGFuPjx0c3BhbiBmb250LXdlaWdodD0ibm9ybWFsIiBjbGFzcz0idGV4dC1pbm5lci10c3BhbiIgZm9udC1zdHlsZT0ibm9ybWFsIj4ga2V5XTwvdHNwYW4+PHRzcGFuIGZvbnQtd2VpZ2h0PSJub3JtYWwiIGNsYXNzPSJ0ZXh0LWlubmVyLXRzcGFuIiBmb250LXN0eWxlPSJub3JtYWwiPiAvdW5sb2NrPC90c3Bhbj48L3RzcGFuPjwvdGV4dD48L2c+PC9nPjwvZz48ZyB0cmFuc2Zvcm09InRyYW5zbGF0ZSgxMzAuMjIyNjU2MjUsIDcwNy40Njg3NSkiIGNsYXNzPSJlZGdlTGFiZWwiPjxnIHRyYW5zZm9ybT0idHJhbnNsYXRlKC05My4zMjgxMjUsIC0yMC4wOTM3NSkiIGNsYXNzPSJsYWJlbCI+PGc+PHJlY3QgaGVpZ2h0PSI0MC4xODc1IiB3aWR0aD0iMTg2LjY1NjI1IiB5PSItMS4wMzEyNSIgeD0iLTIiIHN0eWxlPSIiIGNsYXNzPSJiYWNrZ3JvdW5kIj48L3JlY3Q+PHRleHQgc3R5bGU9IiIgeT0iLTEwLjEiPjx0c3BhbiBkeT0iMS4xZW0iIHk9Ii0wLjFlbSIgeD0iMCIgY2xhc3M9InRleHQtb3V0ZXItdHNwYW4iPjx0c3BhbiBmb250LXdlaWdodD0ibm9ybWFsIiBjbGFzcz0idGV4dC1pbm5lci10c3BhbiIgZm9udC1zdHlsZT0ibm9ybWFsIj53YWl0PC90c3Bhbj48dHNwYW4gZm9udC13ZWlnaHQ9Im5vcm1hbCIgY2xhc3M9InRleHQtaW5uZXItdHNwYW4iIGZvbnQtc3R5bGU9Im5vcm1hbCI+IDU8L3RzcGFuPjx0c3BhbiBmb250LXdlaWdodD0ibm9ybWFsIiBjbGFzcz0idGV4dC1pbm5lci10c3BhbiIgZm9udC1zdHlsZT0ibm9ybWFsIj4gc2Vjb25kczwvdHNwYW4+PHRzcGFuIGZvbnQtd2VpZ2h0PSJub3JtYWwiIGNsYXNzPSJ0ZXh0LWlubmVyLXRzcGFuIiBmb250LXN0eWxlPSJub3JtYWwiPiBhZnRlcjwvdHNwYW4+PHRzcGFuIGZvbnQtd2VpZ2h0PSJub3JtYWwiIGNsYXNzPSJ0ZXh0LWlubmVyLXRzcGFuIiBmb250LXN0eWxlPSJub3JtYWwiPiBkb29yPC90c3Bhbj48L3RzcGFuPjx0c3BhbiBkeT0iMS4xZW0iIHk9IjFlbSIgeD0iMCIgY2xhc3M9InRleHQtb3V0ZXItdHNwYW4iPjx0c3BhbiBmb250LXdlaWdodD0ibm9ybWFsIiBjbGFzcz0idGV4dC1pbm5lci10c3BhbiIgZm9udC1zdHlsZT0ibm9ybWFsIj5jbG9zZTwvdHNwYW4+PHRzcGFuIGZvbnQtd2VpZ2h0PSJub3JtYWwiIGNsYXNzPSJ0ZXh0LWlubmVyLXRzcGFuIiBmb250LXN0eWxlPSJub3JtYWwiPiBbdW5sb2NrZWRdPC90c3Bhbj48dHNwYW4gZm9udC13ZWlnaHQ9Im5vcm1hbCIgY2xhc3M9InRleHQtaW5uZXItdHNwYW4iIGZvbnQtc3R5bGU9Im5vcm1hbCI+IC9sb2NrPC90c3Bhbj48L3RzcGFuPjwvdGV4dD48L2c+PC9nPjwvZz48ZyB0cmFuc2Zvcm09InRyYW5zbGF0ZSgzMjAuOTcyNjU2MjUsIDQxNy4xODc1KSIgY2xhc3M9ImVkZ2VMYWJlbCI+PGcgdHJhbnNmb3JtPSJ0cmFuc2xhdGUoLTgzLjYwOTM3NSwgLTIwLjA5Mzc1KSIgY2xhc3M9ImxhYmVsIj48Zz48cmVjdCBoZWlnaHQ9IjQwLjE4NzUiIHdpZHRoPSIxNjcuMjE4NzUiIHk9Ii0xLjAzMTI1IiB4PSItMiIgc3R5bGU9IiIgY2xhc3M9ImJhY2tncm91bmQiPjwvcmVjdD48dGV4dCBzdHlsZT0iIiB5PSItMTAuMSI+PHRzcGFuIGR5PSIxLjFlbSIgeT0iLTAuMWVtIiB4PSIwIiBjbGFzcz0idGV4dC1vdXRlci10c3BhbiI+PHRzcGFuIGZvbnQtd2VpZ2h0PSJub3JtYWwiIGNsYXNzPSJ0ZXh0LWlubmVyLXRzcGFuIiBmb250LXN0eWxlPSJub3JtYWwiPm5vdDwvdHNwYW4+PHRzcGFuIGZvbnQtd2VpZ2h0PSJub3JtYWwiIGNsYXNzPSJ0ZXh0LWlubmVyLXRzcGFuIiBmb250LXN0eWxlPSJub3JtYWwiPiBmb3VuZDwvdHNwYW4+PHRzcGFuIGZvbnQtd2VpZ2h0PSJub3JtYWwiIGNsYXNzPSJ0ZXh0LWlubmVyLXRzcGFuIiBmb250LXN0eWxlPSJub3JtYWwiPiBbaW52YWxpZDwvdHNwYW4+PHRzcGFuIGZvbnQtd2VpZ2h0PSJub3JtYWwiIGNsYXNzPSJ0ZXh0LWlubmVyLXRzcGFuIiBmb250LXN0eWxlPSJub3JtYWwiPiBrZXldPC90c3Bhbj48L3RzcGFuPjx0c3BhbiBkeT0iMS4xZW0iIHk9IjFlbSIgeD0iMCIgY2xhc3M9InRleHQtb3V0ZXItdHNwYW4iPjx0c3BhbiBmb250LXdlaWdodD0ibm9ybWFsIiBjbGFzcz0idGV4dC1pbm5lci10c3BhbiIgZm9udC1zdHlsZT0ibm9ybWFsIj4vaWdub3JlPC90c3Bhbj48L3RzcGFuPjwvdGV4dD48L2c+PC9nPjwvZz48ZyB0cmFuc2Zvcm09InRyYW5zbGF0ZSgzMjAuOTcyNjU2MjUsIDcwNy40Njg3NSkiIGNsYXNzPSJlZGdlTGFiZWwiPjxnIHRyYW5zZm9ybT0idHJhbnNsYXRlKC0yOC42MzI4MTI1LCAtMTEuMjk2ODc1KSIgY2xhc3M9ImxhYmVsIj48Zz48cmVjdCBoZWlnaHQ9IjIyLjU5Mzc1IiB3aWR0aD0iNTcuMjY1NjI1IiB5PSItMS4wMzEyNSIgeD0iLTIiIHN0eWxlPSIiIGNsYXNzPSJiYWNrZ3JvdW5kIj48L3JlY3Q+PHRleHQgc3R5bGU9IiIgeT0iLTEwLjEiPjx0c3BhbiBkeT0iMS4xZW0iIHk9Ii0wLjFlbSIgeD0iMCIgY2xhc3M9InRleHQtb3V0ZXItdHNwYW4iPjx0c3BhbiBmb250LXdlaWdodD0ibm9ybWFsIiBjbGFzcz0idGV4dC1pbm5lci10c3BhbiIgZm9udC1zdHlsZT0ibm9ybWFsIj4vaWdub3JlPC90c3Bhbj48L3RzcGFuPjwvdGV4dD48L2c+PC9nPjwvZz48L2c+PGcgY2xhc3M9Im5vZGVzIj48ZyB0cmFuc2Zvcm09InRyYW5zbGF0ZSgyMjUuNTk3NjU2MjUsIDc3LjUpIiBpZD0ic3RhdGUtVmVyaWZ5aW5nQWNjZXNzX3N0YXJ0LTgiIGNsYXNzPSJub2RlIGRlZmF1bHQiPjxjaXJjbGUgaGVpZ2h0PSIxNCIgd2lkdGg9IjE0IiByPSI3IiBjbGFzcz0ic3RhdGUtc3RhcnQiPjwvY2lyY2xlPjwvZz48ZyB0cmFuc2Zvcm09InRyYW5zbGF0ZSgyMjUuNTk3NjU2MjUsIDIyOS41KSIgaWQ9InN0YXRlLUNoZWNraW5nSW50ZXJuYWxSZWNvcmRzLTEyIiBjbGFzcz0ibm9kZSAgc3RhdGVkaWFncmFtLXN0YXRlIj48cmVjdCBoZWlnaHQ9IjQwIiB3aWR0aD0iMTkyLjIzNDM3NSIgeT0iLTIwIiB4PSItOTYuMTE3MTg3NSIgcnk9IjUiIHJ4PSI1IiBzdHlsZT0iIiBjbGFzcz0iYmFzaWMgbGFiZWwtY29udGFpbmVyIj48L3JlY3Q+PGcgdHJhbnNmb3JtPSJ0cmFuc2xhdGUoLTg4LjExNzE4NzUsIC0xMikiIHN0eWxlPSIiIGNsYXNzPSJsYWJlbCI+PHJlY3Q+PC9yZWN0Pjxmb3JlaWduT2JqZWN0IGhlaWdodD0iMjQiIHdpZHRoPSIxNzYuMjM0Mzc1Ij48ZGl2IHN0eWxlPSJkaXNwbGF5OiB0YWJsZS1jZWxsOyB3aGl0ZS1zcGFjZTogbm93cmFwOyBsaW5lLWhlaWdodDogMS41OyBtYXgtd2lkdGg6IDIwMHB4OyB0ZXh0LWFsaWduOiBjZW50ZXI7IiB4bWxucz0iaHR0cDovL3d3dy53My5vcmcvMTk5OS94aHRtbCI+PHNwYW4gY2xhc3M9Im5vZGVMYWJlbCI+PHA+Q2hlY2tpbmdJbnRlcm5hbFJlY29yZHM8L3A+PC9zcGFuPjwvZGl2PjwvZm9yZWlnbk9iamVjdD48L2c+PC9nPjxnIHRyYW5zZm9ybT0idHJhbnNsYXRlKDEzMC4yMjI2NTYyNSwgNDE3LjE4NzUpIiBpZD0ic3RhdGUtS2V5QWNjZXNzVmVyaWZpZWQtMTAiIGNsYXNzPSJub2RlICBzdGF0ZWRpYWdyYW0tc3RhdGUiPjxyZWN0IGhlaWdodD0iNDAiIHdpZHRoPSIxNDQuMjgxMjUiIHk9Ii0yMCIgeD0iLTcyLjE0MDYyNSIgcnk9IjUiIHJ4PSI1IiBzdHlsZT0iIiBjbGFzcz0iYmFzaWMgbGFiZWwtY29udGFpbmVyIj48L3JlY3Q+PGcgdHJhbnNmb3JtPSJ0cmFuc2xhdGUoLTY0LjE0MDYyNSwgLTEyKSIgc3R5bGU9IiIgY2xhc3M9ImxhYmVsIj48cmVjdD48L3JlY3Q+PGZvcmVpZ25PYmplY3QgaGVpZ2h0PSIyNCIgd2lkdGg9IjEyOC4yODEyNSI+PGRpdiBzdHlsZT0iZGlzcGxheTogdGFibGUtY2VsbDsgd2hpdGUtc3BhY2U6IG5vd3JhcDsgbGluZS1oZWlnaHQ6IDEuNTsgbWF4LXdpZHRoOiAyMDBweDsgdGV4dC1hbGlnbjogY2VudGVyOyIgeG1sbnM9Imh0dHA6Ly93d3cudzMub3JnLzE5OTkveGh0bWwiPjxzcGFuIGNsYXNzPSJub2RlTGFiZWwiPjxwPktleUFjY2Vzc1ZlcmlmaWVkPC9wPjwvc3Bhbj48L2Rpdj48L2ZvcmVpZ25PYmplY3Q+PC9nPjwvZz48ZyB0cmFuc2Zvcm09InRyYW5zbGF0ZSgxMzAuMjIyNjU2MjUsIDYwNC44NzUpIiBpZD0ic3RhdGUtVW5sb2NrZWQtMTEiIGNsYXNzPSJub2RlICBzdGF0ZWRpYWdyYW0tc3RhdGUiPjxyZWN0IGhlaWdodD0iNDAiIHdpZHRoPSI4Mi4wNjI1IiB5PSItMjAiIHg9Ii00MS4wMzEyNSIgcnk9IjUiIHJ4PSI1IiBzdHlsZT0iIiBjbGFzcz0iYmFzaWMgbGFiZWwtY29udGFpbmVyIj48L3JlY3Q+PGcgdHJhbnNmb3JtPSJ0cmFuc2xhdGUoLTMzLjAzMTI1LCAtMTIpIiBzdHlsZT0iIiBjbGFzcz0ibGFiZWwiPjxyZWN0PjwvcmVjdD48Zm9yZWlnbk9iamVjdCBoZWlnaHQ9IjI0IiB3aWR0aD0iNjYuMDYyNSI+PGRpdiBzdHlsZT0iZGlzcGxheTogdGFibGUtY2VsbDsgd2hpdGUtc3BhY2U6IG5vd3JhcDsgbGluZS1oZWlnaHQ6IDEuNTsgbWF4LXdpZHRoOiAyMDBweDsgdGV4dC1hbGlnbjogY2VudGVyOyIgeG1sbnM9Imh0dHA6Ly93d3cudzMub3JnLzE5OTkveGh0bWwiPjxzcGFuIGNsYXNzPSJub2RlTGFiZWwiPjxwPlVubG9ja2VkPC9wPjwvc3Bhbj48L2Rpdj48L2ZvcmVpZ25PYmplY3Q+PC9nPjwvZz48ZyB0cmFuc2Zvcm09InRyYW5zbGF0ZSgyMjUuNTk3NjU2MjUsIDc5Ny4wNjI1MDA5NTM2NzQzKSIgaWQ9InN0YXRlLVZlcmlmeWluZ0FjY2Vzc19lbmQtMTMiIGNsYXNzPSJub2RlIGRlZmF1bHQiPjxnPjxwYXRoIHN0eWxlPSIiIGZpbGw9IiNlZWUiIHN0cm9rZS13aWR0aD0iMCIgc3Ryb2tlPSJub25lIiBkPSJNNyAwIEM3IDAuNDA1MTc5MDgxMjIyODM3NDcsIDYuOTY0MDEyODgwMTY4NTYzIDAuODE2NTEzNzQzMTIxODk5LCA2Ljg5MzY1NDI3MTA4NTQ1NiAxLjIxNTUzNzI0MzY2ODUxMjMgQzYuODIzMjk1NjYyMDAyMzQ5IDEuNjE0NTYwNzQ0MjE1MTI1NywgNi43MTY0Mjc3NTI5MzM3NTYgMi4wMTMzOTcyMTA1NTc3NjYsIDYuNTc3ODQ4MzQ1NTAxMzU4NiAyLjM5NDE0MTAwMzI3OTY4MSBDNi40MzkyNjg5MzgwNjg5NjEgMi43NzQ4ODQ3OTYwMDE1OTU0LCA2LjI2NDc2NzM2NzEwMjQ5IDMuMTQ5MTA0NjIyNTc4OTg0LCA2LjA2MjE3NzgyNjQ5MTA3MSAzLjQ5OTk5OTk5OTk5OTk5OTYgQzUuODU5NTg4Mjg1ODc5NjUzIDMuODUwODk1Mzc3NDIxMDE1MywgNS42MjI3NTUxOTQ5NDcwNjMgNC4xODkxMjgwODQxNjY5NjcsIDUuMzYyMzExMTAxODMyODQ2IDQuNDk5NTEzMjY3ODA1Nzc0IEM1LjEwMTg2NzAwODcxODYzIDQuODA5ODk4NDUxNDQ0NTgyLCA0LjgwOTg5ODQ1MTQ0NDU4MyA1LjEwMTg2NzAwODcxODYzLCA0LjQ5OTUxMzI2NzgwNTc3NSA1LjM2MjMxMTEwMTgzMjg0NiBDNC4xODkxMjgwODQxNjY5NjggNS42MjI3NTUxOTQ5NDcwNjMsIDMuODUwODk1Mzc3NDIxMDE2NiA1Ljg1OTU4ODI4NTg3OTY1MiwgMy41MDAwMDAwMDAwMDAwMDEgNi4wNjIxNzc4MjY0OTEwNyBDMy4xNDkxMDQ2MjI1Nzg5ODUgNi4yNjQ3NjczNjcxMDI0ODksIDIuNzc0ODg0Nzk2MDAxNTk2MyA2LjQzOTI2ODkzODA2ODk2MSwgMi4zOTQxNDEwMDMyNzk2ODE3IDYuNTc3ODQ4MzQ1NTAxMzU4NiBDMi4wMTMzOTcyMTA1NTc3NjcgNi43MTY0Mjc3NTI5MzM3NTYsIDEuNjE0NTYwNzQ0MjE1MTI2NCA2LjgyMzI5NTY2MjAwMjM0OSwgMS4yMTU1MzcyNDM2Njg1MTI4IDYuODkzNjU0MjcxMDg1NDU2IEMwLjgxNjUxMzc0MzEyMTg5OTIgNi45NjQwMTI4ODAxNjg1NjMsIDAuNDA1MTc5MDgxMjIyODM3OSA3LCA0LjI4NjI2Mzc5NzAxNTczNmUtMTYgNyBDLTAuNDA1MTc5MDgxMjIyODM3IDcsIC0wLjgxNjUxMzc0MzEyMTg5ODUgNi45NjQwMTI4ODAxNjg1NjMsIC0xLjIxNTUzNzI0MzY2ODUxMjEgNi44OTM2NTQyNzEwODU0NTYgQy0xLjYxNDU2MDc0NDIxNTEyNTcgNi44MjMyOTU2NjIwMDIzNDksIC0yLjAxMzM5NzIxMDU1Nzc2NjcgNi43MTY0Mjc3NTI5MzM3NTYsIC0yLjM5NDE0MTAwMzI3OTY4MSA2LjU3Nzg0ODM0NTUwMTM1ODYgQy0yLjc3NDg4NDc5NjAwMTU5NSA2LjQzOTI2ODkzODA2ODk2MSwgLTMuMTQ5MTA0NjIyNTc4OTgzIDYuMjY0NzY3MzY3MTAyNDksIC0zLjQ5OTk5OTk5OTk5OTk5ODIgNi4wNjIxNzc4MjY0OTEwNzEgQy0zLjg1MDg5NTM3NzQyMTAxMzUgNS44NTk1ODgyODU4Nzk2NTMsIC00LjE4OTEyODA4NDE2Njk2NSA1LjYyMjc1NTE5NDk0NzA2MzYsIC00LjQ5OTUxMzI2NzgwNTc3MjUgNS4zNjIzMTExMDE4MzI4NDggQy00LjgwOTg5ODQ1MTQ0NDU4IDUuMTAxODY3MDA4NzE4NjMyLCAtNS4xMDE4NjcwMDg3MTg2MjcgNC44MDk4OTg0NTE0NDQ1ODYsIC01LjM2MjMxMTEwMTgzMjg0MyA0LjQ5OTUxMzI2NzgwNTc3OSBDLTUuNjIyNzU1MTk0OTQ3MDU4IDQuMTg5MTI4MDg0MTY2OTcxLCAtNS44NTk1ODgyODU4Nzk2NDkgMy44NTA4OTUzNzc0MjEwMjA2LCAtNi4wNjIxNzc4MjY0OTEwNjggMy41MDAwMDAwMDAwMDAwMDUzIEMtNi4yNjQ3NjczNjcxMDI0ODYgMy4xNDkxMDQ2MjI1Nzg5OSwgLTYuNDM5MjY4OTM4MDY4OTU4IDIuNzc0ODg0Nzk2MDAxNjAyLCAtNi41Nzc4NDgzNDU1MDEzNTYgMi4zOTQxNDEwMDMyNzk2ODggQy02LjcxNjQyNzc1MjkzMzc1NCAyLjAxMzM5NzIxMDU1Nzc3MzgsIC02LjgyMzI5NTY2MjAwMjM0NyAxLjYxNDU2MDc0NDIxNTEzNCwgLTYuODkzNjU0MjcxMDg1NDU0IDEuMjE1NTM3MjQzNjY4NTIxIEMtNi45NjQwMTI4ODAxNjg1NjE1IDAuODE2NTEzNzQzMTIxOTA4LCAtNi45OTk5OTk5OTk5OTk5OTkgMC40MDUxNzkwODEyMjI4NDcyLCAtNyAxLjAxODMxMjYxNjYyNTQ0NjNlLTE0IEMtNy4wMDAwMDAwMDAwMDAwMDEgLTAuNDA1MTc5MDgxMjIyODI2ODYsIC02Ljk2NDAxMjg4MDE2ODU2NSAtMC44MTY1MTM3NDMxMjE4ODc4LCAtNi44OTM2NTQyNzEwODU0NTkgLTEuMjE1NTM3MjQzNjY4NTAxIEMtNi44MjMyOTU2NjIwMDIzNTIgLTEuNjE0NTYwNzQ0MjE1MTE0MiwgLTYuNzE2NDI3NzUyOTMzNzU5IC0yLjAxMzM5NzIxMDU1Nzc1NDIsIC02LjU3Nzg0ODM0NTUwMTM2MyAtMi4zOTQxNDEwMDMyNzk2NjkgQy02LjQzOTI2ODkzODA2ODk2NyAtMi43NzQ4ODQ3OTYwMDE1ODM0LCAtNi4yNjQ3NjczNjcxMDI0OTYgLTMuMTQ5MTA0NjIyNTc4OTcyLCAtNi4wNjIxNzc4MjY0OTEwNzggLTMuNDk5OTk5OTk5OTk5OTg3NiBDLTUuODU5NTg4Mjg1ODc5NjYxIC0zLjg1MDg5NTM3NzQyMTAwMzMsIC01LjYyMjc1NTE5NDk0NzA3MTUgLTQuMTg5MTI4MDg0MTY2OTU0NSwgLTUuMzYyMzExMTAxODMyODU2IC00LjQ5OTUxMzI2NzgwNTc2MyBDLTUuMTAxODY3MDA4NzE4NjQgLTQuODA5ODk4NDUxNDQ0NTcxLCAtNC44MDk4OTg0NTE0NDQ1OTQgLTUuMTAxODY3MDA4NzE4NjIsIC00LjQ5OTUxMzI2NzgwNTc4NyAtNS4zNjIzMTExMDE4MzI4MzYgQy00LjE4OTEyODA4NDE2Njk3OSAtNS42MjI3NTUxOTQ5NDcwNTMsIC0zLjg1MDg5NTM3NzQyMTAyOSAtNS44NTk1ODgyODU4Nzk2NDMsIC0zLjUwMDAwMDAwMDAwMDAxNCAtNi4wNjIxNzc4MjY0OTEwNjIgQy0zLjE0OTEwNDYyMjU3ODk5OTQgLTYuMjY0NzY3MzY3MTAyNDgyLCAtMi43NzQ4ODQ3OTYwMDE2MTA1IC02LjQzOTI2ODkzODA2ODk1NCwgLTIuMzk0MTQxMDAzMjc5Njk3IC02LjU3Nzg0ODM0NTUwMTM1MyBDLTIuMDEzMzk3MjEwNTU3NzgzIC02LjcxNjQyNzc1MjkzMzc1MiwgLTEuNjE0NTYwNzQ0MjE1MTQzNSAtNi44MjMyOTU2NjIwMDIzNDUsIC0xLjIxNTUzNzI0MzY2ODUzMDggLTYuODkzNjU0MjcxMDg1NDUzIEMtMC44MTY1MTM3NDMxMjE5MTggLTYuOTY0MDEyODgwMTY4NTYxNSwgLTAuNDA1MTc5MDgxMjIyODU2OTUgLTYuOTk5OTk5OTk5OTk5OTk5LCAtMS45OTM3NjI1OTUyODA3MzUyZS0xNCAtNyBDMC40MDUxNzkwODEyMjI4MTcxIC03LjAwMDAwMDAwMDAwMDAwMSwgMC44MTY1MTM3NDMxMjE4Nzc5IC02Ljk2NDAxMjg4MDE2ODU2NSwgMS4yMTU1MzcyNDM2Njg0OTEzIC02Ljg5MzY1NDI3MTA4NTQ2IEMxLjYxNDU2MDc0NDIxNTEwNDYgLTYuODIzMjk1NjYyMDAyMzU0LCAyLjAxMzM5NzIxMDU1Nzc0NTMgLTYuNzE2NDI3NzUyOTMzNzYzLCAyLjM5NDE0MTAwMzI3OTY2IC02LjU3Nzg0ODM0NTUwMTM2NjUgQzIuNzc0ODg0Nzk2MDAxNTc0NiAtNi40MzkyNjg5MzgwNjg5NywgMy4xNDkxMDQ2MjI1Nzg5NjMgLTYuMjY0NzY3MzY3MTAyNSwgMy40OTk5OTk5OTk5OTk5Nzg3IC02LjA2MjE3NzgyNjQ5MTA4MyBDMy44NTA4OTUzNzc0MjA5OTQ0IC01Ljg1OTU4ODI4NTg3OTY2NSwgNC4xODkxMjgwODQxNjY5NDcgLTUuNjIyNzU1MTk0OTQ3MDc4LCA0LjQ5OTUxMzI2NzgwNTc1NiAtNS4zNjIzMTExMDE4MzI4NjMgQzQuODA5ODk4NDUxNDQ0NTY0IC01LjEwMTg2NzAwODcxODY0OCwgNS4xMDE4NjcwMDg3MTg2MTMgLTQuODA5ODk4NDUxNDQ0NjAyLCA1LjM2MjMxMTEwMTgzMjgyOSAtNC40OTk1MTMyNjc4MDU3OTYgQzUuNjIyNzU1MTk0OTQ3MDQ2IC00LjE4OTEyODA4NDE2Njk4OSwgNS44NTk1ODgyODU4Nzk2MzcgLTMuODUwODk1Mzc3NDIxMDM5MywgNi4wNjIxNzc4MjY0OTEwNTYgLTMuNTAwMDAwMDAwMDAwMDI1IEM2LjI2NDc2NzM2NzEwMjQ3NTUgLTMuMTQ5MTA0NjIyNTc5MDEwNSwgNi40MzkyNjg5MzgwNjg5NDkgLTIuNzc0ODg0Nzk2MDAxNjIyNSwgNi41Nzc4NDgzNDU1MDEzNDggLTIuMzk0MTQxMDAzMjc5NzA5IEM2LjcxNjQyNzc1MjkzMzc0NyAtMi4wMTMzOTcyMTA1NTc3OTUsIDYuODIzMjk1NjYyMDAyMzQyIC0xLjYxNDU2MDc0NDIxNTE1NjIsIDYuODkzNjU0MjcxMDg1NDUxIC0xLjIxNTUzNzI0MzY2ODU0MzQgQzYuOTY0MDEyODgwMTY4NTYgLTAuODE2NTEzNzQzMTIxOTMwNywgNi45ODIyNzU3MTE4NDc1NzUgLTAuMjAyNTg5NTQwNjExNDU2NywgNyAtMy4yODAwNzUwMjA4MzEwNjc1ZS0xNCBDNy4wMTc3MjQyODgxNTI0MjUgMC4yMDI1ODk1NDA2MTEzOTExLCA3LjAxNzcyNDI4ODE1MjQyNCAtMC4yMDI1ODk1NDA2MTE0MjQyLCA3IDAiPjwvcGF0aD48cGF0aCBzdHlsZT0iIiBmaWxsPSJub25lIiBzdHJva2Utd2lkdGg9IjIiIHN0cm9rZT0iIzY2NiIgZD0iTTcgMCBDNyAwLjQwNTE3OTA4MTIyMjgzNzQ3LCA2Ljk2NDAxMjg4MDE2ODU2MyAwLjgxNjUxMzc0MzEyMTg5OSwgNi44OTM2NTQyNzEwODU0NTYgMS4yMTU1MzcyNDM2Njg1MTIzIEM2LjgyMzI5NTY2MjAwMjM0OSAxLjYxNDU2MDc0NDIxNTEyNTcsIDYuNzE2NDI3NzUyOTMzNzU2IDIuMDEzMzk3MjEwNTU3NzY2LCA2LjU3Nzg0ODM0NTUwMTM1ODYgMi4zOTQxNDEwMDMyNzk2ODEgQzYuNDM5MjY4OTM4MDY4OTYxIDIuNzc0ODg0Nzk2MDAxNTk1NCwgNi4yNjQ3NjczNjcxMDI0OSAzLjE0OTEwNDYyMjU3ODk4NCwgNi4wNjIxNzc4MjY0OTEwNzEgMy40OTk5OTk5OTk5OTk5OTk2IEM1Ljg1OTU4ODI4NTg3OTY1MyAzLjg1MDg5NTM3NzQyMTAxNTMsIDUuNjIyNzU1MTk0OTQ3MDYzIDQuMTg5MTI4MDg0MTY2OTY3LCA1LjM2MjMxMTEwMTgzMjg0NiA0LjQ5OTUxMzI2NzgwNTc3NCBDNS4xMDE4NjcwMDg3MTg2MyA0LjgwOTg5ODQ1MTQ0NDU4MiwgNC44MDk4OTg0NTE0NDQ1ODMgNS4xMDE4NjcwMDg3MTg2MywgNC40OTk1MTMyNjc4MDU3NzUgNS4zNjIzMTExMDE4MzI4NDYgQzQuMTg5MTI4MDg0MTY2OTY4IDUuNjIyNzU1MTk0OTQ3MDYzLCAzLjg1MDg5NTM3NzQyMTAxNjYgNS44NTk1ODgyODU4Nzk2NTIsIDMuNTAwMDAwMDAwMDAwMDAxIDYuMDYyMTc3ODI2NDkxMDcgQzMuMTQ5MTA0NjIyNTc4OTg1IDYuMjY0NzY3MzY3MTAyNDg5LCAyLjc3NDg4NDc5NjAwMTU5NjMgNi40MzkyNjg5MzgwNjg5NjEsIDIuMzk0MTQxMDAzMjc5NjgxNyA2LjU3Nzg0ODM0NTUwMTM1ODYgQzIuMDEzMzk3MjEwNTU3NzY3IDYuNzE2NDI3NzUyOTMzNzU2LCAxLjYxNDU2MDc0NDIxNTEyNjQgNi44MjMyOTU2NjIwMDIzNDksIDEuMjE1NTM3MjQzNjY4NTEyOCA2Ljg5MzY1NDI3MTA4NTQ1NiBDMC44MTY1MTM3NDMxMjE4OTkyIDYuOTY0MDEyODgwMTY4NTYzLCAwLjQwNTE3OTA4MTIyMjgzNzkgNywgNC4yODYyNjM3OTcwMTU3MzZlLTE2IDcgQy0wLjQwNTE3OTA4MTIyMjgzNyA3LCAtMC44MTY1MTM3NDMxMjE4OTg1IDYuOTY0MDEyODgwMTY4NTYzLCAtMS4yMTU1MzcyNDM2Njg1MTIxIDYuODkzNjU0MjcxMDg1NDU2IEMtMS42MTQ1NjA3NDQyMTUxMjU3IDYuODIzMjk1NjYyMDAyMzQ5LCAtMi4wMTMzOTcyMTA1NTc3NjY3IDYuNzE2NDI3NzUyOTMzNzU2LCAtMi4zOTQxNDEwMDMyNzk2ODEgNi41Nzc4NDgzNDU1MDEzNTg2IEMtMi43NzQ4ODQ3OTYwMDE1OTUgNi40MzkyNjg5MzgwNjg5NjEsIC0zLjE0OTEwNDYyMjU3ODk4MyA2LjI2NDc2NzM2NzEwMjQ5LCAtMy40OTk5OTk5OTk5OTk5OTgyIDYuMDYyMTc3ODI2NDkxMDcxIEMtMy44NTA4OTUzNzc0MjEwMTM1IDUuODU5NTg4Mjg1ODc5NjUzLCAtNC4xODkxMjgwODQxNjY5NjUgNS42MjI3NTUxOTQ5NDcwNjM2LCAtNC40OTk1MTMyNjc4MDU3NzI1IDUuMzYyMzExMTAxODMyODQ4IEMtNC44MDk4OTg0NTE0NDQ1OCA1LjEwMTg2NzAwODcxODYzMiwgLTUuMTAxODY3MDA4NzE4NjI3IDQuODA5ODk4NDUxNDQ0NTg2LCAtNS4zNjIzMTExMDE4MzI4NDMgNC40OTk1MTMyNjc4MDU3NzkgQy01LjYyMjc1NTE5NDk0NzA1OCA0LjE4OTEyODA4NDE2Njk3MSwgLTUuODU5NTg4Mjg1ODc5NjQ5IDMuODUwODk1Mzc3NDIxMDIwNiwgLTYuMDYyMTc3ODI2NDkxMDY4IDMuNTAwMDAwMDAwMDAwMDA1MyBDLTYuMjY0NzY3MzY3MTAyNDg2IDMuMTQ5MTA0NjIyNTc4OTksIC02LjQzOTI2ODkzODA2ODk1OCAyLjc3NDg4NDc5NjAwMTYwMiwgLTYuNTc3ODQ4MzQ1NTAxMzU2IDIuMzk0MTQxMDAzMjc5Njg4IEMtNi43MTY0Mjc3NTI5MzM3NTQgMi4wMTMzOTcyMTA1NTc3NzM4LCAtNi44MjMyOTU2NjIwMDIzNDcgMS42MTQ1NjA3NDQyMTUxMzQsIC02Ljg5MzY1NDI3MTA4NTQ1NCAxLjIxNTUzNzI0MzY2ODUyMSBDLTYuOTY0MDEyODgwMTY4NTYxNSAwLjgxNjUxMzc0MzEyMTkwOCwgLTYuOTk5OTk5OTk5OTk5OTk5IDAuNDA1MTc5MDgxMjIyODQ3MiwgLTcgMS4wMTgzMTI2MTY2MjU0NDYzZS0xNCBDLTcuMDAwMDAwMDAwMDAwMDAxIC0wLjQwNTE3OTA4MTIyMjgyNjg2LCAtNi45NjQwMTI4ODAxNjg1NjUgLTAuODE2NTEzNzQzMTIxODg3OCwgLTYuODkzNjU0MjcxMDg1NDU5IC0xLjIxNTUzNzI0MzY2ODUwMSBDLTYuODIzMjk1NjYyMDAyMzUyIC0xLjYxNDU2MDc0NDIxNTExNDIsIC02LjcxNjQyNzc1MjkzMzc1OSAtMi4wMTMzOTcyMTA1NTc3NTQyLCAtNi41Nzc4NDgzNDU1MDEzNjMgLTIuMzk0MTQxMDAzMjc5NjY5IEMtNi40MzkyNjg5MzgwNjg5NjcgLTIuNzc0ODg0Nzk2MDAxNTgzNCwgLTYuMjY0NzY3MzY3MTAyNDk2IC0zLjE0OTEwNDYyMjU3ODk3MiwgLTYuMDYyMTc3ODI2NDkxMDc4IC0zLjQ5OTk5OTk5OTk5OTk4NzYgQy01Ljg1OTU4ODI4NTg3OTY2MSAtMy44NTA4OTUzNzc0MjEwMDMzLCAtNS42MjI3NTUxOTQ5NDcwNzE1IC00LjE4OTEyODA4NDE2Njk1NDUsIC01LjM2MjMxMTEwMTgzMjg1NiAtNC40OTk1MTMyNjc4MDU3NjMgQy01LjEwMTg2NzAwODcxODY0IC00LjgwOTg5ODQ1MTQ0NDU3MSwgLTQuODA5ODk4NDUxNDQ0NTk0IC01LjEwMTg2NzAwODcxODYyLCAtNC40OTk1MTMyNjc4MDU3ODcgLTUuMzYyMzExMTAxODMyODM2IEMtNC4xODkxMjgwODQxNjY5NzkgLTUuNjIyNzU1MTk0OTQ3MDUzLCAtMy44NTA4OTUzNzc0MjEwMjkgLTUuODU5NTg4Mjg1ODc5NjQzLCAtMy41MDAwMDAwMDAwMDAwMTQgLTYuMDYyMTc3ODI2NDkxMDYyIEMtMy4xNDkxMDQ2MjI1Nzg5OTk0IC02LjI2NDc2NzM2NzEwMjQ4MiwgLTIuNzc0ODg0Nzk2MDAxNjEwNSAtNi40MzkyNjg5MzgwNjg5NTQsIC0yLjM5NDE0MTAwMzI3OTY5NyAtNi41Nzc4NDgzNDU1MDEzNTMgQy0yLjAxMzM5NzIxMDU1Nzc4MyAtNi43MTY0Mjc3NTI5MzM3NTIsIC0xLjYxNDU2MDc0NDIxNTE0MzUgLTYuODIzMjk1NjYyMDAyMzQ1LCAtMS4yMTU1MzcyNDM2Njg1MzA4IC02Ljg5MzY1NDI3MTA4NTQ1MyBDLTAuODE2NTEzNzQzMTIxOTE4IC02Ljk2NDAxMjg4MDE2ODU2MTUsIC0wLjQwNTE3OTA4MTIyMjg1Njk1IC02Ljk5OTk5OTk5OTk5OTk5OSwgLTEuOTkzNzYyNTk1MjgwNzM1MmUtMTQgLTcgQzAuNDA1MTc5MDgxMjIyODE3MSAtNy4wMDAwMDAwMDAwMDAwMDEsIDAuODE2NTEzNzQzMTIxODc3OSAtNi45NjQwMTI4ODAxNjg1NjUsIDEuMjE1NTM3MjQzNjY4NDkxMyAtNi44OTM2NTQyNzEwODU0NiBDMS42MTQ1NjA3NDQyMTUxMDQ2IC02LjgyMzI5NTY2MjAwMjM1NCwgMi4wMTMzOTcyMTA1NTc3NDUzIC02LjcxNjQyNzc1MjkzMzc2MywgMi4zOTQxNDEwMDMyNzk2NiAtNi41Nzc4NDgzNDU1MDEzNjY1IEMyLjc3NDg4NDc5NjAwMTU3NDYgLTYuNDM5MjY4OTM4MDY4OTcsIDMuMTQ5MTA0NjIyNTc4OTYzIC02LjI2NDc2NzM2NzEwMjUsIDMuNDk5OTk5OTk5OTk5OTc4NyAtNi4wNjIxNzc4MjY0OTEwODMgQzMuODUwODk1Mzc3NDIwOTk0NCAtNS44NTk1ODgyODU4Nzk2NjUsIDQuMTg5MTI4MDg0MTY2OTQ3IC01LjYyMjc1NTE5NDk0NzA3OCwgNC40OTk1MTMyNjc4MDU3NTYgLTUuMzYyMzExMTAxODMyODYzIEM0LjgwOTg5ODQ1MTQ0NDU2NCAtNS4xMDE4NjcwMDg3MTg2NDgsIDUuMTAxODY3MDA4NzE4NjEzIC00LjgwOTg5ODQ1MTQ0NDYwMiwgNS4zNjIzMTExMDE4MzI4MjkgLTQuNDk5NTEzMjY3ODA1Nzk2IEM1LjYyMjc1NTE5NDk0NzA0NiAtNC4xODkxMjgwODQxNjY5ODksIDUuODU5NTg4Mjg1ODc5NjM3IC0zLjg1MDg5NTM3NzQyMTAzOTMsIDYuMDYyMTc3ODI2NDkxMDU2IC0zLjUwMDAwMDAwMDAwMDAyNSBDNi4yNjQ3NjczNjcxMDI0NzU1IC0zLjE0OTEwNDYyMjU3OTAxMDUsIDYuNDM5MjY4OTM4MDY4OTQ5IC0yLjc3NDg4NDc5NjAwMTYyMjUsIDYuNTc3ODQ4MzQ1NTAxMzQ4IC0yLjM5NDE0MTAwMzI3OTcwOSBDNi43MTY0Mjc3NTI5MzM3NDcgLTIuMDEzMzk3MjEwNTU3Nzk1LCA2LjgyMzI5NTY2MjAwMjM0MiAtMS42MTQ1NjA3NDQyMTUxNTYyLCA2Ljg5MzY1NDI3MTA4NTQ1MSAtMS4yMTU1MzcyNDM2Njg1NDM0IEM2Ljk2NDAxMjg4MDE2ODU2IC0wLjgxNjUxMzc0MzEyMTkzMDcsIDYuOTgyMjc1NzExODQ3NTc1IC0wLjIwMjU4OTU0MDYxMTQ1NjcsIDcgLTMuMjgwMDc1MDIwODMxMDY3NWUtMTQgQzcuMDE3NzI0Mjg4MTUyNDI1IDAuMjAyNTg5NTQwNjExMzkxMSwgNy4wMTc3MjQyODgxNTI0MjQgLTAuMjAyNTg5NTQwNjExNDI0MiwgNyAwIj48L3BhdGg+PGc+PHBhdGggc3R5bGU9IiIgZmlsbD0iIzAwMCIgc3Ryb2tlLXdpZHRoPSIwIiBzdHJva2U9Im5vbmUiIGQ9Ik0yLjUgMCBDMi41IDAuMTQ0NzA2ODE0NzIyNDQxOTMsIDIuNDg3MTQ3NDU3MjAzMDU4IDAuMjkxNjEyMDUxMTE0OTYzODYsIDIuNDYyMDE5MzgyNTMwNTIgMC40MzQxMjA0NDQxNjczMjU4IEMyLjQzNjg5MTMwNzg1Nzk4MiAwLjU3NjYyODgzNzIxOTY4NzcsIDIuMzk4NzI0MTk3NDc2MzQxNiAwLjcxOTA3MDQzMjM0MjA1OTUsIDIuMzQ5MjMxNTUxOTY0NzcxMyAwLjg1NTA1MDM1ODMxNDE3MTggQzIuMjk5NzM4OTA2NDUzMjAxIDAuOTkxMDMwMjg0Mjg2Mjg0LCAyLjIzNzQxNjkxNjgyMjMxNzcgMS4xMjQ2ODAyMjIzNDk2MzcsIDIuMTY1MDYzNTA5NDYxMDk3IDEuMjQ5OTk5OTk5OTk5OTk5OCBDMi4wOTI3MTAxMDIwOTk4NzYgMS4zNzUzMTk3Nzc2NTAzNjI1LCAyLjAwODEyNjg1NTMzODIzNjUgMS40OTYxMTcxNzI5MTY3NzQsIDEuOTE1MTExMTA3Nzk3NDQ1IDEuNjA2OTY5MDI0MjE2MzQ4MSBDMS44MjIwOTUzNjAyNTY2NTM2IDEuNzE3ODIwODc1NTE1OTIyMywgMS43MTc4MjA4NzU1MTU5MjI2IDEuODIyMDk1MzYwMjU2NjUzNiwgMS42MDY5NjkwMjQyMTYzNDg0IDEuOTE1MTExMTA3Nzk3NDQ1IEMxLjQ5NjExNzE3MjkxNjc3NDIgMi4wMDgxMjY4NTUzMzgyMzY1LCAxLjM3NTMxOTc3NzY1MDM2MyAyLjA5MjcxMDEwMjA5OTg3NTUsIDEuMjUwMDAwMDAwMDAwMDAwMiAyLjE2NTA2MzUwOTQ2MTA5NjQgQzEuMTI0NjgwMjIyMzQ5NjM3NSAyLjIzNzQxNjkxNjgyMjMxNzIsIDAuOTkxMDMwMjg0Mjg2Mjg0NSAyLjI5OTczODkwNjQ1MzIsIDAuODU1MDUwMzU4MzE0MTcyMSAyLjM0OTIzMTU1MTk2NDc3MSBDMC43MTkwNzA0MzIzNDIwNTk3IDIuMzk4NzI0MTk3NDc2MzQxNiwgMC41NzY2Mjg4MzcyMTk2ODggMi40MzY4OTEzMDc4NTc5ODIsIDAuNDM0MTIwNDQ0MTY3MzI2MDQgMi40NjIwMTkzODI1MzA1MiBDMC4yOTE2MTIwNTExMTQ5NjQgMi40ODcxNDc0NTcyMDMwNTgsIDAuMTQ0NzA2ODE0NzIyNDQyMTIgMi41LCAxLjUzMDgwODQ5ODkzNDE5MTZlLTE2IDIuNSBDLTAuMTQ0NzA2ODE0NzIyNDQxOCAyLjUsIC0wLjI5MTYxMjA1MTExNDk2MzggMi40ODcxNDc0NTcyMDMwNTgsIC0wLjQzNDEyMDQ0NDE2NzMyNTc2IDIuNDYyMDE5MzgyNTMwNTIgQy0wLjU3NjYyODgzNzIxOTY4NzcgMi40MzY4OTEzMDc4NTc5ODIsIC0wLjcxOTA3MDQzMjM0MjA1OTUgMi4zOTg3MjQxOTc0NzYzNDE2LCAtMC44NTUwNTAzNTgzMTQxNzE4IDIuMzQ5MjMxNTUxOTY0NzcxMyBDLTAuOTkxMDMwMjg0Mjg2Mjg0IDIuMjk5NzM4OTA2NDUzMjAxLCAtMS4xMjQ2ODAyMjIzNDk2MzcgMi4yMzc0MTY5MTY4MjIzMTgsIC0xLjI0OTk5OTk5OTk5OTk5OTYgMi4xNjUwNjM1MDk0NjEwOTczIEMtMS4zNzUzMTk3Nzc2NTAzNjIgMi4wOTI3MTAxMDIwOTk4NzY0LCAtMS40OTYxMTcxNzI5MTY3NzMzIDIuMDA4MTI2ODU1MzM4MjM3LCAtMS42MDY5NjkwMjQyMTYzNDcyIDEuOTE1MTExMTA3Nzk3NDQ1OSBDLTEuNzE3ODIwODc1NTE1OTIxMiAxLjgyMjA5NTM2MDI1NjY1NDUsIC0xLjgyMjA5NTM2MDI1NjY1MjUgMS43MTc4MjA4NzU1MTU5MjM0LCAtMS45MTUxMTExMDc3OTc0NDM5IDEuNjA2OTY5MDI0MjE2MzQ5NSBDLTIuMDA4MTI2ODU1MzM4MjM1IDEuNDk2MTE3MTcyOTE2Nzc1NSwgLTIuMDkyNzEwMTAyMDk5ODc0NiAxLjM3NTMxOTc3NzY1MDM2NDUsIC0yLjE2NTA2MzUwOTQ2MTA5NTUgMS4yNTAwMDAwMDAwMDAwMDIgQy0yLjIzNzQxNjkxNjgyMjMxNjQgMS4xMjQ2ODAyMjIzNDk2Mzk1LCAtMi4yOTk3Mzg5MDY0NTMxOTkyIDAuOTkxMDMwMjg0Mjg2Mjg2NSwgLTIuMzQ5MjMxNTUxOTY0NzcgMC44NTUwNTAzNTgzMTQxNzQzIEMtMi4zOTg3MjQxOTc0NzYzNDA3IDAuNzE5MDcwNDMyMzQyMDYyMSwgLTIuNDM2ODkxMzA3ODU3OTgxIDAuNTc2NjI4ODM3MjE5NjkwNywgLTIuNDYyMDE5MzgyNTMwNTE5NCAwLjQzNDEyMDQ0NDE2NzMyOSBDLTIuNDg3MTQ3NDU3MjAzMDU4IDAuMjkxNjEyMDUxMTE0OTY3MjQsIC0yLjUgMC4xNDQ3MDY4MTQ3MjI0NDU0NSwgLTIuNSAzLjYzNjgzMDc3MzY2MjMwOGUtMTUgQy0yLjUgLTAuMTQ0NzA2ODE0NzIyNDM4MTgsIC0yLjQ4NzE0NzQ1NzIwMzA1ODcgLTAuMjkxNjEyMDUxMTE0OTU5OSwgLTIuNDYyMDE5MzgyNTMwNTIwOCAtMC40MzQxMjA0NDQxNjczMjE4IEMtMi40MzY4OTEzMDc4NTc5ODMgLTAuNTc2NjI4ODM3MjE5NjgzNywgLTIuMzk4NzI0MTk3NDc2MzQzIC0wLjcxOTA3MDQzMjM0MjA1NTMsIC0yLjM0OTIzMTU1MTk2NDc3MjYgLTAuODU1MDUwMzU4MzE0MTY3NSBDLTIuMjk5NzM4OTA2NDUzMjAyMyAtMC45OTEwMzAyODQyODYyNzk4LCAtMi4yMzc0MTY5MTY4MjIzMiAtMS4xMjQ2ODAyMjIzNDk2MzI4LCAtMi4xNjUwNjM1MDk0NjEwOTkgLTEuMjQ5OTk5OTk5OTk5OTk1NiBDLTIuMDkyNzEwMTAyMDk5ODc4IC0xLjM3NTMxOTc3NzY1MDM1ODMsIC0yLjAwODEyNjg1NTMzODI0IC0xLjQ5NjExNzE3MjkxNjc2OTUsIC0xLjkxNTExMTEwNzc5NzQ0ODggLTEuNjA2OTY5MDI0MjE2MzQ0IEMtMS44MjIwOTUzNjAyNTY2NTc2IC0xLjcxNzgyMDg3NTUxNTkxODMsIC0xLjcxNzgyMDg3NTUxNTkyNjMgLTEuODIyMDk1MzYwMjU2NjUsIC0xLjYwNjk2OTAyNDIxNjM1MjMgLTEuOTE1MTExMTA3Nzk3NDQxNiBDLTEuNDk2MTE3MTcyOTE2Nzc4NCAtMi4wMDgxMjY4NTUzMzgyMzM0LCAtMS4zNzUzMTk3Nzc2NTAzNjc0IC0yLjA5MjcxMDEwMjA5OTg3MjQsIC0xLjI1MDAwMDAwMDAwMDAwNDkgLTIuMTY1MDYzNTA5NDYxMDkzNyBDLTEuMTI0NjgwMjIyMzQ5NjQyNCAtMi4yMzc0MTY5MTY4MjIzMTUsIC0wLjk5MTAzMDI4NDI4NjI4OTYgLTIuMjk5NzM4OTA2NDUzMTk4LCAtMC44NTUwNTAzNTgzMTQxNzc1IC0yLjM0OTIzMTU1MTk2NDc2ODYgQy0wLjcxOTA3MDQzMjM0MjA2NTUgLTIuMzk4NzI0MTk3NDc2MzM5NCwgLTAuNTc2NjI4ODM3MjE5Njk0MiAtMi40MzY4OTEzMDc4NTc5ODA2LCAtMC40MzQxMjA0NDQxNjczMzI0IC0yLjQ2MjAxOTM4MjUzMDUxOSBDLTAuMjkxNjEyMDUxMTE0OTcwNyAtMi40ODcxNDc0NTcyMDMwNTc0LCAtMC4xNDQ3MDY4MTQ3MjI0NDg5MiAtMi40OTk5OTk5OTk5OTk5OTk2LCAtNy4xMjA1ODA2OTc0MzExOThlLTE1IC0yLjUgQzAuMTQ0NzA2ODE0NzIyNDM0NjYgLTIuNTAwMDAwMDAwMDAwMDAwNCwgMC4yOTE2MTIwNTExMTQ5NTY0IC0yLjQ4NzE0NzQ1NzIwMzA1OSwgMC40MzQxMjA0NDQxNjczMTgzIC0yLjQ2MjAxOTM4MjUzMDUyMTcgQzAuNTc2NjI4ODM3MjE5NjgwMiAtMi40MzY4OTEzMDc4NTc5ODQsIDAuNzE5MDcwNDMyMzQyMDUxOSAtMi4zOTg3MjQxOTc0NzYzNDQyLCAwLjg1NTA1MDM1ODMxNDE2NDMgLTIuMzQ5MjMxNTUxOTY0Nzc0IEMwLjk5MTAzMDI4NDI4NjI3NjcgLTIuMjk5NzM4OTA2NDUzMjAzNywgMS4xMjQ2ODAyMjIzNDk2Mjk3IC0yLjIzNzQxNjkxNjgyMjMyMTIsIDEuMjQ5OTk5OTk5OTk5OTkyNSAtMi4xNjUwNjM1MDk0NjExMDEgQzEuMzc1MzE5Nzc3NjUwMzU1MiAtMi4wOTI3MTAxMDIwOTk4ODA0LCAxLjQ5NjExNzE3MjkxNjc2NjggLTIuMDA4MTI2ODU1MzM4MjQyLCAxLjYwNjk2OTAyNDIxNjM0MTIgLTEuOTE1MTExMTA3Nzk3NDUxMiBDMS43MTc4MjA4NzU1MTU5MTU3IC0xLjgyMjA5NTM2MDI1NjY2MDMsIDEuODIyMDk1MzYwMjU2NjQ3MiAtMS43MTc4MjA4NzU1MTU5Mjk0LCAxLjkxNTExMTEwNzc5NzQzOSAtMS42MDY5NjkwMjQyMTYzNTU3IEMyLjAwODEyNjg1NTMzODIzMDggLTEuNDk2MTE3MTcyOTE2NzgyLCAyLjA5MjcxMDEwMjA5OTg3IC0xLjM3NTMxOTc3NzY1MDM3MTIsIDIuMTY1MDYzNTA5NDYxMDkxNSAtMS4yNTAwMDAwMDAwMDAwMDg5IEMyLjIzNzQxNjkxNjgyMjMxMyAtMS4xMjQ2ODAyMjIzNDk2NDY2LCAyLjI5OTczODkwNjQ1MzE5NiAtMC45OTEwMzAyODQyODYyOTM3LCAyLjM0OTIzMTU1MTk2NDc2NzMgLTAuODU1MDUwMzU4MzE0MTgxNyBDMi4zOTg3MjQxOTc0NzYzMzg1IC0wLjcxOTA3MDQzMjM0MjA2OTgsIDIuNDM2ODkxMzA3ODU3OTc5MiAtMC41NzY2Mjg4MzcyMTk2OTg2LCAyLjQ2MjAxOTM4MjUzMDUxOCAtMC40MzQxMjA0NDQxNjczMzY5IEMyLjQ4NzE0NzQ1NzIwMzA1NyAtMC4yOTE2MTIwNTExMTQ5NzUyMywgMi40OTM2Njk4OTcwODg0MTk3IC0wLjA3MjM1MzQwNzM2MTIzNDU0LCAyLjUgLTEuMTcxNDU1MzY0NTgyNTI0MWUtMTQgQzIuNTA2MzMwMTAyOTExNTgwMyAwLjA3MjM1MzQwNzM2MTIxMTExLCAyLjUwNjMzMDEwMjkxMTU4IC0wLjA3MjM1MzQwNzM2MTIyMjkyLCAyLjUgMCI+PC9wYXRoPjxwYXRoIHN0eWxlPSIiIGZpbGw9Im5vbmUiIHN0cm9rZS13aWR0aD0iMiIgc3Ryb2tlPSIjMDAwIiBkPSJNMi41IDAgQzIuNSAwLjE0NDcwNjgxNDcyMjQ0MTkzLCAyLjQ4NzE0NzQ1NzIwMzA1OCAwLjI5MTYxMjA1MTExNDk2Mzg2LCAyLjQ2MjAxOTM4MjUzMDUyIDAuNDM0MTIwNDQ0MTY3MzI1OCBDMi40MzY4OTEzMDc4NTc5ODIgMC41NzY2Mjg4MzcyMTk2ODc3LCAyLjM5ODcyNDE5NzQ3NjM0MTYgMC43MTkwNzA0MzIzNDIwNTk1LCAyLjM0OTIzMTU1MTk2NDc3MTMgMC44NTUwNTAzNTgzMTQxNzE4IEMyLjI5OTczODkwNjQ1MzIwMSAwLjk5MTAzMDI4NDI4NjI4NCwgMi4yMzc0MTY5MTY4MjIzMTc3IDEuMTI0NjgwMjIyMzQ5NjM3LCAyLjE2NTA2MzUwOTQ2MTA5NyAxLjI0OTk5OTk5OTk5OTk5OTggQzIuMDkyNzEwMTAyMDk5ODc2IDEuMzc1MzE5Nzc3NjUwMzYyNSwgMi4wMDgxMjY4NTUzMzgyMzY1IDEuNDk2MTE3MTcyOTE2Nzc0LCAxLjkxNTExMTEwNzc5NzQ0NSAxLjYwNjk2OTAyNDIxNjM0ODEgQzEuODIyMDk1MzYwMjU2NjUzNiAxLjcxNzgyMDg3NTUxNTkyMjMsIDEuNzE3ODIwODc1NTE1OTIyNiAxLjgyMjA5NTM2MDI1NjY1MzYsIDEuNjA2OTY5MDI0MjE2MzQ4NCAxLjkxNTExMTEwNzc5NzQ0NSBDMS40OTYxMTcxNzI5MTY3NzQyIDIuMDA4MTI2ODU1MzM4MjM2NSwgMS4zNzUzMTk3Nzc2NTAzNjMgMi4wOTI3MTAxMDIwOTk4NzU1LCAxLjI1MDAwMDAwMDAwMDAwMDIgMi4xNjUwNjM1MDk0NjEwOTY0IEMxLjEyNDY4MDIyMjM0OTYzNzUgMi4yMzc0MTY5MTY4MjIzMTcyLCAwLjk5MTAzMDI4NDI4NjI4NDUgMi4yOTk3Mzg5MDY0NTMyLCAwLjg1NTA1MDM1ODMxNDE3MjEgMi4zNDkyMzE1NTE5NjQ3NzEgQzAuNzE5MDcwNDMyMzQyMDU5NyAyLjM5ODcyNDE5NzQ3NjM0MTYsIDAuNTc2NjI4ODM3MjE5Njg4IDIuNDM2ODkxMzA3ODU3OTgyLCAwLjQzNDEyMDQ0NDE2NzMyNjA0IDIuNDYyMDE5MzgyNTMwNTIgQzAuMjkxNjEyMDUxMTE0OTY0IDIuNDg3MTQ3NDU3MjAzMDU4LCAwLjE0NDcwNjgxNDcyMjQ0MjEyIDIuNSwgMS41MzA4MDg0OTg5MzQxOTE2ZS0xNiAyLjUgQy0wLjE0NDcwNjgxNDcyMjQ0MTggMi41LCAtMC4yOTE2MTIwNTExMTQ5NjM4IDIuNDg3MTQ3NDU3MjAzMDU4LCAtMC40MzQxMjA0NDQxNjczMjU3NiAyLjQ2MjAxOTM4MjUzMDUyIEMtMC41NzY2Mjg4MzcyMTk2ODc3IDIuNDM2ODkxMzA3ODU3OTgyLCAtMC43MTkwNzA0MzIzNDIwNTk1IDIuMzk4NzI0MTk3NDc2MzQxNiwgLTAuODU1MDUwMzU4MzE0MTcxOCAyLjM0OTIzMTU1MTk2NDc3MTMgQy0wLjk5MTAzMDI4NDI4NjI4NCAyLjI5OTczODkwNjQ1MzIwMSwgLTEuMTI0NjgwMjIyMzQ5NjM3IDIuMjM3NDE2OTE2ODIyMzE4LCAtMS4yNDk5OTk5OTk5OTk5OTk2IDIuMTY1MDYzNTA5NDYxMDk3MyBDLTEuMzc1MzE5Nzc3NjUwMzYyIDIuMDkyNzEwMTAyMDk5ODc2NCwgLTEuNDk2MTE3MTcyOTE2NzczMyAyLjAwODEyNjg1NTMzODIzNywgLTEuNjA2OTY5MDI0MjE2MzQ3MiAxLjkxNTExMTEwNzc5NzQ0NTkgQy0xLjcxNzgyMDg3NTUxNTkyMTIgMS44MjIwOTUzNjAyNTY2NTQ1LCAtMS44MjIwOTUzNjAyNTY2NTI1IDEuNzE3ODIwODc1NTE1OTIzNCwgLTEuOTE1MTExMTA3Nzk3NDQzOSAxLjYwNjk2OTAyNDIxNjM0OTUgQy0yLjAwODEyNjg1NTMzODIzNSAxLjQ5NjExNzE3MjkxNjc3NTUsIC0yLjA5MjcxMDEwMjA5OTg3NDYgMS4zNzUzMTk3Nzc2NTAzNjQ1LCAtMi4xNjUwNjM1MDk0NjEwOTU1IDEuMjUwMDAwMDAwMDAwMDAyIEMtMi4yMzc0MTY5MTY4MjIzMTY0IDEuMTI0NjgwMjIyMzQ5NjM5NSwgLTIuMjk5NzM4OTA2NDUzMTk5MiAwLjk5MTAzMDI4NDI4NjI4NjUsIC0yLjM0OTIzMTU1MTk2NDc3IDAuODU1MDUwMzU4MzE0MTc0MyBDLTIuMzk4NzI0MTk3NDc2MzQwNyAwLjcxOTA3MDQzMjM0MjA2MjEsIC0yLjQzNjg5MTMwNzg1Nzk4MSAwLjU3NjYyODgzNzIxOTY5MDcsIC0yLjQ2MjAxOTM4MjUzMDUxOTQgMC40MzQxMjA0NDQxNjczMjkgQy0yLjQ4NzE0NzQ1NzIwMzA1OCAwLjI5MTYxMjA1MTExNDk2NzI0LCAtMi41IDAuMTQ0NzA2ODE0NzIyNDQ1NDUsIC0yLjUgMy42MzY4MzA3NzM2NjIzMDhlLTE1IEMtMi41IC0wLjE0NDcwNjgxNDcyMjQzODE4LCAtMi40ODcxNDc0NTcyMDMwNTg3IC0wLjI5MTYxMjA1MTExNDk1OTksIC0yLjQ2MjAxOTM4MjUzMDUyMDggLTAuNDM0MTIwNDQ0MTY3MzIxOCBDLTIuNDM2ODkxMzA3ODU3OTgzIC0wLjU3NjYyODgzNzIxOTY4MzcsIC0yLjM5ODcyNDE5NzQ3NjM0MyAtMC43MTkwNzA0MzIzNDIwNTUzLCAtMi4zNDkyMzE1NTE5NjQ3NzI2IC0wLjg1NTA1MDM1ODMxNDE2NzUgQy0yLjI5OTczODkwNjQ1MzIwMjMgLTAuOTkxMDMwMjg0Mjg2Mjc5OCwgLTIuMjM3NDE2OTE2ODIyMzIgLTEuMTI0NjgwMjIyMzQ5NjMyOCwgLTIuMTY1MDYzNTA5NDYxMDk5IC0xLjI0OTk5OTk5OTk5OTk5NTYgQy0yLjA5MjcxMDEwMjA5OTg3OCAtMS4zNzUzMTk3Nzc2NTAzNTgzLCAtMi4wMDgxMjY4NTUzMzgyNCAtMS40OTYxMTcxNzI5MTY3Njk1LCAtMS45MTUxMTExMDc3OTc0NDg4IC0xLjYwNjk2OTAyNDIxNjM0NCBDLTEuODIyMDk1MzYwMjU2NjU3NiAtMS43MTc4MjA4NzU1MTU5MTgzLCAtMS43MTc4MjA4NzU1MTU5MjYzIC0xLjgyMjA5NTM2MDI1NjY1LCAtMS42MDY5NjkwMjQyMTYzNTIzIC0xLjkxNTExMTEwNzc5NzQ0MTYgQy0xLjQ5NjExNzE3MjkxNjc3ODQgLTIuMDA4MTI2ODU1MzM4MjMzNCwgLTEuMzc1MzE5Nzc3NjUwMzY3NCAtMi4wOTI3MTAxMDIwOTk4NzI0LCAtMS4yNTAwMDAwMDAwMDAwMDQ5IC0yLjE2NTA2MzUwOTQ2MTA5MzcgQy0xLjEyNDY4MDIyMjM0OTY0MjQgLTIuMjM3NDE2OTE2ODIyMzE1LCAtMC45OTEwMzAyODQyODYyODk2IC0yLjI5OTczODkwNjQ1MzE5OCwgLTAuODU1MDUwMzU4MzE0MTc3NSAtMi4zNDkyMzE1NTE5NjQ3Njg2IEMtMC43MTkwNzA0MzIzNDIwNjU1IC0yLjM5ODcyNDE5NzQ3NjMzOTQsIC0wLjU3NjYyODgzNzIxOTY5NDIgLTIuNDM2ODkxMzA3ODU3OTgwNiwgLTAuNDM0MTIwNDQ0MTY3MzMyNCAtMi40NjIwMTkzODI1MzA1MTkgQy0wLjI5MTYxMjA1MTExNDk3MDcgLTIuNDg3MTQ3NDU3MjAzMDU3NCwgLTAuMTQ0NzA2ODE0NzIyNDQ4OTIgLTIuNDk5OTk5OTk5OTk5OTk5NiwgLTcuMTIwNTgwNjk3NDMxMTk4ZS0xNSAtMi41IEMwLjE0NDcwNjgxNDcyMjQzNDY2IC0yLjUwMDAwMDAwMDAwMDAwMDQsIDAuMjkxNjEyMDUxMTE0OTU2NCAtMi40ODcxNDc0NTcyMDMwNTksIDAuNDM0MTIwNDQ0MTY3MzE4MyAtMi40NjIwMTkzODI1MzA1MjE3IEMwLjU3NjYyODgzNzIxOTY4MDIgLTIuNDM2ODkxMzA3ODU3OTg0LCAwLjcxOTA3MDQzMjM0MjA1MTkgLTIuMzk4NzI0MTk3NDc2MzQ0MiwgMC44NTUwNTAzNTgzMTQxNjQzIC0yLjM0OTIzMTU1MTk2NDc3NCBDMC45OTEwMzAyODQyODYyNzY3IC0yLjI5OTczODkwNjQ1MzIwMzcsIDEuMTI0NjgwMjIyMzQ5NjI5NyAtMi4yMzc0MTY5MTY4MjIzMjEyLCAxLjI0OTk5OTk5OTk5OTk5MjUgLTIuMTY1MDYzNTA5NDYxMTAxIEMxLjM3NTMxOTc3NzY1MDM1NTIgLTIuMDkyNzEwMTAyMDk5ODgwNCwgMS40OTYxMTcxNzI5MTY3NjY4IC0yLjAwODEyNjg1NTMzODI0MiwgMS42MDY5NjkwMjQyMTYzNDEyIC0xLjkxNTExMTEwNzc5NzQ1MTIgQzEuNzE3ODIwODc1NTE1OTE1NyAtMS44MjIwOTUzNjAyNTY2NjAzLCAxLjgyMjA5NTM2MDI1NjY0NzIgLTEuNzE3ODIwODc1NTE1OTI5NCwgMS45MTUxMTExMDc3OTc0MzkgLTEuNjA2OTY5MDI0MjE2MzU1NyBDMi4wMDgxMjY4NTUzMzgyMzA4IC0xLjQ5NjExNzE3MjkxNjc4MiwgMi4wOTI3MTAxMDIwOTk4NyAtMS4zNzUzMTk3Nzc2NTAzNzEyLCAyLjE2NTA2MzUwOTQ2MTA5MTUgLTEuMjUwMDAwMDAwMDAwMDA4OSBDMi4yMzc0MTY5MTY4MjIzMTMgLTEuMTI0NjgwMjIyMzQ5NjQ2NiwgMi4yOTk3Mzg5MDY0NTMxOTYgLTAuOTkxMDMwMjg0Mjg2MjkzNywgMi4zNDkyMzE1NTE5NjQ3NjczIC0wLjg1NTA1MDM1ODMxNDE4MTcgQzIuMzk4NzI0MTk3NDc2MzM4NSAtMC43MTkwNzA0MzIzNDIwNjk4LCAyLjQzNjg5MTMwNzg1Nzk3OTIgLTAuNTc2NjI4ODM3MjE5Njk4NiwgMi40NjIwMTkzODI1MzA1MTggLTAuNDM0MTIwNDQ0MTY3MzM2OSBDMi40ODcxNDc0NTcyMDMwNTcgLTAuMjkxNjEyMDUxMTE0OTc1MjMsIDIuNDkzNjY5ODk3MDg4NDE5NyAtMC4wNzIzNTM0MDczNjEyMzQ1NCwgMi41IC0xLjE3MTQ1NTM2NDU4MjUyNDFlLTE0IEMyLjUwNjMzMDEwMjkxMTU4MDMgMC4wNzIzNTM0MDczNjEyMTExMSwgMi41MDYzMzAxMDI5MTE1OCAtMC4wNzIzNTM0MDczNjEyMjI5MiwgMi41IDAiPjwvcGF0aD48L2c+PC9nPjwvZz48ZyB0cmFuc2Zvcm09InRyYW5zbGF0ZSgzMjAuOTcyNjU2MjUsIDYwNC44NzUpIiBpZD0ic3RhdGUtSW52YWxpZEtleS0xMyIgY2xhc3M9Im5vZGUgIHN0YXRlZGlhZ3JhbS1zdGF0ZSI+PHJlY3QgaGVpZ2h0PSI0MCIgd2lkdGg9Ijg4Ljk2ODc1IiB5PSItMjAiIHg9Ii00NC40ODQzNzUiIHJ5PSI1IiByeD0iNSIgc3R5bGU9IiIgY2xhc3M9ImJhc2ljIGxhYmVsLWNvbnRhaW5lciI+PC9yZWN0PjxnIHRyYW5zZm9ybT0idHJhbnNsYXRlKC0zNi40ODQzNzUsIC0xMikiIHN0eWxlPSIiIGNsYXNzPSJsYWJlbCI+PHJlY3Q+PC9yZWN0Pjxmb3JlaWduT2JqZWN0IGhlaWdodD0iMjQiIHdpZHRoPSI3Mi45Njg3NSI+PGRpdiBzdHlsZT0iZGlzcGxheTogdGFibGUtY2VsbDsgd2hpdGUtc3BhY2U6IG5vd3JhcDsgbGluZS1oZWlnaHQ6IDEuNTsgbWF4LXdpZHRoOiAyMDBweDsgdGV4dC1hbGlnbjogY2VudGVyOyIgeG1sbnM9Imh0dHA6Ly93d3cudzMub3JnLzE5OTkveGh0bWwiPjxzcGFuIGNsYXNzPSJub2RlTGFiZWwiPjxwPkludmFsaWRLZXk8L3A+PC9zcGFuPjwvZGl2PjwvZm9yZWlnbk9iamVjdD48L2c+PC9nPjwvZz48L2c+PGcgdHJhbnNmb3JtPSJ0cmFuc2xhdGUoMjU4LjE2Nzk2ODc1LCAxMzE4Ljc4MTI1MDk1MzY3NDMpIiBpZD0ic3RhdGUtaWQtMW9tNDlucWp6dmktMTJfZW5kLTYiIGNsYXNzPSJub2RlIGRlZmF1bHQiPjxnPjxwYXRoIHN0eWxlPSIiIGZpbGw9IiNlZWUiIHN0cm9rZS13aWR0aD0iMCIgc3Ryb2tlPSJub25lIiBkPSJNNyAwIEM3IDAuNDA1MTc5MDgxMjIyODM3NDcsIDYuOTY0MDEyODgwMTY4NTYzIDAuODE2NTEzNzQzMTIxODk5LCA2Ljg5MzY1NDI3MTA4NTQ1NiAxLjIxNTUzNzI0MzY2ODUxMjMgQzYuODIzMjk1NjYyMDAyMzQ5IDEuNjE0NTYwNzQ0MjE1MTI1NywgNi43MTY0Mjc3NTI5MzM3NTYgMi4wMTMzOTcyMTA1NTc3NjYsIDYuNTc3ODQ4MzQ1NTAxMzU4NiAyLjM5NDE0MTAwMzI3OTY4MSBDNi40MzkyNjg5MzgwNjg5NjEgMi43NzQ4ODQ3OTYwMDE1OTU0LCA2LjI2NDc2NzM2NzEwMjQ5IDMuMTQ5MTA0NjIyNTc4OTg0LCA2LjA2MjE3NzgyNjQ5MTA3MSAzLjQ5OTk5OTk5OTk5OTk5OTYgQzUuODU5NTg4Mjg1ODc5NjUzIDMuODUwODk1Mzc3NDIxMDE1MywgNS42MjI3NTUxOTQ5NDcwNjMgNC4xODkxMjgwODQxNjY5NjcsIDUuMzYyMzExMTAxODMyODQ2IDQuNDk5NTEzMjY3ODA1Nzc0IEM1LjEwMTg2NzAwODcxODYzIDQuODA5ODk4NDUxNDQ0NTgyLCA0LjgwOTg5ODQ1MTQ0NDU4MyA1LjEwMTg2NzAwODcxODYzLCA0LjQ5OTUxMzI2NzgwNTc3NSA1LjM2MjMxMTEwMTgzMjg0NiBDNC4xODkxMjgwODQxNjY5NjggNS42MjI3NTUxOTQ5NDcwNjMsIDMuODUwODk1Mzc3NDIxMDE2NiA1Ljg1OTU4ODI4NTg3OTY1MiwgMy41MDAwMDAwMDAwMDAwMDEgNi4wNjIxNzc4MjY0OTEwNyBDMy4xNDkxMDQ2MjI1Nzg5ODUgNi4yNjQ3NjczNjcxMDI0ODksIDIuNzc0ODg0Nzk2MDAxNTk2MyA2LjQzOTI2ODkzODA2ODk2MSwgMi4zOTQxNDEwMDMyNzk2ODE3IDYuNTc3ODQ4MzQ1NTAxMzU4NiBDMi4wMTMzOTcyMTA1NTc3NjcgNi43MTY0Mjc3NTI5MzM3NTYsIDEuNjE0NTYwNzQ0MjE1MTI2NCA2LjgyMzI5NTY2MjAwMjM0OSwgMS4yMTU1MzcyNDM2Njg1MTI4IDYuODkzNjU0MjcxMDg1NDU2IEMwLjgxNjUxMzc0MzEyMTg5OTIgNi45NjQwMTI4ODAxNjg1NjMsIDAuNDA1MTc5MDgxMjIyODM3OSA3LCA0LjI4NjI2Mzc5NzAxNTczNmUtMTYgNyBDLTAuNDA1MTc5MDgxMjIyODM3IDcsIC0wLjgxNjUxMzc0MzEyMTg5ODUgNi45NjQwMTI4ODAxNjg1NjMsIC0xLjIxNTUzNzI0MzY2ODUxMjEgNi44OTM2NTQyNzEwODU0NTYgQy0xLjYxNDU2MDc0NDIxNTEyNTcgNi44MjMyOTU2NjIwMDIzNDksIC0yLjAxMzM5NzIxMDU1Nzc2NjcgNi43MTY0Mjc3NTI5MzM3NTYsIC0yLjM5NDE0MTAwMzI3OTY4MSA2LjU3Nzg0ODM0NTUwMTM1ODYgQy0yLjc3NDg4NDc5NjAwMTU5NSA2LjQzOTI2ODkzODA2ODk2MSwgLTMuMTQ5MTA0NjIyNTc4OTgzIDYuMjY0NzY3MzY3MTAyNDksIC0zLjQ5OTk5OTk5OTk5OTk5ODIgNi4wNjIxNzc4MjY0OTEwNzEgQy0zLjg1MDg5NTM3NzQyMTAxMzUgNS44NTk1ODgyODU4Nzk2NTMsIC00LjE4OTEyODA4NDE2Njk2NSA1LjYyMjc1NTE5NDk0NzA2MzYsIC00LjQ5OTUxMzI2NzgwNTc3MjUgNS4zNjIzMTExMDE4MzI4NDggQy00LjgwOTg5ODQ1MTQ0NDU4IDUuMTAxODY3MDA4NzE4NjMyLCAtNS4xMDE4NjcwMDg3MTg2MjcgNC44MDk4OTg0NTE0NDQ1ODYsIC01LjM2MjMxMTEwMTgzMjg0MyA0LjQ5OTUxMzI2NzgwNTc3OSBDLTUuNjIyNzU1MTk0OTQ3MDU4IDQuMTg5MTI4MDg0MTY2OTcxLCAtNS44NTk1ODgyODU4Nzk2NDkgMy44NTA4OTUzNzc0MjEwMjA2LCAtNi4wNjIxNzc4MjY0OTEwNjggMy41MDAwMDAwMDAwMDAwMDUzIEMtNi4yNjQ3NjczNjcxMDI0ODYgMy4xNDkxMDQ2MjI1Nzg5OSwgLTYuNDM5MjY4OTM4MDY4OTU4IDIuNzc0ODg0Nzk2MDAxNjAyLCAtNi41Nzc4NDgzNDU1MDEzNTYgMi4zOTQxNDEwMDMyNzk2ODggQy02LjcxNjQyNzc1MjkzMzc1NCAyLjAxMzM5NzIxMDU1Nzc3MzgsIC02LjgyMzI5NTY2MjAwMjM0NyAxLjYxNDU2MDc0NDIxNTEzNCwgLTYuODkzNjU0MjcxMDg1NDU0IDEuMjE1NTM3MjQzNjY4NTIxIEMtNi45NjQwMTI4ODAxNjg1NjE1IDAuODE2NTEzNzQzMTIxOTA4LCAtNi45OTk5OTk5OTk5OTk5OTkgMC40MDUxNzkwODEyMjI4NDcyLCAtNyAxLjAxODMxMjYxNjYyNTQ0NjNlLTE0IEMtNy4wMDAwMDAwMDAwMDAwMDEgLTAuNDA1MTc5MDgxMjIyODI2ODYsIC02Ljk2NDAxMjg4MDE2ODU2NSAtMC44MTY1MTM3NDMxMjE4ODc4LCAtNi44OTM2NTQyNzEwODU0NTkgLTEuMjE1NTM3MjQzNjY4NTAxIEMtNi44MjMyOTU2NjIwMDIzNTIgLTEuNjE0NTYwNzQ0MjE1MTE0MiwgLTYuNzE2NDI3NzUyOTMzNzU5IC0yLjAxMzM5NzIxMDU1Nzc1NDIsIC02LjU3Nzg0ODM0NTUwMTM2MyAtMi4zOTQxNDEwMDMyNzk2NjkgQy02LjQzOTI2ODkzODA2ODk2NyAtMi43NzQ4ODQ3OTYwMDE1ODM0LCAtNi4yNjQ3NjczNjcxMDI0OTYgLTMuMTQ5MTA0NjIyNTc4OTcyLCAtNi4wNjIxNzc4MjY0OTEwNzggLTMuNDk5OTk5OTk5OTk5OTg3NiBDLTUuODU5NTg4Mjg1ODc5NjYxIC0zLjg1MDg5NTM3NzQyMTAwMzMsIC01LjYyMjc1NTE5NDk0NzA3MTUgLTQuMTg5MTI4MDg0MTY2OTU0NSwgLTUuMzYyMzExMTAxODMyODU2IC00LjQ5OTUxMzI2NzgwNTc2MyBDLTUuMTAxODY3MDA4NzE4NjQgLTQuODA5ODk4NDUxNDQ0NTcxLCAtNC44MDk4OTg0NTE0NDQ1OTQgLTUuMTAxODY3MDA4NzE4NjIsIC00LjQ5OTUxMzI2NzgwNTc4NyAtNS4zNjIzMTExMDE4MzI4MzYgQy00LjE4OTEyODA4NDE2Njk3OSAtNS42MjI3NTUxOTQ5NDcwNTMsIC0zLjg1MDg5NTM3NzQyMTAyOSAtNS44NTk1ODgyODU4Nzk2NDMsIC0zLjUwMDAwMDAwMDAwMDAxNCAtNi4wNjIxNzc4MjY0OTEwNjIgQy0zLjE0OTEwNDYyMjU3ODk5OTQgLTYuMjY0NzY3MzY3MTAyNDgyLCAtMi43NzQ4ODQ3OTYwMDE2MTA1IC02LjQzOTI2ODkzODA2ODk1NCwgLTIuMzk0MTQxMDAzMjc5Njk3IC02LjU3Nzg0ODM0NTUwMTM1MyBDLTIuMDEzMzk3MjEwNTU3NzgzIC02LjcxNjQyNzc1MjkzMzc1MiwgLTEuNjE0NTYwNzQ0MjE1MTQzNSAtNi44MjMyOTU2NjIwMDIzNDUsIC0xLjIxNTUzNzI0MzY2ODUzMDggLTYuODkzNjU0MjcxMDg1NDUzIEMtMC44MTY1MTM3NDMxMjE5MTggLTYuOTY0MDEyODgwMTY4NTYxNSwgLTAuNDA1MTc5MDgxMjIyODU2OTUgLTYuOTk5OTk5OTk5OTk5OTk5LCAtMS45OTM3NjI1OTUyODA3MzUyZS0xNCAtNyBDMC40MDUxNzkwODEyMjI4MTcxIC03LjAwMDAwMDAwMDAwMDAwMSwgMC44MTY1MTM3NDMxMjE4Nzc5IC02Ljk2NDAxMjg4MDE2ODU2NSwgMS4yMTU1MzcyNDM2Njg0OTEzIC02Ljg5MzY1NDI3MTA4NTQ2IEMxLjYxNDU2MDc0NDIxNTEwNDYgLTYuODIzMjk1NjYyMDAyMzU0LCAyLjAxMzM5NzIxMDU1Nzc0NTMgLTYuNzE2NDI3NzUyOTMzNzYzLCAyLjM5NDE0MTAwMzI3OTY2IC02LjU3Nzg0ODM0NTUwMTM2NjUgQzIuNzc0ODg0Nzk2MDAxNTc0NiAtNi40MzkyNjg5MzgwNjg5NywgMy4xNDkxMDQ2MjI1Nzg5NjMgLTYuMjY0NzY3MzY3MTAyNSwgMy40OTk5OTk5OTk5OTk5Nzg3IC02LjA2MjE3NzgyNjQ5MTA4MyBDMy44NTA4OTUzNzc0MjA5OTQ0IC01Ljg1OTU4ODI4NTg3OTY2NSwgNC4xODkxMjgwODQxNjY5NDcgLTUuNjIyNzU1MTk0OTQ3MDc4LCA0LjQ5OTUxMzI2NzgwNTc1NiAtNS4zNjIzMTExMDE4MzI4NjMgQzQuODA5ODk4NDUxNDQ0NTY0IC01LjEwMTg2NzAwODcxODY0OCwgNS4xMDE4NjcwMDg3MTg2MTMgLTQuODA5ODk4NDUxNDQ0NjAyLCA1LjM2MjMxMTEwMTgzMjgyOSAtNC40OTk1MTMyNjc4MDU3OTYgQzUuNjIyNzU1MTk0OTQ3MDQ2IC00LjE4OTEyODA4NDE2Njk4OSwgNS44NTk1ODgyODU4Nzk2MzcgLTMuODUwODk1Mzc3NDIxMDM5MywgNi4wNjIxNzc4MjY0OTEwNTYgLTMuNTAwMDAwMDAwMDAwMDI1IEM2LjI2NDc2NzM2NzEwMjQ3NTUgLTMuMTQ5MTA0NjIyNTc5MDEwNSwgNi40MzkyNjg5MzgwNjg5NDkgLTIuNzc0ODg0Nzk2MDAxNjIyNSwgNi41Nzc4NDgzNDU1MDEzNDggLTIuMzk0MTQxMDAzMjc5NzA5IEM2LjcxNjQyNzc1MjkzMzc0NyAtMi4wMTMzOTcyMTA1NTc3OTUsIDYuODIzMjk1NjYyMDAyMzQyIC0xLjYxNDU2MDc0NDIxNTE1NjIsIDYuODkzNjU0MjcxMDg1NDUxIC0xLjIxNTUzNzI0MzY2ODU0MzQgQzYuOTY0MDEyODgwMTY4NTYgLTAuODE2NTEzNzQzMTIxOTMwNywgNi45ODIyNzU3MTE4NDc1NzUgLTAuMjAyNTg5NTQwNjExNDU2NywgNyAtMy4yODAwNzUwMjA4MzEwNjc1ZS0xNCBDNy4wMTc3MjQyODgxNTI0MjUgMC4yMDI1ODk1NDA2MTEzOTExLCA3LjAxNzcyNDI4ODE1MjQyNCAtMC4yMDI1ODk1NDA2MTE0MjQyLCA3IDAiPjwvcGF0aD48cGF0aCBzdHlsZT0iIiBmaWxsPSJub25lIiBzdHJva2Utd2lkdGg9IjIiIHN0cm9rZT0iIzY2NiIgZD0iTTcgMCBDNyAwLjQwNTE3OTA4MTIyMjgzNzQ3LCA2Ljk2NDAxMjg4MDE2ODU2MyAwLjgxNjUxMzc0MzEyMTg5OSwgNi44OTM2NTQyNzEwODU0NTYgMS4yMTU1MzcyNDM2Njg1MTIzIEM2LjgyMzI5NTY2MjAwMjM0OSAxLjYxNDU2MDc0NDIxNTEyNTcsIDYuNzE2NDI3NzUyOTMzNzU2IDIuMDEzMzk3MjEwNTU3NzY2LCA2LjU3Nzg0ODM0NTUwMTM1ODYgMi4zOTQxNDEwMDMyNzk2ODEgQzYuNDM5MjY4OTM4MDY4OTYxIDIuNzc0ODg0Nzk2MDAxNTk1NCwgNi4yNjQ3NjczNjcxMDI0OSAzLjE0OTEwNDYyMjU3ODk4NCwgNi4wNjIxNzc4MjY0OTEwNzEgMy40OTk5OTk5OTk5OTk5OTk2IEM1Ljg1OTU4ODI4NTg3OTY1MyAzLjg1MDg5NTM3NzQyMTAxNTMsIDUuNjIyNzU1MTk0OTQ3MDYzIDQuMTg5MTI4MDg0MTY2OTY3LCA1LjM2MjMxMTEwMTgzMjg0NiA0LjQ5OTUxMzI2NzgwNTc3NCBDNS4xMDE4NjcwMDg3MTg2MyA0LjgwOTg5ODQ1MTQ0NDU4MiwgNC44MDk4OTg0NTE0NDQ1ODMgNS4xMDE4NjcwMDg3MTg2MywgNC40OTk1MTMyNjc4MDU3NzUgNS4zNjIzMTExMDE4MzI4NDYgQzQuMTg5MTI4MDg0MTY2OTY4IDUuNjIyNzU1MTk0OTQ3MDYzLCAzLjg1MDg5NTM3NzQyMTAxNjYgNS44NTk1ODgyODU4Nzk2NTIsIDMuNTAwMDAwMDAwMDAwMDAxIDYuMDYyMTc3ODI2NDkxMDcgQzMuMTQ5MTA0NjIyNTc4OTg1IDYuMjY0NzY3MzY3MTAyNDg5LCAyLjc3NDg4NDc5NjAwMTU5NjMgNi40MzkyNjg5MzgwNjg5NjEsIDIuMzk0MTQxMDAzMjc5NjgxNyA2LjU3Nzg0ODM0NTUwMTM1ODYgQzIuMDEzMzk3MjEwNTU3NzY3IDYuNzE2NDI3NzUyOTMzNzU2LCAxLjYxNDU2MDc0NDIxNTEyNjQgNi44MjMyOTU2NjIwMDIzNDksIDEuMjE1NTM3MjQzNjY4NTEyOCA2Ljg5MzY1NDI3MTA4NTQ1NiBDMC44MTY1MTM3NDMxMjE4OTkyIDYuOTY0MDEyODgwMTY4NTYzLCAwLjQwNTE3OTA4MTIyMjgzNzkgNywgNC4yODYyNjM3OTcwMTU3MzZlLTE2IDcgQy0wLjQwNTE3OTA4MTIyMjgzNyA3LCAtMC44MTY1MTM3NDMxMjE4OTg1IDYuOTY0MDEyODgwMTY4NTYzLCAtMS4yMTU1MzcyNDM2Njg1MTIxIDYuODkzNjU0MjcxMDg1NDU2IEMtMS42MTQ1NjA3NDQyMTUxMjU3IDYuODIzMjk1NjYyMDAyMzQ5LCAtMi4wMTMzOTcyMTA1NTc3NjY3IDYuNzE2NDI3NzUyOTMzNzU2LCAtMi4zOTQxNDEwMDMyNzk2ODEgNi41Nzc4NDgzNDU1MDEzNTg2IEMtMi43NzQ4ODQ3OTYwMDE1OTUgNi40MzkyNjg5MzgwNjg5NjEsIC0zLjE0OTEwNDYyMjU3ODk4MyA2LjI2NDc2NzM2NzEwMjQ5LCAtMy40OTk5OTk5OTk5OTk5OTgyIDYuMDYyMTc3ODI2NDkxMDcxIEMtMy44NTA4OTUzNzc0MjEwMTM1IDUuODU5NTg4Mjg1ODc5NjUzLCAtNC4xODkxMjgwODQxNjY5NjUgNS42MjI3NTUxOTQ5NDcwNjM2LCAtNC40OTk1MTMyNjc4MDU3NzI1IDUuMzYyMzExMTAxODMyODQ4IEMtNC44MDk4OTg0NTE0NDQ1OCA1LjEwMTg2NzAwODcxODYzMiwgLTUuMTAxODY3MDA4NzE4NjI3IDQuODA5ODk4NDUxNDQ0NTg2LCAtNS4zNjIzMTExMDE4MzI4NDMgNC40OTk1MTMyNjc4MDU3NzkgQy01LjYyMjc1NTE5NDk0NzA1OCA0LjE4OTEyODA4NDE2Njk3MSwgLTUuODU5NTg4Mjg1ODc5NjQ5IDMuODUwODk1Mzc3NDIxMDIwNiwgLTYuMDYyMTc3ODI2NDkxMDY4IDMuNTAwMDAwMDAwMDAwMDA1MyBDLTYuMjY0NzY3MzY3MTAyNDg2IDMuMTQ5MTA0NjIyNTc4OTksIC02LjQzOTI2ODkzODA2ODk1OCAyLjc3NDg4NDc5NjAwMTYwMiwgLTYuNTc3ODQ4MzQ1NTAxMzU2IDIuMzk0MTQxMDAzMjc5Njg4IEMtNi43MTY0Mjc3NTI5MzM3NTQgMi4wMTMzOTcyMTA1NTc3NzM4LCAtNi44MjMyOTU2NjIwMDIzNDcgMS42MTQ1NjA3NDQyMTUxMzQsIC02Ljg5MzY1NDI3MTA4NTQ1NCAxLjIxNTUzNzI0MzY2ODUyMSBDLTYuOTY0MDEyODgwMTY4NTYxNSAwLjgxNjUxMzc0MzEyMTkwOCwgLTYuOTk5OTk5OTk5OTk5OTk5IDAuNDA1MTc5MDgxMjIyODQ3MiwgLTcgMS4wMTgzMTI2MTY2MjU0NDYzZS0xNCBDLTcuMDAwMDAwMDAwMDAwMDAxIC0wLjQwNTE3OTA4MTIyMjgyNjg2LCAtNi45NjQwMTI4ODAxNjg1NjUgLTAuODE2NTEzNzQzMTIxODg3OCwgLTYuODkzNjU0MjcxMDg1NDU5IC0xLjIxNTUzNzI0MzY2ODUwMSBDLTYuODIzMjk1NjYyMDAyMzUyIC0xLjYxNDU2MDc0NDIxNTExNDIsIC02LjcxNjQyNzc1MjkzMzc1OSAtMi4wMTMzOTcyMTA1NTc3NTQyLCAtNi41Nzc4NDgzNDU1MDEzNjMgLTIuMzk0MTQxMDAzMjc5NjY5IEMtNi40MzkyNjg5MzgwNjg5NjcgLTIuNzc0ODg0Nzk2MDAxNTgzNCwgLTYuMjY0NzY3MzY3MTAyNDk2IC0zLjE0OTEwNDYyMjU3ODk3MiwgLTYuMDYyMTc3ODI2NDkxMDc4IC0zLjQ5OTk5OTk5OTk5OTk4NzYgQy01Ljg1OTU4ODI4NTg3OTY2MSAtMy44NTA4OTUzNzc0MjEwMDMzLCAtNS42MjI3NTUxOTQ5NDcwNzE1IC00LjE4OTEyODA4NDE2Njk1NDUsIC01LjM2MjMxMTEwMTgzMjg1NiAtNC40OTk1MTMyNjc4MDU3NjMgQy01LjEwMTg2NzAwODcxODY0IC00LjgwOTg5ODQ1MTQ0NDU3MSwgLTQuODA5ODk4NDUxNDQ0NTk0IC01LjEwMTg2NzAwODcxODYyLCAtNC40OTk1MTMyNjc4MDU3ODcgLTUuMzYyMzExMTAxODMyODM2IEMtNC4xODkxMjgwODQxNjY5NzkgLTUuNjIyNzU1MTk0OTQ3MDUzLCAtMy44NTA4OTUzNzc0MjEwMjkgLTUuODU5NTg4Mjg1ODc5NjQzLCAtMy41MDAwMDAwMDAwMDAwMTQgLTYuMDYyMTc3ODI2NDkxMDYyIEMtMy4xNDkxMDQ2MjI1Nzg5OTk0IC02LjI2NDc2NzM2NzEwMjQ4MiwgLTIuNzc0ODg0Nzk2MDAxNjEwNSAtNi40MzkyNjg5MzgwNjg5NTQsIC0yLjM5NDE0MTAwMzI3OTY5NyAtNi41Nzc4NDgzNDU1MDEzNTMgQy0yLjAxMzM5NzIxMDU1Nzc4MyAtNi43MTY0Mjc3NTI5MzM3NTIsIC0xLjYxNDU2MDc0NDIxNTE0MzUgLTYuODIzMjk1NjYyMDAyMzQ1LCAtMS4yMTU1MzcyNDM2Njg1MzA4IC02Ljg5MzY1NDI3MTA4NTQ1MyBDLTAuODE2NTEzNzQzMTIxOTE4IC02Ljk2NDAxMjg4MDE2ODU2MTUsIC0wLjQwNTE3OTA4MTIyMjg1Njk1IC02Ljk5OTk5OTk5OTk5OTk5OSwgLTEuOTkzNzYyNTk1MjgwNzM1MmUtMTQgLTcgQzAuNDA1MTc5MDgxMjIyODE3MSAtNy4wMDAwMDAwMDAwMDAwMDEsIDAuODE2NTEzNzQzMTIxODc3OSAtNi45NjQwMTI4ODAxNjg1NjUsIDEuMjE1NTM3MjQzNjY4NDkxMyAtNi44OTM2NTQyNzEwODU0NiBDMS42MTQ1NjA3NDQyMTUxMDQ2IC02LjgyMzI5NTY2MjAwMjM1NCwgMi4wMTMzOTcyMTA1NTc3NDUzIC02LjcxNjQyNzc1MjkzMzc2MywgMi4zOTQxNDEwMDMyNzk2NiAtNi41Nzc4NDgzNDU1MDEzNjY1IEMyLjc3NDg4NDc5NjAwMTU3NDYgLTYuNDM5MjY4OTM4MDY4OTcsIDMuMTQ5MTA0NjIyNTc4OTYzIC02LjI2NDc2NzM2NzEwMjUsIDMuNDk5OTk5OTk5OTk5OTc4NyAtNi4wNjIxNzc4MjY0OTEwODMgQzMuODUwODk1Mzc3NDIwOTk0NCAtNS44NTk1ODgyODU4Nzk2NjUsIDQuMTg5MTI4MDg0MTY2OTQ3IC01LjYyMjc1NTE5NDk0NzA3OCwgNC40OTk1MTMyNjc4MDU3NTYgLTUuMzYyMzExMTAxODMyODYzIEM0LjgwOTg5ODQ1MTQ0NDU2NCAtNS4xMDE4NjcwMDg3MTg2NDgsIDUuMTAxODY3MDA4NzE4NjEzIC00LjgwOTg5ODQ1MTQ0NDYwMiwgNS4zNjIzMTExMDE4MzI4MjkgLTQuNDk5NTEzMjY3ODA1Nzk2IEM1LjYyMjc1NTE5NDk0NzA0NiAtNC4xODkxMjgwODQxNjY5ODksIDUuODU5NTg4Mjg1ODc5NjM3IC0zLjg1MDg5NTM3NzQyMTAzOTMsIDYuMDYyMTc3ODI2NDkxMDU2IC0zLjUwMDAwMDAwMDAwMDAyNSBDNi4yNjQ3NjczNjcxMDI0NzU1IC0zLjE0OTEwNDYyMjU3OTAxMDUsIDYuNDM5MjY4OTM4MDY4OTQ5IC0yLjc3NDg4NDc5NjAwMTYyMjUsIDYuNTc3ODQ4MzQ1NTAxMzQ4IC0yLjM5NDE0MTAwMzI3OTcwOSBDNi43MTY0Mjc3NTI5MzM3NDcgLTIuMDEzMzk3MjEwNTU3Nzk1LCA2LjgyMzI5NTY2MjAwMjM0MiAtMS42MTQ1NjA3NDQyMTUxNTYyLCA2Ljg5MzY1NDI3MTA4NTQ1MSAtMS4yMTU1MzcyNDM2Njg1NDM0IEM2Ljk2NDAxMjg4MDE2ODU2IC0wLjgxNjUxMzc0MzEyMTkzMDcsIDYuOTgyMjc1NzExODQ3NTc1IC0wLjIwMjU4OTU0MDYxMTQ1NjcsIDcgLTMuMjgwMDc1MDIwODMxMDY3NWUtMTQgQzcuMDE3NzI0Mjg4MTUyNDI1IDAuMjAyNTg5NTQwNjExMzkxMSwgNy4wMTc3MjQyODgxNTI0MjQgLTAuMjAyNTg5NTQwNjExNDI0MiwgNyAwIj48L3BhdGg+PGc+PHBhdGggc3R5bGU9IiIgZmlsbD0iIzAwMCIgc3Ryb2tlLXdpZHRoPSIwIiBzdHJva2U9Im5vbmUiIGQ9Ik0yLjUgMCBDMi41IDAuMTQ0NzA2ODE0NzIyNDQxOTMsIDIuNDg3MTQ3NDU3MjAzMDU4IDAuMjkxNjEyMDUxMTE0OTYzODYsIDIuNDYyMDE5MzgyNTMwNTIgMC40MzQxMjA0NDQxNjczMjU4IEMyLjQzNjg5MTMwNzg1Nzk4MiAwLjU3NjYyODgzNzIxOTY4NzcsIDIuMzk4NzI0MTk3NDc2MzQxNiAwLjcxOTA3MDQzMjM0MjA1OTUsIDIuMzQ5MjMxNTUxOTY0NzcxMyAwLjg1NTA1MDM1ODMxNDE3MTggQzIuMjk5NzM4OTA2NDUzMjAxIDAuOTkxMDMwMjg0Mjg2Mjg0LCAyLjIzNzQxNjkxNjgyMjMxNzcgMS4xMjQ2ODAyMjIzNDk2MzcsIDIuMTY1MDYzNTA5NDYxMDk3IDEuMjQ5OTk5OTk5OTk5OTk5OCBDMi4wOTI3MTAxMDIwOTk4NzYgMS4zNzUzMTk3Nzc2NTAzNjI1LCAyLjAwODEyNjg1NTMzODIzNjUgMS40OTYxMTcxNzI5MTY3NzQsIDEuOTE1MTExMTA3Nzk3NDQ1IDEuNjA2OTY5MDI0MjE2MzQ4MSBDMS44MjIwOTUzNjAyNTY2NTM2IDEuNzE3ODIwODc1NTE1OTIyMywgMS43MTc4MjA4NzU1MTU5MjI2IDEuODIyMDk1MzYwMjU2NjUzNiwgMS42MDY5NjkwMjQyMTYzNDg0IDEuOTE1MTExMTA3Nzk3NDQ1IEMxLjQ5NjExNzE3MjkxNjc3NDIgMi4wMDgxMjY4NTUzMzgyMzY1LCAxLjM3NTMxOTc3NzY1MDM2MyAyLjA5MjcxMDEwMjA5OTg3NTUsIDEuMjUwMDAwMDAwMDAwMDAwMiAyLjE2NTA2MzUwOTQ2MTA5NjQgQzEuMTI0NjgwMjIyMzQ5NjM3NSAyLjIzNzQxNjkxNjgyMjMxNzIsIDAuOTkxMDMwMjg0Mjg2Mjg0NSAyLjI5OTczODkwNjQ1MzIsIDAuODU1MDUwMzU4MzE0MTcyMSAyLjM0OTIzMTU1MTk2NDc3MSBDMC43MTkwNzA0MzIzNDIwNTk3IDIuMzk4NzI0MTk3NDc2MzQxNiwgMC41NzY2Mjg4MzcyMTk2ODggMi40MzY4OTEzMDc4NTc5ODIsIDAuNDM0MTIwNDQ0MTY3MzI2MDQgMi40NjIwMTkzODI1MzA1MiBDMC4yOTE2MTIwNTExMTQ5NjQgMi40ODcxNDc0NTcyMDMwNTgsIDAuMTQ0NzA2ODE0NzIyNDQyMTIgMi41LCAxLjUzMDgwODQ5ODkzNDE5MTZlLTE2IDIuNSBDLTAuMTQ0NzA2ODE0NzIyNDQxOCAyLjUsIC0wLjI5MTYxMjA1MTExNDk2MzggMi40ODcxNDc0NTcyMDMwNTgsIC0wLjQzNDEyMDQ0NDE2NzMyNTc2IDIuNDYyMDE5MzgyNTMwNTIgQy0wLjU3NjYyODgzNzIxOTY4NzcgMi40MzY4OTEzMDc4NTc5ODIsIC0wLjcxOTA3MDQzMjM0MjA1OTUgMi4zOTg3MjQxOTc0NzYzNDE2LCAtMC44NTUwNTAzNTgzMTQxNzE4IDIuMzQ5MjMxNTUxOTY0NzcxMyBDLTAuOTkxMDMwMjg0Mjg2Mjg0IDIuMjk5NzM4OTA2NDUzMjAxLCAtMS4xMjQ2ODAyMjIzNDk2MzcgMi4yMzc0MTY5MTY4MjIzMTgsIC0xLjI0OTk5OTk5OTk5OTk5OTYgMi4xNjUwNjM1MDk0NjEwOTczIEMtMS4zNzUzMTk3Nzc2NTAzNjIgMi4wOTI3MTAxMDIwOTk4NzY0LCAtMS40OTYxMTcxNzI5MTY3NzMzIDIuMDA4MTI2ODU1MzM4MjM3LCAtMS42MDY5NjkwMjQyMTYzNDcyIDEuOTE1MTExMTA3Nzk3NDQ1OSBDLTEuNzE3ODIwODc1NTE1OTIxMiAxLjgyMjA5NTM2MDI1NjY1NDUsIC0xLjgyMjA5NTM2MDI1NjY1MjUgMS43MTc4MjA4NzU1MTU5MjM0LCAtMS45MTUxMTExMDc3OTc0NDM5IDEuNjA2OTY5MDI0MjE2MzQ5NSBDLTIuMDA4MTI2ODU1MzM4MjM1IDEuNDk2MTE3MTcyOTE2Nzc1NSwgLTIuMDkyNzEwMTAyMDk5ODc0NiAxLjM3NTMxOTc3NzY1MDM2NDUsIC0yLjE2NTA2MzUwOTQ2MTA5NTUgMS4yNTAwMDAwMDAwMDAwMDIgQy0yLjIzNzQxNjkxNjgyMjMxNjQgMS4xMjQ2ODAyMjIzNDk2Mzk1LCAtMi4yOTk3Mzg5MDY0NTMxOTkyIDAuOTkxMDMwMjg0Mjg2Mjg2NSwgLTIuMzQ5MjMxNTUxOTY0NzcgMC44NTUwNTAzNTgzMTQxNzQzIEMtMi4zOTg3MjQxOTc0NzYzNDA3IDAuNzE5MDcwNDMyMzQyMDYyMSwgLTIuNDM2ODkxMzA3ODU3OTgxIDAuNTc2NjI4ODM3MjE5NjkwNywgLTIuNDYyMDE5MzgyNTMwNTE5NCAwLjQzNDEyMDQ0NDE2NzMyOSBDLTIuNDg3MTQ3NDU3MjAzMDU4IDAuMjkxNjEyMDUxMTE0OTY3MjQsIC0yLjUgMC4xNDQ3MDY4MTQ3MjI0NDU0NSwgLTIuNSAzLjYzNjgzMDc3MzY2MjMwOGUtMTUgQy0yLjUgLTAuMTQ0NzA2ODE0NzIyNDM4MTgsIC0yLjQ4NzE0NzQ1NzIwMzA1ODcgLTAuMjkxNjEyMDUxMTE0OTU5OSwgLTIuNDYyMDE5MzgyNTMwNTIwOCAtMC40MzQxMjA0NDQxNjczMjE4IEMtMi40MzY4OTEzMDc4NTc5ODMgLTAuNTc2NjI4ODM3MjE5NjgzNywgLTIuMzk4NzI0MTk3NDc2MzQzIC0wLjcxOTA3MDQzMjM0MjA1NTMsIC0yLjM0OTIzMTU1MTk2NDc3MjYgLTAuODU1MDUwMzU4MzE0MTY3NSBDLTIuMjk5NzM4OTA2NDUzMjAyMyAtMC45OTEwMzAyODQyODYyNzk4LCAtMi4yMzc0MTY5MTY4MjIzMiAtMS4xMjQ2ODAyMjIzNDk2MzI4LCAtMi4xNjUwNjM1MDk0NjEwOTkgLTEuMjQ5OTk5OTk5OTk5OTk1NiBDLTIuMDkyNzEwMTAyMDk5ODc4IC0xLjM3NTMxOTc3NzY1MDM1ODMsIC0yLjAwODEyNjg1NTMzODI0IC0xLjQ5NjExNzE3MjkxNjc2OTUsIC0xLjkxNTExMTEwNzc5NzQ0ODggLTEuNjA2OTY5MDI0MjE2MzQ0IEMtMS44MjIwOTUzNjAyNTY2NTc2IC0xLjcxNzgyMDg3NTUxNTkxODMsIC0xLjcxNzgyMDg3NTUxNTkyNjMgLTEuODIyMDk1MzYwMjU2NjUsIC0xLjYwNjk2OTAyNDIxNjM1MjMgLTEuOTE1MTExMTA3Nzk3NDQxNiBDLTEuNDk2MTE3MTcyOTE2Nzc4NCAtMi4wMDgxMjY4NTUzMzgyMzM0LCAtMS4zNzUzMTk3Nzc2NTAzNjc0IC0yLjA5MjcxMDEwMjA5OTg3MjQsIC0xLjI1MDAwMDAwMDAwMDAwNDkgLTIuMTY1MDYzNTA5NDYxMDkzNyBDLTEuMTI0NjgwMjIyMzQ5NjQyNCAtMi4yMzc0MTY5MTY4MjIzMTUsIC0wLjk5MTAzMDI4NDI4NjI4OTYgLTIuMjk5NzM4OTA2NDUzMTk4LCAtMC44NTUwNTAzNTgzMTQxNzc1IC0yLjM0OTIzMTU1MTk2NDc2ODYgQy0wLjcxOTA3MDQzMjM0MjA2NTUgLTIuMzk4NzI0MTk3NDc2MzM5NCwgLTAuNTc2NjI4ODM3MjE5Njk0MiAtMi40MzY4OTEzMDc4NTc5ODA2LCAtMC40MzQxMjA0NDQxNjczMzI0IC0yLjQ2MjAxOTM4MjUzMDUxOSBDLTAuMjkxNjEyMDUxMTE0OTcwNyAtMi40ODcxNDc0NTcyMDMwNTc0LCAtMC4xNDQ3MDY4MTQ3MjI0NDg5MiAtMi40OTk5OTk5OTk5OTk5OTk2LCAtNy4xMjA1ODA2OTc0MzExOThlLTE1IC0yLjUgQzAuMTQ0NzA2ODE0NzIyNDM0NjYgLTIuNTAwMDAwMDAwMDAwMDAwNCwgMC4yOTE2MTIwNTExMTQ5NTY0IC0yLjQ4NzE0NzQ1NzIwMzA1OSwgMC40MzQxMjA0NDQxNjczMTgzIC0yLjQ2MjAxOTM4MjUzMDUyMTcgQzAuNTc2NjI4ODM3MjE5NjgwMiAtMi40MzY4OTEzMDc4NTc5ODQsIDAuNzE5MDcwNDMyMzQyMDUxOSAtMi4zOTg3MjQxOTc0NzYzNDQyLCAwLjg1NTA1MDM1ODMxNDE2NDMgLTIuMzQ5MjMxNTUxOTY0Nzc0IEMwLjk5MTAzMDI4NDI4NjI3NjcgLTIuMjk5NzM4OTA2NDUzMjAzNywgMS4xMjQ2ODAyMjIzNDk2Mjk3IC0yLjIzNzQxNjkxNjgyMjMyMTIsIDEuMjQ5OTk5OTk5OTk5OTkyNSAtMi4xNjUwNjM1MDk0NjExMDEgQzEuMzc1MzE5Nzc3NjUwMzU1MiAtMi4wOTI3MTAxMDIwOTk4ODA0LCAxLjQ5NjExNzE3MjkxNjc2NjggLTIuMDA4MTI2ODU1MzM4MjQyLCAxLjYwNjk2OTAyNDIxNjM0MTIgLTEuOTE1MTExMTA3Nzk3NDUxMiBDMS43MTc4MjA4NzU1MTU5MTU3IC0xLjgyMjA5NTM2MDI1NjY2MDMsIDEuODIyMDk1MzYwMjU2NjQ3MiAtMS43MTc4MjA4NzU1MTU5Mjk0LCAxLjkxNTExMTEwNzc5NzQzOSAtMS42MDY5NjkwMjQyMTYzNTU3IEMyLjAwODEyNjg1NTMzODIzMDggLTEuNDk2MTE3MTcyOTE2NzgyLCAyLjA5MjcxMDEwMjA5OTg3IC0xLjM3NTMxOTc3NzY1MDM3MTIsIDIuMTY1MDYzNTA5NDYxMDkxNSAtMS4yNTAwMDAwMDAwMDAwMDg5IEMyLjIzNzQxNjkxNjgyMjMxMyAtMS4xMjQ2ODAyMjIzNDk2NDY2LCAyLjI5OTczODkwNjQ1MzE5NiAtMC45OTEwMzAyODQyODYyOTM3LCAyLjM0OTIzMTU1MTk2NDc2NzMgLTAuODU1MDUwMzU4MzE0MTgxNyBDMi4zOTg3MjQxOTc0NzYzMzg1IC0wLjcxOTA3MDQzMjM0MjA2OTgsIDIuNDM2ODkxMzA3ODU3OTc5MiAtMC41NzY2Mjg4MzcyMTk2OTg2LCAyLjQ2MjAxOTM4MjUzMDUxOCAtMC40MzQxMjA0NDQxNjczMzY5IEMyLjQ4NzE0NzQ1NzIwMzA1NyAtMC4yOTE2MTIwNTExMTQ5NzUyMywgMi40OTM2Njk4OTcwODg0MTk3IC0wLjA3MjM1MzQwNzM2MTIzNDU0LCAyLjUgLTEuMTcxNDU1MzY0NTgyNTI0MWUtMTQgQzIuNTA2MzMwMTAyOTExNTgwMyAwLjA3MjM1MzQwNzM2MTIxMTExLCAyLjUwNjMzMDEwMjkxMTU4IC0wLjA3MjM1MzQwNzM2MTIyMjkyLCAyLjUgMCI+PC9wYXRoPjxwYXRoIHN0eWxlPSIiIGZpbGw9Im5vbmUiIHN0cm9rZS13aWR0aD0iMiIgc3Ryb2tlPSIjMDAwIiBkPSJNMi41IDAgQzIuNSAwLjE0NDcwNjgxNDcyMjQ0MTkzLCAyLjQ4NzE0NzQ1NzIwMzA1OCAwLjI5MTYxMjA1MTExNDk2Mzg2LCAyLjQ2MjAxOTM4MjUzMDUyIDAuNDM0MTIwNDQ0MTY3MzI1OCBDMi40MzY4OTEzMDc4NTc5ODIgMC41NzY2Mjg4MzcyMTk2ODc3LCAyLjM5ODcyNDE5NzQ3NjM0MTYgMC43MTkwNzA0MzIzNDIwNTk1LCAyLjM0OTIzMTU1MTk2NDc3MTMgMC44NTUwNTAzNTgzMTQxNzE4IEMyLjI5OTczODkwNjQ1MzIwMSAwLjk5MTAzMDI4NDI4NjI4NCwgMi4yMzc0MTY5MTY4MjIzMTc3IDEuMTI0NjgwMjIyMzQ5NjM3LCAyLjE2NTA2MzUwOTQ2MTA5NyAxLjI0OTk5OTk5OTk5OTk5OTggQzIuMDkyNzEwMTAyMDk5ODc2IDEuMzc1MzE5Nzc3NjUwMzYyNSwgMi4wMDgxMjY4NTUzMzgyMzY1IDEuNDk2MTE3MTcyOTE2Nzc0LCAxLjkxNTExMTEwNzc5NzQ0NSAxLjYwNjk2OTAyNDIxNjM0ODEgQzEuODIyMDk1MzYwMjU2NjUzNiAxLjcxNzgyMDg3NTUxNTkyMjMsIDEuNzE3ODIwODc1NTE1OTIyNiAxLjgyMjA5NTM2MDI1NjY1MzYsIDEuNjA2OTY5MDI0MjE2MzQ4NCAxLjkxNTExMTEwNzc5NzQ0NSBDMS40OTYxMTcxNzI5MTY3NzQyIDIuMDA4MTI2ODU1MzM4MjM2NSwgMS4zNzUzMTk3Nzc2NTAzNjMgMi4wOTI3MTAxMDIwOTk4NzU1LCAxLjI1MDAwMDAwMDAwMDAwMDIgMi4xNjUwNjM1MDk0NjEwOTY0IEMxLjEyNDY4MDIyMjM0OTYzNzUgMi4yMzc0MTY5MTY4MjIzMTcyLCAwLjk5MTAzMDI4NDI4NjI4NDUgMi4yOTk3Mzg5MDY0NTMyLCAwLjg1NTA1MDM1ODMxNDE3MjEgMi4zNDkyMzE1NTE5NjQ3NzEgQzAuNzE5MDcwNDMyMzQyMDU5NyAyLjM5ODcyNDE5NzQ3NjM0MTYsIDAuNTc2NjI4ODM3MjE5Njg4IDIuNDM2ODkxMzA3ODU3OTgyLCAwLjQzNDEyMDQ0NDE2NzMyNjA0IDIuNDYyMDE5MzgyNTMwNTIgQzAuMjkxNjEyMDUxMTE0OTY0IDIuNDg3MTQ3NDU3MjAzMDU4LCAwLjE0NDcwNjgxNDcyMjQ0MjEyIDIuNSwgMS41MzA4MDg0OTg5MzQxOTE2ZS0xNiAyLjUgQy0wLjE0NDcwNjgxNDcyMjQ0MTggMi41LCAtMC4yOTE2MTIwNTExMTQ5NjM4IDIuNDg3MTQ3NDU3MjAzMDU4LCAtMC40MzQxMjA0NDQxNjczMjU3NiAyLjQ2MjAxOTM4MjUzMDUyIEMtMC41NzY2Mjg4MzcyMTk2ODc3IDIuNDM2ODkxMzA3ODU3OTgyLCAtMC43MTkwNzA0MzIzNDIwNTk1IDIuMzk4NzI0MTk3NDc2MzQxNiwgLTAuODU1MDUwMzU4MzE0MTcxOCAyLjM0OTIzMTU1MTk2NDc3MTMgQy0wLjk5MTAzMDI4NDI4NjI4NCAyLjI5OTczODkwNjQ1MzIwMSwgLTEuMTI0NjgwMjIyMzQ5NjM3IDIuMjM3NDE2OTE2ODIyMzE4LCAtMS4yNDk5OTk5OTk5OTk5OTk2IDIuMTY1MDYzNTA5NDYxMDk3MyBDLTEuMzc1MzE5Nzc3NjUwMzYyIDIuMDkyNzEwMTAyMDk5ODc2NCwgLTEuNDk2MTE3MTcyOTE2NzczMyAyLjAwODEyNjg1NTMzODIzNywgLTEuNjA2OTY5MDI0MjE2MzQ3MiAxLjkxNTExMTEwNzc5NzQ0NTkgQy0xLjcxNzgyMDg3NTUxNTkyMTIgMS44MjIwOTUzNjAyNTY2NTQ1LCAtMS44MjIwOTUzNjAyNTY2NTI1IDEuNzE3ODIwODc1NTE1OTIzNCwgLTEuOTE1MTExMTA3Nzk3NDQzOSAxLjYwNjk2OTAyNDIxNjM0OTUgQy0yLjAwODEyNjg1NTMzODIzNSAxLjQ5NjExNzE3MjkxNjc3NTUsIC0yLjA5MjcxMDEwMjA5OTg3NDYgMS4zNzUzMTk3Nzc2NTAzNjQ1LCAtMi4xNjUwNjM1MDk0NjEwOTU1IDEuMjUwMDAwMDAwMDAwMDAyIEMtMi4yMzc0MTY5MTY4MjIzMTY0IDEuMTI0NjgwMjIyMzQ5NjM5NSwgLTIuMjk5NzM4OTA2NDUzMTk5MiAwLjk5MTAzMDI4NDI4NjI4NjUsIC0yLjM0OTIzMTU1MTk2NDc3IDAuODU1MDUwMzU4MzE0MTc0MyBDLTIuMzk4NzI0MTk3NDc2MzQwNyAwLjcxOTA3MDQzMjM0MjA2MjEsIC0yLjQzNjg5MTMwNzg1Nzk4MSAwLjU3NjYyODgzNzIxOTY5MDcsIC0yLjQ2MjAxOTM4MjUzMDUxOTQgMC40MzQxMjA0NDQxNjczMjkgQy0yLjQ4NzE0NzQ1NzIwMzA1OCAwLjI5MTYxMjA1MTExNDk2NzI0LCAtMi41IDAuMTQ0NzA2ODE0NzIyNDQ1NDUsIC0yLjUgMy42MzY4MzA3NzM2NjIzMDhlLTE1IEMtMi41IC0wLjE0NDcwNjgxNDcyMjQzODE4LCAtMi40ODcxNDc0NTcyMDMwNTg3IC0wLjI5MTYxMjA1MTExNDk1OTksIC0yLjQ2MjAxOTM4MjUzMDUyMDggLTAuNDM0MTIwNDQ0MTY3MzIxOCBDLTIuNDM2ODkxMzA3ODU3OTgzIC0wLjU3NjYyODgzNzIxOTY4MzcsIC0yLjM5ODcyNDE5NzQ3NjM0MyAtMC43MTkwNzA0MzIzNDIwNTUzLCAtMi4zNDkyMzE1NTE5NjQ3NzI2IC0wLjg1NTA1MDM1ODMxNDE2NzUgQy0yLjI5OTczODkwNjQ1MzIwMjMgLTAuOTkxMDMwMjg0Mjg2Mjc5OCwgLTIuMjM3NDE2OTE2ODIyMzIgLTEuMTI0NjgwMjIyMzQ5NjMyOCwgLTIuMTY1MDYzNTA5NDYxMDk5IC0xLjI0OTk5OTk5OTk5OTk5NTYgQy0yLjA5MjcxMDEwMjA5OTg3OCAtMS4zNzUzMTk3Nzc2NTAzNTgzLCAtMi4wMDgxMjY4NTUzMzgyNCAtMS40OTYxMTcxNzI5MTY3Njk1LCAtMS45MTUxMTExMDc3OTc0NDg4IC0xLjYwNjk2OTAyNDIxNjM0NCBDLTEuODIyMDk1MzYwMjU2NjU3NiAtMS43MTc4MjA4NzU1MTU5MTgzLCAtMS43MTc4MjA4NzU1MTU5MjYzIC0xLjgyMjA5NTM2MDI1NjY1LCAtMS42MDY5NjkwMjQyMTYzNTIzIC0xLjkxNTExMTEwNzc5NzQ0MTYgQy0xLjQ5NjExNzE3MjkxNjc3ODQgLTIuMDA4MTI2ODU1MzM4MjMzNCwgLTEuMzc1MzE5Nzc3NjUwMzY3NCAtMi4wOTI3MTAxMDIwOTk4NzI0LCAtMS4yNTAwMDAwMDAwMDAwMDQ5IC0yLjE2NTA2MzUwOTQ2MTA5MzcgQy0xLjEyNDY4MDIyMjM0OTY0MjQgLTIuMjM3NDE2OTE2ODIyMzE1LCAtMC45OTEwMzAyODQyODYyODk2IC0yLjI5OTczODkwNjQ1MzE5OCwgLTAuODU1MDUwMzU4MzE0MTc3NSAtMi4zNDkyMzE1NTE5NjQ3Njg2IEMtMC43MTkwNzA0MzIzNDIwNjU1IC0yLjM5ODcyNDE5NzQ3NjMzOTQsIC0wLjU3NjYyODgzNzIxOTY5NDIgLTIuNDM2ODkxMzA3ODU3OTgwNiwgLTAuNDM0MTIwNDQ0MTY3MzMyNCAtMi40NjIwMTkzODI1MzA1MTkgQy0wLjI5MTYxMjA1MTExNDk3MDcgLTIuNDg3MTQ3NDU3MjAzMDU3NCwgLTAuMTQ0NzA2ODE0NzIyNDQ4OTIgLTIuNDk5OTk5OTk5OTk5OTk5NiwgLTcuMTIwNTgwNjk3NDMxMTk4ZS0xNSAtMi41IEMwLjE0NDcwNjgxNDcyMjQzNDY2IC0yLjUwMDAwMDAwMDAwMDAwMDQsIDAuMjkxNjEyMDUxMTE0OTU2NCAtMi40ODcxNDc0NTcyMDMwNTksIDAuNDM0MTIwNDQ0MTY3MzE4MyAtMi40NjIwMTkzODI1MzA1MjE3IEMwLjU3NjYyODgzNzIxOTY4MDIgLTIuNDM2ODkxMzA3ODU3OTg0LCAwLjcxOTA3MDQzMjM0MjA1MTkgLTIuMzk4NzI0MTk3NDc2MzQ0MiwgMC44NTUwNTAzNTgzMTQxNjQzIC0yLjM0OTIzMTU1MTk2NDc3NCBDMC45OTEwMzAyODQyODYyNzY3IC0yLjI5OTczODkwNjQ1MzIwMzcsIDEuMTI0NjgwMjIyMzQ5NjI5NyAtMi4yMzc0MTY5MTY4MjIzMjEyLCAxLjI0OTk5OTk5OTk5OTk5MjUgLTIuMTY1MDYzNTA5NDYxMTAxIEMxLjM3NTMxOTc3NzY1MDM1NTIgLTIuMDkyNzEwMTAyMDk5ODgwNCwgMS40OTYxMTcxNzI5MTY3NjY4IC0yLjAwODEyNjg1NTMzODI0MiwgMS42MDY5NjkwMjQyMTYzNDEyIC0xLjkxNTExMTEwNzc5NzQ1MTIgQzEuNzE3ODIwODc1NTE1OTE1NyAtMS44MjIwOTUzNjAyNTY2NjAzLCAxLjgyMjA5NTM2MDI1NjY0NzIgLTEuNzE3ODIwODc1NTE1OTI5NCwgMS45MTUxMTExMDc3OTc0MzkgLTEuNjA2OTY5MDI0MjE2MzU1NyBDMi4wMDgxMjY4NTUzMzgyMzA4IC0xLjQ5NjExNzE3MjkxNjc4MiwgMi4wOTI3MTAxMDIwOTk4NyAtMS4zNzUzMTk3Nzc2NTAzNzEyLCAyLjE2NTA2MzUwOTQ2MTA5MTUgLTEuMjUwMDAwMDAwMDAwMDA4OSBDMi4yMzc0MTY5MTY4MjIzMTMgLTEuMTI0NjgwMjIyMzQ5NjQ2NiwgMi4yOTk3Mzg5MDY0NTMxOTYgLTAuOTkxMDMwMjg0Mjg2MjkzNywgMi4zNDkyMzE1NTE5NjQ3NjczIC0wLjg1NTA1MDM1ODMxNDE4MTcgQzIuMzk4NzI0MTk3NDc2MzM4NSAtMC43MTkwNzA0MzIzNDIwNjk4LCAyLjQzNjg5MTMwNzg1Nzk3OTIgLTAuNTc2NjI4ODM3MjE5Njk4NiwgMi40NjIwMTkzODI1MzA1MTggLTAuNDM0MTIwNDQ0MTY3MzM2OSBDMi40ODcxNDc0NTcyMDMwNTcgLTAuMjkxNjEyMDUxMTE0OTc1MjMsIDIuNDkzNjY5ODk3MDg4NDE5NyAtMC4wNzIzNTM0MDczNjEyMzQ1NCwgMi41IC0xLjE3MTQ1NTM2NDU4MjUyNDFlLTE0IEMyLjUwNjMzMDEwMjkxMTU4MDMgMC4wNzIzNTM0MDczNjEyMTExMSwgMi41MDYzMzAxMDI5MTE1OCAtMC4wNzIzNTM0MDczNjEyMjI5MiwgMi41IDAiPjwvcGF0aD48L2c+PC9nPjwvZz48L2c+PC9nPjwvZz48L2c+PC9nPjwvZz48L2c+PC9zdmc+;" vertex="1" parent="1">
            <mxGeometry x="320" y="-480" width="1219.59765625" height="1572.78125" as="geometry" />
          </mxCell>
        </UserObject>
        <mxCell id="owtUUDXRkgIipBkVIKQN-3" value="PlantUML" style="text;html=1;align=center;verticalAlign=middle;whiteSpace=wrap;rounded=0;fontSize=27;fontStyle=1" vertex="1" parent="1">
          <mxGeometry x="-354" y="-510" width="290" height="30" as="geometry" />
        </mxCell>
        <mxCell id="owtUUDXRkgIipBkVIKQN-4" value="Mermaid" style="text;html=1;align=center;verticalAlign=middle;whiteSpace=wrap;rounded=0;fontSize=27;fontStyle=1" vertex="1" parent="1">
          <mxGeometry x="784.8" y="-510" width="290" height="30" as="geometry" />
        </mxCell>
      </root>
    </mxGraphModel>
  </diagram>
  <diagram id="rREqlJyqAl5Tevd5MDTl" name="Mermaid to draw.io">
    <mxGraphModel dx="1137" dy="574" grid="1" gridSize="10" guides="1" tooltips="1" connect="1" arrows="1" fold="1" page="0" pageScale="1" pageWidth="1169" pageHeight="827" math="0" shadow="0">
      <root>
        <mxCell id="0" />
        <mxCell id="1" parent="0" />
        <mxCell id="RqwzfU_rKqQWzB3J6qfV-1" value="" style="ellipse;fillColor=strokeColor;" vertex="1" parent="1">
          <mxGeometry x="488" y="20" width="14" height="14" as="geometry" />
        </mxCell>
        <mxCell id="RqwzfU_rKqQWzB3J6qfV-2" value="Reconnecting" style="swimlane;fontStyle=1;align=center;verticalAlign=middle;startSize=25;container=0;collapsible=0;rounded=1;arcSize=14;dropTarget=0;verticalAlign=top;" vertex="1" parent="1">
          <mxGeometry x="20" y="84" width="949" height="1444" as="geometry" />
        </mxCell>
        <mxCell id="RqwzfU_rKqQWzB3J6qfV-3" value="" style="fillColor=#F7F7F7;dashed=1;dashPattern=12 12;verticalAlign=top;" vertex="1" parent="RqwzfU_rKqQWzB3J6qfV-2">
          <mxGeometry x="43" y="455" width="329" height="548" as="geometry" />
        </mxCell>
        <mxCell id="RqwzfU_rKqQWzB3J6qfV-4" value="" style="ellipse;fillColor=strokeColor;" vertex="1" parent="RqwzfU_rKqQWzB3J6qfV-3">
          <mxGeometry x="203" y="58" width="14" height="14" as="geometry" />
        </mxCell>
        <mxCell id="RqwzfU_rKqQWzB3J6qfV-5" value="EstablishingConnection" style="rounded=1;arcSize=20;strokeWidth=2" vertex="1" parent="RqwzfU_rKqQWzB3J6qfV-3">
          <mxGeometry x="119" y="172" width="181" height="40" as="geometry" />
        </mxCell>
        <mxCell id="RqwzfU_rKqQWzB3J6qfV-6" value="" style="whiteSpace=wrap;strokeWidth=2;" vertex="1" parent="RqwzfU_rKqQWzB3J6qfV-3">
          <mxGeometry x="117" y="359" as="geometry" />
        </mxCell>
        <mxCell id="RqwzfU_rKqQWzB3J6qfV-7" value="" style="whiteSpace=wrap;strokeWidth=2;" vertex="1" parent="RqwzfU_rKqQWzB3J6qfV-3">
          <mxGeometry x="173" y="506" as="geometry" />
        </mxCell>
        <mxCell id="RqwzfU_rKqQWzB3J6qfV-8" value="" style="ellipse;shape=endState;fillColor=strokeColor;" vertex="1" parent="RqwzfU_rKqQWzB3J6qfV-3">
          <mxGeometry x="203" y="352" width="14" height="14" as="geometry" />
        </mxCell>
        <mxCell id="RqwzfU_rKqQWzB3J6qfV-9" value="" style="curved=1;startArrow=none;;exitX=0.49;exitY=1;entryX=0.5;entryY=0;rounded=0;" edge="1" parent="RqwzfU_rKqQWzB3J6qfV-3" source="RqwzfU_rKqQWzB3J6qfV-4" target="RqwzfU_rKqQWzB3J6qfV-5">
          <mxGeometry relative="1" as="geometry">
            <Array as="points" />
          </mxGeometry>
        </mxCell>
        <mxCell id="RqwzfU_rKqQWzB3J6qfV-10" value="" style="curved=1;startArrow=none;endArrow=none;exitX=0.39;exitY=1;entryX=-Infinity;entryY=Infinity;rounded=0;" edge="1" parent="RqwzfU_rKqQWzB3J6qfV-3" source="RqwzfU_rKqQWzB3J6qfV-5" target="RqwzfU_rKqQWzB3J6qfV-6">
          <mxGeometry relative="1" as="geometry">
            <Array as="points">
              <mxPoint x="117" y="282" />
            </Array>
          </mxGeometry>
        </mxCell>
        <mxCell id="RqwzfU_rKqQWzB3J6qfV-11" value="failed [no connection] /wait 5s then reconnect" style="curved=1;startArrow=none;endArrow=none;exitX=-Infinity;exitY=Infinity;entryX=-Infinity;entryY=Infinity;rounded=0;" edge="1" parent="RqwzfU_rKqQWzB3J6qfV-3" source="RqwzfU_rKqQWzB3J6qfV-6" target="RqwzfU_rKqQWzB3J6qfV-7">
          <mxGeometry relative="1" as="geometry">
            <Array as="points">
              <mxPoint x="117" y="436" />
            </Array>
          </mxGeometry>
        </mxCell>
        <mxCell id="RqwzfU_rKqQWzB3J6qfV-12" value="" style="curved=1;startArrow=none;;exitX=Infinity;exitY=Infinity;entryX=0.62;entryY=1;rounded=0;" edge="1" parent="RqwzfU_rKqQWzB3J6qfV-3" source="RqwzfU_rKqQWzB3J6qfV-7" target="RqwzfU_rKqQWzB3J6qfV-5">
          <mxGeometry relative="1" as="geometry">
            <Array as="points">
              <mxPoint x="309" y="436" />
              <mxPoint x="309" y="282" />
            </Array>
          </mxGeometry>
        </mxCell>
        <mxCell id="RqwzfU_rKqQWzB3J6qfV-13" value="success [connection established]" style="curved=1;startArrow=none;;exitX=0.5;exitY=1;entryX=0.49;entryY=0.01;rounded=0;" edge="1" parent="RqwzfU_rKqQWzB3J6qfV-3" source="RqwzfU_rKqQWzB3J6qfV-5" target="RqwzfU_rKqQWzB3J6qfV-8">
          <mxGeometry relative="1" as="geometry">
            <Array as="points" />
          </mxGeometry>
        </mxCell>
        <mxCell id="RqwzfU_rKqQWzB3J6qfV-14" value="" style="fillColor=#F7F7F7;dashed=1;dashPattern=12 12;verticalAlign=top;" vertex="1" parent="RqwzfU_rKqQWzB3J6qfV-2">
          <mxGeometry x="422" y="46" width="500" height="1368" as="geometry" />
        </mxCell>
        <mxCell id="RqwzfU_rKqQWzB3J6qfV-15" value="" style="ellipse;fillColor=strokeColor;" vertex="1" parent="RqwzfU_rKqQWzB3J6qfV-14">
          <mxGeometry x="251" y="58" width="14" height="14" as="geometry" />
        </mxCell>
        <mxCell id="RqwzfU_rKqQWzB3J6qfV-16" value="Listening" style="rounded=1;arcSize=20;strokeWidth=2" vertex="1" parent="RqwzfU_rKqQWzB3J6qfV-14">
          <mxGeometry x="218" y="172" width="80" height="40" as="geometry" />
        </mxCell>
        <mxCell id="RqwzfU_rKqQWzB3J6qfV-17" value="VerifyingAccess" style="swimlane;fontStyle=1;align=center;verticalAlign=middle;startSize=25;container=0;collapsible=0;rounded=1;arcSize=14;dropTarget=0;verticalAlign=top;" vertex="1" parent="RqwzfU_rKqQWzB3J6qfV-14">
          <mxGeometry x="43" y="352" width="430" height="860" as="geometry" />
        </mxCell>
        <mxCell id="RqwzfU_rKqQWzB3J6qfV-18" value="" style="ellipse;fillColor=strokeColor;" vertex="1" parent="RqwzfU_rKqQWzB3J6qfV-17">
          <mxGeometry x="219" y="71" width="14" height="14" as="geometry" />
        </mxCell>
        <mxCell id="RqwzfU_rKqQWzB3J6qfV-19" value="CheckingInternalRecords" style="rounded=1;arcSize=20;strokeWidth=2" vertex="1" parent="RqwzfU_rKqQWzB3J6qfV-17">
          <mxGeometry x="129" y="210" width="192" height="40" as="geometry" />
        </mxCell>
        <mxCell id="RqwzfU_rKqQWzB3J6qfV-20" value="KeyAccessVerified" style="rounded=1;arcSize=20;strokeWidth=2" vertex="1" parent="RqwzfU_rKqQWzB3J6qfV-17">
          <mxGeometry x="58" y="397" width="144" height="40" as="geometry" />
        </mxCell>
        <mxCell id="RqwzfU_rKqQWzB3J6qfV-21" value="Unlocked" style="rounded=1;arcSize=20;strokeWidth=2" vertex="1" parent="RqwzfU_rKqQWzB3J6qfV-17">
          <mxGeometry x="89" y="585" width="82" height="40" as="geometry" />
        </mxCell>
        <mxCell id="RqwzfU_rKqQWzB3J6qfV-22" value="" style="ellipse;shape=endState;fillColor=strokeColor;" vertex="1" parent="RqwzfU_rKqQWzB3J6qfV-17">
          <mxGeometry x="219" y="790" width="14" height="14" as="geometry" />
        </mxCell>
        <mxCell id="RqwzfU_rKqQWzB3J6qfV-23" value="InvalidKey" style="rounded=1;arcSize=20;strokeWidth=2" vertex="1" parent="RqwzfU_rKqQWzB3J6qfV-17">
          <mxGeometry x="276" y="585" width="89" height="40" as="geometry" />
        </mxCell>
        <mxCell id="RqwzfU_rKqQWzB3J6qfV-24" value="" style="curved=1;startArrow=none;;exitX=0.47;exitY=0.96;entryX=0.5;entryY=-0.01;rounded=0;" edge="1" parent="RqwzfU_rKqQWzB3J6qfV-17" source="RqwzfU_rKqQWzB3J6qfV-18" target="RqwzfU_rKqQWzB3J6qfV-19">
          <mxGeometry relative="1" as="geometry">
            <Array as="points" />
          </mxGeometry>
        </mxCell>
        <mxCell id="RqwzfU_rKqQWzB3J6qfV-25" value="key allowed [valid key]" style="curved=1;startArrow=none;;exitX=0.4;exitY=0.99;entryX=0.5;entryY=0;rounded=0;" edge="1" parent="RqwzfU_rKqQWzB3J6qfV-17" source="RqwzfU_rKqQWzB3J6qfV-19" target="RqwzfU_rKqQWzB3J6qfV-20">
          <mxGeometry relative="1" as="geometry">
            <Array as="points">
              <mxPoint x="130" y="323" />
            </Array>
          </mxGeometry>
        </mxCell>
        <mxCell id="RqwzfU_rKqQWzB3J6qfV-26" value="[valid key] /unlock" style="curved=1;startArrow=none;;exitX=0.5;exitY=1;entryX=0.5;entryY=0;rounded=0;" edge="1" parent="RqwzfU_rKqQWzB3J6qfV-17" source="RqwzfU_rKqQWzB3J6qfV-20" target="RqwzfU_rKqQWzB3J6qfV-21">
          <mxGeometry relative="1" as="geometry">
            <Array as="points" />
          </mxGeometry>
        </mxCell>
        <mxCell id="RqwzfU_rKqQWzB3J6qfV-27" value="wait 5 seconds after door close [unlocked] /lock" style="curved=1;startArrow=none;;exitX=0.5;exitY=1;entryX=-0.03;entryY=0.03;rounded=0;" edge="1" parent="RqwzfU_rKqQWzB3J6qfV-17" source="RqwzfU_rKqQWzB3J6qfV-21" target="RqwzfU_rKqQWzB3J6qfV-22">
          <mxGeometry relative="1" as="geometry">
            <Array as="points">
              <mxPoint x="130" y="707" />
            </Array>
          </mxGeometry>
        </mxCell>
        <mxCell id="RqwzfU_rKqQWzB3J6qfV-28" value="not found [invalid key] /ignore" style="curved=1;startArrow=none;;exitX=0.61;exitY=0.99;entryX=0.51;entryY=0;rounded=0;" edge="1" parent="RqwzfU_rKqQWzB3J6qfV-17" source="RqwzfU_rKqQWzB3J6qfV-19" target="RqwzfU_rKqQWzB3J6qfV-23">
          <mxGeometry relative="1" as="geometry">
            <Array as="points">
              <mxPoint x="321" y="323" />
            </Array>
          </mxGeometry>
        </mxCell>
        <mxCell id="RqwzfU_rKqQWzB3J6qfV-29" value="/ignore" style="curved=1;startArrow=none;;exitX=0.51;exitY=1;entryX=0.97;entryY=0.03;rounded=0;" edge="1" parent="RqwzfU_rKqQWzB3J6qfV-17" source="RqwzfU_rKqQWzB3J6qfV-23" target="RqwzfU_rKqQWzB3J6qfV-22">
          <mxGeometry relative="1" as="geometry">
            <Array as="points">
              <mxPoint x="321" y="707" />
            </Array>
          </mxGeometry>
        </mxCell>
        <mxCell id="RqwzfU_rKqQWzB3J6qfV-30" value="" style="ellipse;shape=endState;fillColor=strokeColor;" vertex="1" parent="RqwzfU_rKqQWzB3J6qfV-14">
          <mxGeometry x="251" y="1312" width="14" height="14" as="geometry" />
        </mxCell>
        <mxCell id="RqwzfU_rKqQWzB3J6qfV-31" value="" style="curved=1;startArrow=none;;exitX=0.51;exitY=1;entryX=0.5;entryY=0;rounded=0;" edge="1" parent="RqwzfU_rKqQWzB3J6qfV-14" source="RqwzfU_rKqQWzB3J6qfV-15" target="RqwzfU_rKqQWzB3J6qfV-16">
          <mxGeometry relative="1" as="geometry">
            <Array as="points" />
          </mxGeometry>
        </mxCell>
        <mxCell id="RqwzfU_rKqQWzB3J6qfV-32" value="key presented [valid RFID code] /verify" style="curved=1;startArrow=none;;exitX=0.31;exitY=1;entryX=0.36;entryY=0;rounded=0;" edge="1" parent="RqwzfU_rKqQWzB3J6qfV-14" source="RqwzfU_rKqQWzB3J6qfV-16" target="RqwzfU_rKqQWzB3J6qfV-17">
          <mxGeometry relative="1" as="geometry">
            <Array as="points">
              <mxPoint x="190" y="282" />
            </Array>
          </mxGeometry>
        </mxCell>
        <mxCell id="RqwzfU_rKqQWzB3J6qfV-33" value="" style="curved=1;startArrow=none;;exitX=0.5;exitY=1;entryX=0.51;entryY=-0.02;rounded=0;" edge="1" parent="RqwzfU_rKqQWzB3J6qfV-14" source="RqwzfU_rKqQWzB3J6qfV-17" target="RqwzfU_rKqQWzB3J6qfV-30">
          <mxGeometry relative="1" as="geometry">
            <Array as="points" />
          </mxGeometry>
        </mxCell>
        <mxCell id="RqwzfU_rKqQWzB3J6qfV-34" value="" style="curved=1;startArrow=none;;exitX=0.73;exitY=0;entryX=0.82;entryY=1;rounded=0;" edge="1" parent="RqwzfU_rKqQWzB3J6qfV-14" source="RqwzfU_rKqQWzB3J6qfV-17" target="RqwzfU_rKqQWzB3J6qfV-16">
          <mxGeometry relative="1" as="geometry">
            <Array as="points">
              <mxPoint x="373" y="282" />
            </Array>
          </mxGeometry>
        </mxCell>
        <mxCell id="RqwzfU_rKqQWzB3J6qfV-35" value="" style="curved=1;startArrow=none;;exitX=0.47;exitY=1;entryX=0.5;entryY=0;rounded=0;" edge="1" parent="1" source="RqwzfU_rKqQWzB3J6qfV-1" target="RqwzfU_rKqQWzB3J6qfV-2">
          <mxGeometry relative="1" as="geometry">
            <Array as="points" />
          </mxGeometry>
        </mxCell>
      </root>
    </mxGraphModel>
  </diagram>
</mxfile>
